<svg xmlns="http://www.w3.org/2000/svg" viewBox="0 0 165.43 48.77"><defs><style>.cls-1{font-size:20px;fill:#fff;font-family:Roboto-Light, Roboto;}.cls-2{letter-spacing:-0.01em;}.cls-3{letter-spacing:0.01em;}.cls-4{fill:none;stroke:#fff;stroke-miterlimit:10;}</style></defs><title>Asset 2</title><g id="Layer_2" data-name="Layer 2"><g id="Layer_1-2" data-name="Layer 1"><text class="cls-1" transform="translate(66.46 35.93)">TU<tspan class="cls-2" x="25.26" y="0">T</tspan><tspan x="36.84" y="0">OR</tspan><tspan class="cls-3" x="63.46" y="0">I</tspan><tspan x="69.04" y="0">AIS</tspan></text><path class="cls-4" d="M11.08,48.27H26.29A10.6,10.6,0,0,0,36.87,37.69V15.17c0-5.83-3.33-10.58-7.42-10.58h-5.9a4.94,4.94,0,0,0-9.73,0H7.92C3.83,4.59.5,9.34.5,15.17V37.69A10.6,10.6,0,0,0,11.08,48.27Zm.55-35.64h14.1v6.53H11.63ZM26.53,11H9c.49-3,3.67-3.67,5-3.84a4.93,4.93,0,0,0,9.25-.06A5.15,5.15,0,0,1,28.21,11H26.53ZM18.68,2.1a3.35,3.35,0,1,1-3.34,3.34A3.35,3.35,0,0,1,18.68,2.1Z"/></g></g></svg>