<svg xmlns="http://www.w3.org/2000/svg" viewBox="0 0 218.28 74.03"><defs><style>.cls-1{font-size:20.99px;font-family:Roboto-Light, Roboto;}.cls-1,.cls-8{fill:#fff;}.cls-2{letter-spacing:-0.07em;}.cls-3{letter-spacing:0.01em;}.cls-4{letter-spacing:-0.01em;}.cls-5{letter-spacing:0.01em;}.cls-6{letter-spacing:0em;}.cls-7{fill:none;stroke:#fff;stroke-miterlimit:10;}</style></defs><title>Asset 1</title><g id="Layer_2" data-name="Layer 2"><g id="Layer_1-2" data-name="Layer 1"><text class="cls-1" transform="translate(84.9 17.96)"><tspan class="cls-2">P</tspan><tspan x="11.57" y="0">ASSOS </tspan><tspan class="cls-2" x="81.77" y="0">P</tspan><tspan x="93.34" y="0">ARA</tspan><tspan x="0" y="25.19">UTILI</tspan><tspan class="cls-3" x="48.94" y="25.19">Z</tspan><tspan class="cls-4" x="61.62" y="25.19">A</tspan><tspan x="74.62" y="25.19">Ç</tspan><tspan class="cls-4" x="88.07" y="25.19">Ã</tspan><tspan x="101.07" y="25.19">O</tspan><tspan x="0" y="50.38">DO SISTE</tspan><tspan class="cls-5" x="88.45" y="50.38">M</tspan><tspan class="cls-6" x="106.83" y="50.38">A</tspan></text><circle class="cls-7" cx="8.48" cy="35.21" r="7.98"/><circle class="cls-7" cx="36.86" cy="35.21" r="7.98"/><circle class="cls-7" cx="57.88" cy="35.12" r="8.38"/><path class="cls-7" d="M12.62,22.06s10.55-9.39,19.57-.19"/><polygon class="cls-8" points="34.24 24.13 34.24 24.13 30.13 22.75 32.87 20 34.24 24.13"/><path class="cls-7" d="M28.88,21.32s11.07-9.86,20.53-.2"/><polygon class="cls-8" points="51.58 23.48 51.58 23.48 47.25 22.04 50.13 19.16 51.58 23.48"/></g></g></svg>