<svg xmlns="http://www.w3.org/2000/svg" viewBox="0 0 27.02 27.02"><defs><style>.cls-1{fill:none;stroke:#fff;stroke-miterlimit:10;stroke-width:0.8px;}</style></defs><title>p-pasta-paginas</title><g id="Camada_2" data-name="Camada 2"><g id="Camada_1-2" data-name="Camada 1"><path class="cls-1" d="M25.52,13.07H24V9.46a1.2,1.2,0,0,0-1.19-1.2H21.37V7.21L21.16,7h0L18,3.8,14.56.4H3.89V5.21H1.6A1.19,1.19,0,0,0,.4,6.4V25.49h0a1.12,1.12,0,0,0,1.12,1.13H21.08a1.11,1.11,0,0,0,1.07-.79l4.47-11.33V13.4a1.17,1.17,0,0,0-1.1-1.3ZM14.58,2.85,18.76,7H14.58ZM3.89,5.15V18.27m-3,8,3-8h0l1.82-5v0A.24.24,0,0,1,6,13.07h18"/><path class="cls-1" d="M7.39,7.83h4.37m-4.37,0"/><path class="cls-1" d="M7.39,4.77h4.37m-4.37,0"/><path class="cls-1" d="M7.39,10.89H17.88m-10.49,0"/><line class="cls-1" x1="21.24" y1="13" x2="21.38" y2="7.65"/></g></g></svg>