<?xml version="1.0" encoding="utf-8"?>
<!-- Generator: Adobe Illustrator 17.0.0, SVG Export Plug-In . SVG Version: 6.00 Build 0)  -->
<!DOCTYPE svg PUBLIC "-//W3C//DTD SVG 1.1//EN" "http://www.w3.org/Graphics/SVG/1.1/DTD/svg11.dtd">
<svg version="1.1" id="Camada_1" xmlns="http://www.w3.org/2000/svg" xmlns:xlink="http://www.w3.org/1999/xlink" x="0px" y="0px"
	 width="54.071px" height="62.159px" viewBox="0 0 54.071 62.159" enable-background="new 0 0 54.071 62.159" xml:space="preserve">
<g>
	<path fill="none" stroke="#fff" stroke-width="1.5" stroke-miterlimit="10" d="M52.31,0.75H4.794
		c-2.231,0-4.044,1.814-4.044,4.044v51.56v5.055h5.055h42.462h5.055v-5.055V9.849c0-0.558-0.453-1.011-1.011-1.011l0,0H21.98
		 M6.816,56.354V9.849c0-0.554-0.452-1.005-1.006-1.011c-0.252-0.003-1.003-0.047-1.695-0.44C3.413,8,2.772,7.242,2.772,5.805V4.794
		c0-1.115,0.907-2.023,2.022-2.023H52.31 M52.31,8.838"/>
	<path fill="none" stroke="#fff" stroke-width="1.5" stroke-miterlimit="10" d="M50.288,4.794H17.937
		c-0.558,0-1.011,0.453-1.011,1.011v9.691l-2.318-2.318c-0.396-0.396-1.034-0.396-1.429,0l-2.319,2.318V5.805
		c0-0.558-0.453-1.011-1.011-1.011H5.805"/>
	
		<rect x="17.597" y="20.97" fill="none" stroke="#fff" stroke-width="1.5" stroke-miterlimit="10" width="24.264" height="18.198"/>
</g>
</svg>
