<svg xmlns="http://www.w3.org/2000/svg" viewBox="0 0 17.81 19.11"><defs><style>.cls-1{fill:#ffffff;}</style></defs><title>Asset 2</title><g id="Layer_2" data-name="Layer 2"><g id="Camada_1" data-name="Camada 1"><path class="cls-1" d="M17.81,2.86V4.38H16.22c0,.2,0,.39,0,.58l-.09.87c0,.21,0,.42,0,.62l-.09,1c0,.18,0,.36,0,.54l-.09.93c0,.2,0,.39-.05.59s0,.62-.08.94,0,.37,0,.56-.06.6-.08.89,0,.4-.05.6-.06.58-.08.87,0,.41,0,.62l-.09,1c0,.18,0,.36,0,.54l-.09.92c0,.19,0,.38,0,.57l-.09.89c0,.2,0,.4,0,.6a.74.74,0,0,1-.22.46,1.17,1.17,0,0,1-.41.22H3.43l0,0a.69.69,0,0,1-.47-.29,1.1,1.1,0,0,1-.16-.56c0-.21,0-.41,0-.62l-.09-.94c0-.18,0-.37-.05-.56s0-.6-.08-.91,0-.39,0-.58-.06-.58-.08-.87,0-.42,0-.62l-.09-1c0-.18,0-.36,0-.53l-.09-.91c0-.2,0-.4,0-.61L2,9.19c0-.19,0-.38-.05-.57s-.05-.6-.08-.9,0-.39-.05-.59-.06-.57-.08-.85,0-.43-.05-.64l-.09-1,0-.29H0V2.86H5.21V2.73c0-.52,0-1,0-1.57a1.13,1.13,0,0,1,.58-1A3.3,3.3,0,0,1,6.22,0h5.35l0,0a1.23,1.23,0,0,1,1,1.19V2.86ZM13.54,17.59c0-.22,0-.43.05-.64s0-.35,0-.52l.09-.93c0-.19,0-.37,0-.56s.06-.6.08-.9,0-.41.05-.62.06-.62.08-.93,0-.38,0-.57l.09-.9c0-.2,0-.39,0-.59l.09-.87c0-.21,0-.42,0-.62l.09-1c0-.18,0-.36,0-.54s.06-.62.08-.92,0-.4.05-.6.06-.62.08-.93l.06-.61H3.08c0,.21,0,.41,0,.61l.09.94c0,.18,0,.36,0,.55l.09.87c0,.21,0,.41.05.62s0,.65.08,1,0,.37,0,.55.06.62.08.92,0,.38,0,.58l.09.94c0,.18,0,.37,0,.56l.09.86c0,.21,0,.41,0,.62,0,.37.08.74.11,1.11l.09,1L4.2,17.2c0,.13,0,.26,0,.39ZM11.08,1.52H6.73V2.85h4.35Z"/><path class="cls-1" d="M7.1,15.39l-1.5,0a.35.35,0,0,1,0-.13l0-.77c0-.3,0-.6,0-.9s0-.79,0-1.18,0-.82-.05-1.23,0-.79,0-1.19,0-.8,0-1.21c0-.19,0-.39,0-.59,0-.4,0-.8,0-1.21l0-.44.37,0,1,0h.11v0c0,.23,0,.47,0,.7,0,.47,0,.94,0,1.41,0,.2,0,.39,0,.59,0,.4,0,.81,0,1.21l0,.59c0,.4,0,.81,0,1.21S7,13,7,13.44s0,.8,0,1.2c0,.2,0,.41,0,.61A.78.78,0,0,0,7.1,15.39Z"/><path class="cls-1" d="M12.21,15.44l-1.5,0v-.21c0-.17,0-.35,0-.52,0-.43,0-.85,0-1.28,0-.18,0-.36,0-.54,0-.42,0-.84,0-1.26,0-.19,0-.37,0-.56,0-.41,0-.83.05-1.24,0-.19,0-.38,0-.57,0-.41,0-.82,0-1.23l0-.58c0-.29,0-.58,0-.88l1.52.06,0,.3c0,.35,0,.69,0,1s0,.79,0,1.18,0,.82-.05,1.22,0,.8,0,1.19,0,.81-.05,1.22c0,.19,0,.38,0,.57,0,.41,0,.82,0,1.23,0,.19,0,.38,0,.56S12.23,15.31,12.21,15.44Z"/><path class="cls-1" d="M9.64,15.41H8.14V6.56h1.5Z"/></g></g></svg>