<svg xmlns="http://www.w3.org/2000/svg" viewBox="0 0 19.99 26"><defs><style>.cls-1,.cls-2,.cls-3{fill:none;stroke:#fff;stroke-miterlimit:10;}.cls-2{stroke-width:0.3px;}.cls-3{stroke-width:0.5px;}.cls-4{fill:#fff;}</style></defs><title>p-folha-icone</title><g id="Camada_2" data-name="Camada 2"><g id="Camada_1-2" data-name="Camada 1"><path class="cls-1" d="M19.49,15.72V.5H.5v25h13l6-5.9V11.75m-5.64,12,4.57-4.84H13.32a.53.53,0,0,0-.53.53v5.05"/><path class="cls-2" d="M8.63,10.49A5.55,5.55,0,0,0,9.75,9.28c0,.41.11.6.09,1a8.58,8.58,0,0,0,.78-.51.88.88,0,0,0,1.12.63.66.66,0,0,0,.33-.27c.29-.38.59.16,1.07.2"/><circle class="cls-3" cx="10" cy="10.1" r="5" transform="translate(-2.74 3.8) rotate(-18.98)"/><path class="cls-4" d="M8.26,9.46A1.83,1.83,0,0,1,10,8.22a1.88,1.88,0,0,1,1.76,1.24h.91c0-.09,0-.17-.06-.26h0a2.76,2.76,0,0,0-5.29.26Z"/><path class="cls-4" d="M11.73,10.75a1.85,1.85,0,0,1-1.13,1.14,1.88,1.88,0,0,1-2.37-1.14H7.32c0,.09,0,.17.06.26A2.77,2.77,0,0,0,10,12.87a2.75,2.75,0,0,0,2.68-2.12Z"/></g></g></svg>