<svg xmlns="http://www.w3.org/2000/svg" viewBox="0 0 64.93 75.47"><defs><style>.cls-1{fill:none;stroke:#5776b0;stroke-linecap:round;stroke-linejoin:round;}</style></defs><title>Ativo 7</title><g id="Camada_2" data-name="Camada 2"><g id="Layer_1" data-name="Layer 1"><path class="cls-1" d="M7.2,53.61c.14.21,2.24.53,5.12.88a18.37,18.37,0,0,0,2.92,6.79c-1.82,2.22-3.15,3.87-3.26,4.1-.36.72,2.17,3.62,4,4,.25,0,2-1.26,4.39-3.12A18.36,18.36,0,0,0,27,68.91c.29,2.94.53,5.14.61,5.38.26.77,4.1,1,5.63,0,.22-.14.56-2.4.92-5.45a18.37,18.37,0,0,0,6.87-3,45,45,0,0,0,4.74,3.38c.9.18,4-4,4-4L46,60.7a18.35,18.35,0,0,0,2.61-6.65,44.48,44.48,0,0,0,5.7-1c.77-.51,0-5.63,0-5.63L48.51,47a18.38,18.38,0,0,0-2.88-6.69,42.81,42.81,0,0,0,3.26-4.58c.18-.9-4-4-4-4L40.6,35.33a18.36,18.36,0,0,0-6.92-2.75,41.1,41.1,0,0,0-.91-5.38c-.51-.77-5.63,0-5.63,0s-.21,2.29-.48,5.46a18.38,18.38,0,0,0-6.59,2.79c-2.14-1.75-3.73-3-3.95-3.14-.72-.36-3.62,2.17-4,4,0,.24,1.18,1.92,2.94,4.16a18.37,18.37,0,0,0-2.82,7c-2.78.28-4.82.5-5.06.58C6.43,48.24,6.18,52.08,7.2,53.61ZM30.42,41a9.78,9.78,0,1,1-9.78,9.78A9.78,9.78,0,0,1,30.42,41Z"/><path class="cls-1" d="M38.6,17.76s1.3,4.76,3,5.77c0,0,4.76-2.85,6.35,4,0,0,3.9,1.25,6.93,0,0,0-.29-8.18,6.21-3.85,0,0,2.89-4,3.32-6.06,0,0-5.77-4,0-7.07,0,0-1.44-4.62-3.75-5.92,0,0-5.78,2.31-5.78-3.61A11.51,11.51,0,0,0,48,1s.72,5.05-6.06,3.75A9.37,9.37,0,0,0,38.6,10.4S43.36,12.27,38.6,17.76ZM51.51,7.86a6.42,6.42,0,1,1-6.42,6.42A6.42,6.42,0,0,1,51.51,7.86Z"/><path class="cls-1" d="M.5,19.56S1.57,23.49,3,24.32c0,0,3.93-2.35,5.24,3.29,0,0,3.22,1,5.72,0,0,0-.24-6.75,5.12-3.17,0,0,2.38-3.34,2.74-5,0,0-4.77-3.34,0-5.84,0,0-1.19-3.81-3.1-4.88,0,0-4.77,1.91-4.77-3a9.5,9.5,0,0,0-5.72,0s.6,4.17-5,3.1A7.74,7.74,0,0,0,.5,13.48S4.43,15,.5,19.56Zm10.66-8.17a5.3,5.3,0,1,1-5.3,5.3A5.3,5.3,0,0,1,11.16,11.39Z"/></g></g></svg>