<svg xmlns="http://www.w3.org/2000/svg" viewBox="0 0 63.13 54.9"><defs><style>.cls-1{fill:none;stroke:#fff;stroke-miterlimit:10;}</style></defs><title>Asset 2</title><g id="Layer_2" data-name="Layer 2"><g id="Camada_1" data-name="Camada 1"><path class="cls-1" d="M.51.72,62.63.5V40.86s-15.93.46-21.32.46h-.58c0,1,5.92,13.08,5.92,13.08h-31S23,42.35,23,41.32h-.59c-5.3,0-21.5-.15-21.5-.15ZM31.86,37.09q12.64,0,25.28,0a1.13,1.13,0,0,0,1.27-1.26q0-14.64,0-29.27c0-1-.35-1.31-1.31-1.31H6.62c-1.16,0-1.31.46-1.31,1.29q0,14.66,0,29.32c0,.9.45,1.22,1.22,1.22Zm11.48,14"/><path class="cls-1" d="M36,27.47q0,1.42,0,2.83a1,1,0,0,1-1,1.1q-3,0-5.91,0a1.07,1.07,0,0,1-1-1.07q0-2.9,0-5.81a1,1,0,0,1,1.14-1.1h5.71A1,1,0,0,1,36,24.54Q36,26,36,27.47Z"/><path class="cls-1" d="M15.61,27.43q0-1.44,0-2.88a1,1,0,0,1,1.1-1.11c1.9,0,3.81,0,5.71,0a1.07,1.07,0,0,1,1.16,1.15c0,1.9,0,3.81,0,5.71a1.06,1.06,0,0,1-1.13,1.13q-2.91,0-5.81,0a1,1,0,0,1-1-1.1Q15.61,28.87,15.61,27.43Z"/><path class="cls-1" d="M19.62,11H22.5a1,1,0,0,1,1.08,1q0,3,0,5.91a1,1,0,0,1-1.05,1h-6a.87.87,0,0,1-1-.93c0-2,0-4.07,0-6.1A.85.85,0,0,1,16.5,11Z"/><path class="cls-1" d="M32,11c1,0,2,0,3,0a.91.91,0,0,1,1,.92q0,3,0,6.06a.93.93,0,0,1-1,.93c-2,0-3.94,0-5.91,0a1,1,0,0,1-1.07-1q0-2.91,0-5.82a1,1,0,0,1,1.07-1Z"/><path class="cls-1" d="M48.4,27.43q0,1.44,0,2.88a1,1,0,0,1-1,1.09q-2.93,0-5.86,0a1,1,0,0,1-1-1.09q0-2.93,0-5.86a.91.91,0,0,1,1-1h5.91a.91.91,0,0,1,1,1Q48.4,25.94,48.4,27.43Z"/></g></g></svg>