<?xml version="1.0" encoding="utf-8"?>
<!-- Generator: Adobe Illustrator 17.0.0, SVG Export Plug-In . SVG Version: 6.00 Build 0)  -->
<!DOCTYPE svg PUBLIC "-//W3C//DTD SVG 1.1//EN" "http://www.w3.org/Graphics/SVG/1.1/DTD/svg11.dtd">
<svg version="1.1" id="Camada_1" xmlns="http://www.w3.org/2000/svg" xmlns:xlink="http://www.w3.org/1999/xlink" x="0px" y="0px"
	 width="54.071px" height="62.159px" viewBox="0 0 54.071 62.159" enable-background="new 0 0 54.071 62.159" xml:space="preserve">
<g>
	<rect x="0.75" y="0.75" fill="none" stroke="#5D70A3" stroke-width="1.5" stroke-miterlimit="10" width="52.571" height="60.659"/>
	
		<rect x="28.536" y="7.163" fill="none" stroke="#5D70A3" stroke-width="1.5" stroke-miterlimit="10" width="21.25" height="13.167"/>
	
		<rect x="28.536" y="24.496" fill="none" stroke="#5D70A3" stroke-width="1.5" stroke-miterlimit="10" width="21.25" height="13.167"/>
	
		<rect x="28.536" y="41.83" fill="none" stroke="#5D70A3" stroke-width="1.5" stroke-miterlimit="10" width="21.25" height="13.167"/>
	
		<rect x="4.648" y="7.163" fill="none" stroke="#5D70A3" stroke-width="1.5" stroke-miterlimit="10" width="21.25" height="13.167"/>
	
		<rect x="4.648" y="24.496" fill="none" stroke="#5D70A3" stroke-width="1.5" stroke-miterlimit="10" width="21.25" height="13.167"/>
	
		<rect x="4.648" y="41.83" fill="none" stroke="#5D70A3" stroke-width="1.5" stroke-miterlimit="10" width="21.25" height="13.167"/>
	<g>
		<g>
			<path fill="#5D70A3" d="M38.37,13.589l-1.735-2.663h1.356l1.17,1.937l1.178-1.937h1.348l-1.655,2.671l1.816,2.97H40.5
				l-1.34-2.187l-1.332,2.187h-1.356L38.37,13.589z"/>
		</g>
	</g>
	<g>
		<g>
			<path fill="#5D70A3" d="M13.495,30.922l-1.735-2.663h1.356l1.17,1.937l1.178-1.937h1.348l-1.655,2.671l1.816,2.97h-1.348
				l-1.34-2.187L12.954,33.9h-1.356L13.495,30.922z"/>
		</g>
	</g>
</g>
</svg>
