<svg xmlns="http://www.w3.org/2000/svg" viewBox="0 0 46.84 49.02"><defs><style>.cls-1{fill:none;stroke:#3ab186;stroke-miterlimit:10;stroke-width:1.5px;}.cls-2{fill:#3ab186;}</style></defs><title>Asset 12</title><g id="Layer_2" data-name="Layer 2"><g id="Camada_1" data-name="Camada 1"><path class="cls-1" d="M36.85,13.2V.75H.75V48.27H25.52L36.85,37v-7M26.13,44.84m8.69-9.2H25.11a1,1,0,0,0-1,1v9.6"/><line class="cls-1" x1="8.02" y1="9.64" x2="29.36" y2="9.64"/><line class="cls-1" x1="8.02" y1="18.25" x2="29.36" y2="18.25"/><line class="cls-1" x1="8.02" y1="26.84" x2="29.36" y2="26.84"/><path class="cls-2" d="M8.18,35.94a22.52,22.52,0,0,0,3.26-3.67l-2-.53-.14,3a1.06,1.06,0,0,0,1.58.91c.66-.4,1.28-.82,1.91-1.26l-1.54-.63a3.83,3.83,0,0,0,3,2.9,2.35,2.35,0,0,0,1.56-.27c1.07-.59.92-.77,2.29-.54s1.89-1.8.56-2a6.49,6.49,0,0,0-2.37-.35c-1.12.24-2.46,2-3-.28a1.06,1.06,0,0,0-1.54-.63c-.63.44-1.25.86-1.91,1.26l1.58.91.14-3c.05-1.13-1.4-1.31-2-.53a20.08,20.08,0,0,1-2.93,3.25c-1,.91.48,2.39,1.48,1.48Z"/><circle class="cls-2" cx="9.91" cy="39.92" r="2.48"/><polygon class="cls-1" points="45.65 16.38 39.67 11.47 39.67 13.2 33.68 13.2 33.68 19.56 39.67 19.56 39.67 21.29 45.65 16.38"/><polygon class="cls-1" points="33.68 27.48 39.66 22.58 39.66 24.31 45.65 24.31 45.65 30.66 39.66 30.66 39.66 32.39 33.68 27.48"/></g></g></svg>