<?xml version="1.0" encoding="utf-8"?>
<!-- Generator: Adobe Illustrator 17.0.0, SVG Export Plug-In . SVG Version: 6.00 Build 0)  -->
<!DOCTYPE svg PUBLIC "-//W3C//DTD SVG 1.1//EN" "http://www.w3.org/Graphics/SVG/1.1/DTD/svg11.dtd">
<svg version="1.1" id="Camada_1" xmlns="http://www.w3.org/2000/svg" xmlns:xlink="http://www.w3.org/1999/xlink" x="0px" y="0px"
	 width="50.226px" height="65.805px" viewBox="0 0 50.226 65.805" enable-background="new 0 0 50.226 65.805" xml:space="preserve">
<g>
	<g>
		<path fill="none" stroke="#FFFFFF" stroke-miterlimit="10" d="M0.5,0.5v64.805h33.778l15.448-15.302V0.5H0.5z M35.111,60.623
			 M46.961,48.073H33.723c-0.833,0-1.375,0.688-1.375,1.375v13.094"/>
		<line fill="none" stroke="#FFFFFF" stroke-miterlimit="10" x1="10.419" y1="12.628" x2="39.515" y2="12.628"/>
		<line fill="none" stroke="#FFFFFF" stroke-miterlimit="10" x1="10.419" y1="24.359" x2="39.515" y2="24.359"/>
		<line fill="none" stroke="#FFFFFF" stroke-miterlimit="10" x1="10.419" y1="36.077" x2="39.515" y2="36.077"/>
	</g>
	<g>
		<g>
			<path fill="#FFFFFF" d="M9.934,47.795c1.622-1.46,3.027-3.042,4.297-4.813c-0.28-0.076-0.559-0.151-0.839-0.227
				c-0.064,1.355-0.129,2.709-0.193,4.064c-0.016,0.342,0.394,0.559,0.677,0.389c1.186-0.716,1.777-1.869,2.532-0.519
				c0.362,0.648,1.366,1.459,2.121,1.636c0.504,0.119,1.274,0.375,1.778,0.082c0.774-0.45,0.608-0.306,1.19-0.975
				c0.68-0.783,2.191-0.179,3.005-0.042c0.568,0.095,0.811-0.772,0.239-0.868c-0.706-0.119-1.971-0.731-2.708-0.472
				c-2.025,0.712-4.535,2.135-5.35-1.067c-0.067-0.265-0.423-0.437-0.661-0.269c-0.852,0.603-1.706,1.176-2.6,1.716
				c0.226,0.13,0.451,0.259,0.677,0.389c0.064-1.355,0.129-2.709,0.193-4.064c0.023-0.485-0.598-0.563-0.839-0.227
				c-1.235,1.722-2.585,3.217-4.156,4.631C8.865,47.548,9.504,48.182,9.934,47.795L9.934,47.795z"/>
		</g>
	</g>
	<circle fill="#FFFFFF" cx="12.994" cy="53.918" r="3.378"/>
</g>
</svg>
