<?xml version="1.0" encoding="utf-8"?>
<!-- Generator: Adobe Illustrator 21.0.0, SVG Export Plug-In . SVG Version: 6.00 Build 0)  -->
<svg version="1.1" id="Camada_1" xmlns="http://www.w3.org/2000/svg" xmlns:xlink="http://www.w3.org/1999/xlink" x="0px" y="0px"
	 viewBox="0 0 40.4 61" style="enable-background:new 0 0 40.4 61;" xml:space="preserve">
<style type="text/css">
	.st0{fill:none;stroke:#3AB186;stroke-width:1.5;stroke-miterlimit:10;}
	.st1{fill:#3AB186;}
	.st2{font-family:'Roboto-Bold';}
	.st3{font-size:11.2857px;}
</style>
<g>
	<path class="st0" d="M14.7,0.8c-0.3,0-0.6,0.1-0.9,0.3L1.2,12c-0.5,0.5-0.6,1.3-0.1,1.8l14.7,16.9l0.7,0.9l0.8,0.9
		c-0.6,0.1-1.2,0.1-1.9,0.3c-2.3,0.4-3.8,1.2-4.1,2.1c-0.1,0.3-0.2,1.3,0.5,5.1c0.4,2.3,1.1,5.3,2,8.9c1.2,4.9,2.6,9.6,3.1,11.3h9.9
		l0.9-16.1c0,0-1.2-11.2-1.3-12.5c-0.1-0.7-0.2-1.3-0.2-2l-0.1-1v-0.1c0-0.2,0-0.4-0.1-0.6c-0.3-0.9-1.1-1.6-2.1-1.6
		c-1.2,0-2.2,1-2.2,2.2v1.3c0,3.9,0,7.9,0,11.8c0,0.3-0.2,0.6-0.4,0.8c-0.2,0.1-0.3,0.2-0.5,0.2c-0.1,0-0.2,0-0.4-0.1
		c-0.2-0.1-1.8-0.8-2.2-2.2c-0.1-0.6-0.2-1.4,0.6-2.4c0,0,0,0,0,0l1-1.1l0-3.6L19,32.4l-0.8-0.9l-0.8-0.9L2.2,13L14.6,2.2l1.8,2
		l1.4-0.5l-2.2-2.6C15.4,0.9,15,0.8,14.7,0.8L14.7,0.8z M14.7,0.8"/>
	<path class="st0" d="M28.3,33.3l0.5,5.2h0c0.8,0,1.5-0.3,2-0.9c0.4-0.5,0.7-1.2,0.7-1.9c0-1.5-1.4-2.5-2.7-2.5H28.3z M28.3,33.3"/>
	<path class="st0" d="M39.6,27.3L31.4,1.5c-0.1-0.3-0.3-0.4-0.6-0.4c-0.1,0-0.1,0-0.2,0L18.9,4.9l-0.7,0.2l-0.7,0.2l-2.7,0.9
		c-0.3,0.1-0.5,0.4-0.4,0.8L20,24.8l0.4,1.3c0.1-0.1,0.2-0.2,0.3-0.3c0.5-0.5,1.1-0.9,1.8-1.2c0.4-0.1,0.9-0.2,1.3-0.2
		c1.1,0,2,0.4,2.7,1c0.4,0.4,0.7,0.8,0.9,1.3c0.1,0.2,0.2,0.5,0.2,0.7c0.1,0.3,0.1,0.5,0.1,0.8c0,0.1,0,0.2,0,0.3l0.3,3.1l0.6-0.2
		l0.9-0.3l9.6-3.1C39.6,28,39.7,27.6,39.6,27.3L39.6,27.3z M39.6,27.3"/>
	<text transform="matrix(0.9519 -0.3063 0.3063 0.9519 25.5588 20.5929)" class="st1 st2 st3">$</text>
</g>
</svg>
