<?xml version="1.0" encoding="utf-8"?>
<!-- Generator: Adobe Illustrator 16.0.2, SVG Export Plug-In . SVG Version: 6.00 Build 0)  -->
<!DOCTYPE svg PUBLIC "-//W3C//DTD SVG 1.1//EN" "http://www.w3.org/Graphics/SVG/1.1/DTD/svg11.dtd">
<svg version="1.1" id="Camada_1" xmlns="http://www.w3.org/2000/svg" xmlns:xlink="http://www.w3.org/1999/xlink" x="0px" y="0px"
	 width="612.279px" height="218.412px" viewBox="0 286.793 612.279 218.412" enable-background="new 0 286.793 612.279 218.412"
	 xml:space="preserve">
<g>
	<g>
		<g>
			<g>
				<g>
					<path id="SVGID_1_" fill="#FFFFFF" d="M197.347,384.081l-5.82,5.544h-28.549c-21.619,3.049-32.706,14.413-33.815,33.813v25.5
						l-26.607,25.223v-56.266c1.107-19.401,12.194-30.767,33.537-33.538L197.347,384.081z"/>
				</g>
			</g>
			<g>
				<g>
					<path id="SVGID_3_" fill="#FFFFFF" d="M197.071,376.875l-24.669-23.562h-29.38c-21.343-3.049-32.707-14.136-33.538-33.537
						v-26.332l-7.207-6.651v55.988c1.107,19.402,12.195,30.768,33.538,33.538L197.071,376.875z"/>
				</g>
			</g>
			<g>
				<g>
					<path id="SVGID_2_" fill="#FFFFFF" d="M0,407.918l5.821-5.543H34.37c21.342-3.049,32.706-14.137,33.538-33.538v-25.5
						l26.608-25.224v55.988c-1.108,19.402-12.195,30.768-33.538,33.538"/>
				</g>
			</g>
			<g>
				<g>
					<path id="SVGID_7_" fill="#FFFFFF" d="M0.554,415.125l24.668,23.56h29.381c21.343,3.049,32.706,14.413,33.538,33.813v26.056
						l6.93,6.651v-55.988c-1.109-19.402-12.196-30.766-33.538-33.538L0.554,415.125z"/>
				</g>
			</g>
		</g>
		<g>
			<path fill="#FFFFFF" d="M269.135,374.657v80.656h-21.896v-80.656h-30.767v-17.463h83.43v17.463H269.135L269.135,374.657z"/>
			<path fill="#FFFFFF" d="M356.723,455.315l-10.256-27.994c-3.326-9.424-5.543-12.473-16.354-12.473h-8.038v40.467h-21.342v-97.842
				h40.19c16.63,0,33.261,6.375,33.261,26.055c0,13.581-9.979,21.619-22.729,23.838c8.869,1.662,12.474,6.375,15.521,14.411
				l12.75,33.538H356.723z M332.609,371.886h-10.533v28.271h9.979c9.979,0,20.511-3.049,20.511-14.689
				C352.288,374.103,343.141,371.886,332.609,371.886z"/>
			<path fill="#FFFFFF" d="M404.12,372.44v26.888h39.358v14.967H404.12v41.299H382.5v-98.119h62.643v14.967L404.12,372.44
				L404.12,372.44z"/>
			<path fill="#FFFFFF" d="M474.522,456.978c-8.593,0-18.294-1.108-26.609-3.88l0.832-15.245c6.931,2.771,13.858,3.881,21.344,3.881
				c11.362,0,24.112-4.712,24.112-17.739c0-12.749-11.918-17.185-23.281-17.185c-6.375,0-13.027,1.108-20.788,3.326l1.107-52.94
				h59.87v14.413h-41.021l-0.832,24.669c3.604-1.108,7.207-1.387,11.087-1.387c18.294,0,35.479,7.484,35.479,28.826
				C516.098,446.723,494.757,456.978,474.522,456.978z"/>
		</g>
	</g>
	<path id="lock-2_7_" fill="#FFFFFF" d="M604.795,403.206v-9.979c0-8.038-6.652-14.688-14.69-14.688s-14.69,6.65-14.69,14.688v9.979
		h-7.482v34.368h44.348v-34.368H604.795z M580.125,393.228c0-5.543,4.437-9.978,9.979-9.978c5.544,0,9.979,4.435,9.979,9.978v9.979
		h-19.681v-9.979H580.125z M607.011,432.864h-34.37v-24.668h34.37V432.864z"/>
</g>
</svg>
