<?xml version="1.0" encoding="utf-8"?>
<!-- Generator: Adobe Illustrator 18.0.0, SVG Export Plug-In . SVG Version: 6.00 Build 0)  -->
<!DOCTYPE svg PUBLIC "-//W3C//DTD SVG 1.1//EN" "http://www.w3.org/Graphics/SVG/1.1/DTD/svg11.dtd">
<svg version="1.1" id="Camada_1" xmlns="http://www.w3.org/2000/svg" xmlns:xlink="http://www.w3.org/1999/xlink" x="0px" y="0px"
	 viewBox="0 0 34.3 26.2" enable-background="new 0 0 34.3 26.2" xml:space="preserve">
<path id="twitter-1_6_" fill="none" stroke="#FFFFFF" stroke-miterlimit="10" d="M32.9,3.6c-1.1,0.5-2.4,0.8-3.6,1
	c1.3-0.8,2.3-2,2.8-3.5c-1.2,0.7-2.6,1.3-4,1.5c-1.2-1.2-2.8-2-4.6-2c-4.1,0-7.1,3.8-6.2,7.8C12,8.1,7.4,5.6,4.2,1.8
	c-1.7,2.8-0.9,6.6,2,8.4c-1,0-2-0.3-2.9-0.8c-0.1,2.9,2,5.7,5.1,6.3C7.5,16,6.5,16,5.5,15.8c0.8,2.5,3.1,4.3,5.9,4.4
	c-2.7,2.1-6,3-9.4,2.6c2.8,1.8,6.1,2.8,9.7,2.8c11.7,0,18.4-9.9,18-18.8C31,6,32,4.9,32.9,3.6z"/>
</svg>
