<?xml version="1.0" encoding="utf-8"?>
<!-- Generator: Adobe Illustrator 17.0.0, SVG Export Plug-In . SVG Version: 6.00 Build 0)  -->
<!DOCTYPE svg PUBLIC "-//W3C//DTD SVG 1.1//EN" "http://www.w3.org/Graphics/SVG/1.1/DTD/svg11.dtd">
<svg version="1.1" id="Camada_1" xmlns="http://www.w3.org/2000/svg" xmlns:xlink="http://www.w3.org/1999/xlink" x="0px" y="0px"
	 width="18.727px" height="18.727px" viewBox="0 0 18.727 18.727" enable-background="new 0 0 18.727 18.727" xml:space="preserve">
<polygon id="icone_aumentar_letra_3_" fill="#5877B1" points="5.838,9.962 7.994,9.962 6.898,6.876 "/>
<path id="icone_aumentar_letra_2_" fill="#5877B1" d="M9.364,0C4.192,0,0,4.192,0,9.364c0,5.171,4.192,9.364,9.364,9.364
	s9.364-4.192,9.364-9.364C18.727,4.192,14.535,0,9.364,0z M9.29,13.609l-0.839-2.364H5.397l-0.815,2.364H3.091l3.032-8.492h1.552
	l3.144,8.492H9.29z M15.636,9.134h-2.41v2.434h-1.295V9.134H9.508V7.851h2.423V5.416h1.295v2.434h2.41V9.134z"/>
</svg>
