<svg xmlns="http://www.w3.org/2000/svg" viewBox="0 0 59.31 50.31"><defs><style>.cls-1{fill:none;stroke:#fff;stroke-linecap:round;stroke-linejoin:round;}</style></defs><title>Ativo 15</title><g id="Camada_2" data-name="Camada 2"><g id="Layer_1" data-name="Layer 1"><path class="cls-1" d="M26.08.5l0,0L9.82,16.76H1.47a1,1,0,0,0-1,1v7.78a1,1,0,0,0,1,1H3.56L7.32,49a1,1,0,0,0,1,.81H51A1,1,0,0,0,52,49l3.75-22.51h2.09a1,1,0,0,0,1-1V17.73a1,1,0,0,0-1-1H49.5L33.26.52m-30,26H56.88M3.23,16.82H56.88"/><path class="cls-1" d="M27.71,45.92H31.6a.94.94,0,0,0,1-.9V30.63a.94.94,0,0,0-1-.9H27.71a.94.94,0,0,0-1,.9V45A.94.94,0,0,0,27.71,45.92Z"/><path class="cls-1" d="M18,45.92h3.89a.94.94,0,0,0,1-.9V30.63a.94.94,0,0,0-1-.9H18a.94.94,0,0,0-1,.9V45A.94.94,0,0,0,18,45.92Z"/><path class="cls-1" d="M37.43,45.92h3.89a.94.94,0,0,0,1-.9V30.63a.94.94,0,0,0-1-.9H37.43a.94.94,0,0,0-1,.9V45A.94.94,0,0,0,37.43,45.92Z"/></g></g></svg>