<?xml version="1.0" encoding="utf-8"?>
<!-- Generator: Adobe Illustrator 21.0.0, SVG Export Plug-In . SVG Version: 6.00 Build 0)  -->
<svg version="1.1" id="Camada_1" xmlns="http://www.w3.org/2000/svg" xmlns:xlink="http://www.w3.org/1999/xlink" x="0px" y="0px"
	 viewBox="0 0 53 61.6" style="enable-background:new 0 0 53 61.6;" xml:space="preserve">
<style type="text/css">
	.st0{fill:none;stroke:#fff;stroke-miterlimit:10;}
</style>
<g>
	<g>
		<path class="st0" d="M41.5,13.1c3.5,0,6.3-2.8,6.3-6.3c0-3.5-2.8-6.3-6.3-6.3c-3.5,0-6.3,2.8-6.3,6.3C35.2,10.3,38,13.1,41.5,13.1
			L41.5,13.1z M41.5,4.3"/>
		<path class="st0" d="M29.9,36.7v3.8h3v20.7h17.3V40.5h2.3V15.6h-22v11.1h-8V15.6h-22v24.8h2.3v20.7h17.3V40.5h3v-3.8 M16.4,57.4
			 M30.5,15.6"/>
		<path class="st0" d="M11.5,13.1c3.5,0,6.3-2.8,6.3-6.3c0-3.5-2.8-6.3-6.3-6.3C8,0.5,5.2,3.3,5.2,6.8C5.2,10.3,8,13.1,11.5,13.1
			L11.5,13.1z M11.5,4.3"/>
	</g>
	<line class="st0" x1="11.5" y1="16" x2="11.5" y2="24.1"/>
	<line class="st0" x1="41.5" y1="16" x2="41.5" y2="24.1"/>
</g>
</svg>

