<?xml version="1.0" encoding="utf-8"?>
<!-- Generator: Adobe Illustrator 21.0.0, SVG Export Plug-In . SVG Version: 6.00 Build 0)  -->
<svg version="1.1" id="Camada_1" xmlns="http://www.w3.org/2000/svg" xmlns:xlink="http://www.w3.org/1999/xlink" x="0px" y="0px"
	 viewBox="0 0 72.3 73.8" style="enable-background:new 0 0 72.3 73.8;" xml:space="preserve">
<style type="text/css">
	.st0{fill:none;stroke:#fff;stroke-miterlimit:10;}
</style>
<title>Ativo 3</title>
<g id="Camada_2">
	<g id="Camada_1-2">
		<path class="st0" d="M21.5,33.5v-33h-21v46h15.3 M7.4,30c-0.2,0.7-0.8,1.1-1.5,1.1c-0.9,0-1.6-0.7-1.6-1.6c0-0.9,0.7-1.6,1.6-1.6
			c0,0,0,0,0,0c0.7,0,1.4,0.5,1.5,1.2c0.1,0.1,0.1,0.3,0.1,0.4C7.5,29.7,7.5,29.9,7.4,30z M11,39.7c-1.7,0-3-1.3-3-3s1.3-3,3-3
			s3,1.3,3,3S12.7,39.7,11,39.7z M9.4,29.3c0-0.9,0.7-1.6,1.6-1.6c0.7,0,1.4,0.5,1.5,1.2c0.1,0.3,0.1,0.6,0,0.9
			c-0.2,0.7-0.8,1.1-1.5,1.1C10.1,30.9,9.4,30.2,9.4,29.3L9.4,29.3z M17.8,29.8c-0.2,0.7-0.8,1.1-1.5,1.1c-0.9,0-1.6-0.7-1.6-1.6
			c0-0.9,0.7-1.6,1.6-1.6c0,0,0,0,0,0c0.7,0,1.4,0.5,1.5,1.2C18,29.2,18,29.5,17.8,29.8L17.8,29.8z M16.9,22.1H5.3
			c-0.7,0-1.3-0.6-1.3-1.3s0.6-1.3,1.3-1.3h11.6c0.7,0,1.3,0.6,1.3,1.3S17.6,22.1,16.9,22.1z M17,17.6H5.4c-0.7,0-1.2-0.6-1.2-1.2
			c0-0.7,0.6-1.2,1.2-1.2H17c0.7,0,1.2,0.6,1.2,1.2C18.2,17,17.7,17.6,17,17.6z M17,12.8H5.4c-0.7,0-1.2-0.6-1.2-1.2
			s0.6-1.2,1.2-1.2H17c0.7,0,1.2,0.6,1.2,1.2S17.7,12.8,17,12.8z M17,8.2H5.4c-0.7,0-1.3-0.6-1.3-1.3s0.6-1.3,1.3-1.3H17
			c0.7,0,1.3,0.6,1.3,1.3S17.7,8.2,17,8.2z"/>
		<path class="st0" d="M71.8,69.1V33.5H16.3v35.6H39v2.3H27.1v1.9h33.2v-1.9H48.7v-2.3H71.8z M20.4,63.8V37.6h47.4v26.3H20.4z"/>
	</g>
</g>
</svg>
