<svg xmlns="http://www.w3.org/2000/svg" viewBox="0 0 50.72 57.19"><defs><style>.cls-1{fill:none;stroke-linecap:round;stroke-linejoin:round;}.cls-1,.cls-2{stroke:#fff;}.cls-2{fill:#fff;stroke-miterlimit:10;}</style></defs><title>Asset 6</title><g id="Layer_2" data-name="Layer 2"><g id="Camada_1" data-name="Camada 1"><polygon class="cls-1" points="36.89 6.97 36.89 0.5 32.59 0.5 32.59 6.97 18.14 6.97 18.14 0.5 13.84 0.5 13.84 6.97 0.5 6.97 0.5 56.69 50.22 56.69 50.22 6.97 36.89 6.97"/><line class="cls-1" x1="0.5" y1="16.07" x2="50.22" y2="16.07"/><rect class="cls-2" x="19.9" y="23.16" width="3.72" height="3.72"/><rect class="cls-2" x="27.1" y="23.16" width="3.72" height="3.72"/><rect class="cls-2" x="34.31" y="23.16" width="3.72" height="3.72"/><rect class="cls-2" x="41.51" y="23.16" width="3.72" height="3.72"/><rect class="cls-2" x="5.49" y="30.37" width="3.72" height="3.72"/><rect class="cls-2" x="12.7" y="30.37" width="3.72" height="3.72"/><rect class="cls-2" x="19.9" y="30.37" width="3.72" height="3.72"/><rect class="cls-2" x="27.1" y="30.37" width="3.72" height="3.72"/><rect class="cls-2" x="34.31" y="30.37" width="3.72" height="3.72"/><rect class="cls-2" x="41.51" y="30.37" width="3.72" height="3.72"/><rect class="cls-2" x="5.49" y="37.58" width="3.72" height="3.72"/><rect class="cls-2" x="12.7" y="37.58" width="3.72" height="3.72"/><rect class="cls-2" x="19.9" y="37.58" width="3.72" height="3.72"/><rect class="cls-2" x="27.1" y="37.58" width="3.72" height="3.72"/><rect class="cls-2" x="34.31" y="37.58" width="3.72" height="3.72"/><rect class="cls-2" x="41.51" y="37.58" width="3.72" height="3.72"/><rect class="cls-2" x="5.49" y="44.78" width="3.72" height="3.72"/><rect class="cls-2" x="12.7" y="44.78" width="3.72" height="3.72"/><rect class="cls-2" x="19.9" y="44.78" width="3.72" height="3.72"/><rect class="cls-2" x="27.1" y="44.78" width="3.72" height="3.72"/><rect class="cls-2" x="34.31" y="44.78" width="3.72" height="3.72"/></g></g></svg>