<svg xmlns="http://www.w3.org/2000/svg" viewBox="0 0 54.7 48.41"><defs><style>.cls-1{fill:none;stroke:#fff;stroke-linecap:round;stroke-linejoin:round;}</style></defs><title>Ativo 4</title><g id="Camada_2" data-name="Camada 2"><g id="Layer_1" data-name="Layer 1"><path class="cls-1" d="M30.44,13.47l-3-2.28a.86.86,0,0,0-1,0l-2.48,1.89-2.48-1.89a.86.86,0,0,0-1,0l-3,2.28"/><path class="cls-1" d="M47.34,42.77V11s0-.06,0-.09v-.08l0-.07h0l0-.07h0l0-.07h0l0-.06v0l0,0v0l0,0h0L37.49.75h0l0,0h0l0,0h0l-.06,0h0l-.07,0h0l-.07,0h0l-.07,0H1.36a.86.86,0,0,0-.86.86V43.63a4.29,4.29,0,0,0,4.28,4.28H49.91a4.29,4.29,0,0,0,4.28-4.28V5.93a.86.86,0,0,0-.86-.86h-7M38.93,2.25,45.6,8.92H38.93ZM37.74,3.43"/><path class="cls-1" d="M20.49,39H8.21m12.28,0"/><path class="cls-1" d="M39.63,39H27.35m12.28,0"/><path class="cls-1" d="M39.63,33.86H27.35m12.28,0"/><path class="cls-1" d="M39.63,28.72H27.35m12.28,0"/><path class="cls-1" d="M21.35,26.72V24.43a.86.86,0,0,0-.86-.86H8.21a.86.86,0,0,0-.86.86V34.72a.86.86,0,0,0,.86.86H20.49a.86.86,0,0,0,.86-.86V30.15"/><path class="cls-1" d="M39.63,23.58H27.35m12.28,0"/><path class="cls-1" d="M39.63,18.44H8.21m31.42,0"/></g></g></svg>