<svg xmlns="http://www.w3.org/2000/svg" viewBox="0 0 70.69 58.79"><defs><style>.cls-1{fill:none;stroke:#fff;stroke-linecap:round;stroke-linejoin:round;}</style></defs><title>Ativo 2</title><g id="Camada_2" data-name="Camada 2"><g id="Layer_1" data-name="Layer 1"><path class="cls-1" d="M47.56,9.83A1.55,1.55,0,0,0,47,9.47L33.66,5.29a9.46,9.46,0,0,0-9.72,2.18,5.46,5.46,0,0,0-1.17,1.62L16.84,23a3.56,3.56,0,0,0,.3,2.92,5.74,5.74,0,0,0,3.78,3,5.93,5.93,0,0,0,6.15-2.83l2-3.7a7.85,7.85,0,0,1,1.3-1.75c1.72-1.71,2.53-.93,2.87-.59,3,2.87,18.61,18.58,18.61,18.58a1.85,1.85,0,0,1-2.56,2.55L44.9,36.83a1.44,1.44,0,0,0-2,2l4.39,4.39a1.85,1.85,0,0,1-2.56,2.56L40.3,41.44a1.45,1.45,0,0,0-2,2l4.39,4.39a1.85,1.85,0,0,1-2.56,2.56L35.69,46a1.44,1.44,0,0,0-2,2L38,52.48A1.85,1.85,0,0,1,35.48,55l-5.35-5.35a3.17,3.17,0,0,0-.58-4,3.09,3.09,0,0,0-4.34-.25A3.1,3.1,0,0,0,25,41.13a3.1,3.1,0,0,0-4.35-.25,3.09,3.09,0,0,0-.26-4.35A3.1,3.1,0,0,0,16,36.27a3.08,3.08,0,0,0-.25-4.35,3.13,3.13,0,0,0-4.11-.45L3,22.81a1.45,1.45,0,0,0-2,0,1.46,1.46,0,0,0,0,2L9.56,33.5,7,36.06a3.08,3.08,0,0,0,.25,4.34,3.09,3.09,0,0,0,4.35.25A3.08,3.08,0,0,0,11.86,45a3.09,3.09,0,0,0,4.35.26,3.09,3.09,0,0,0,.25,4.34,3.09,3.09,0,0,0,4.35.26,3.28,3.28,0,0,0,4.6,4.61l2.71-2.71,5.31,5.31a4.54,4.54,0,0,0,6.4-.26,4.88,4.88,0,0,0,1.43-3.16,5,5,0,0,0,4.61-4.6,5,5,0,0,0,4.61-4.6A4.87,4.87,0,0,0,53.65,43a4.54,4.54,0,0,0,.25-6.4l-2.24-2.24,9.2-9.2a1.44,1.44,0,0,0,0-2Zm0,0"/><path class="cls-1" d="M69.34,13.06,57.63,1.35a2.9,2.9,0,0,0-4.1,0l-4.1,4.09a2.9,2.9,0,0,0,0,4.1L61.16,21.25a2.89,2.89,0,0,0,4.09,0l4.1-4.09a2.9,2.9,0,0,0,0-4.1ZM63.2,19a2.38,2.38,0,1,1,2.37-2.37A2.38,2.38,0,0,1,63.2,19Zm0,0"/></g></g></svg>