<svg xmlns="http://www.w3.org/2000/svg" viewBox="0 0 98.4 76.35"><defs><style>.cls-1{fill:none;stroke:#fff;stroke-miterlimit:10;}</style></defs><title>Asset 6</title><g id="Layer_2" data-name="Layer 2"><g id="Camada_1" data-name="Camada 1"><rect class="cls-1" x="0.5" y="26.18" width="36.71" height="21.22"/><line class="cls-1" x1="18.86" y1="47.39" x2="18.86" y2="65.74"/><polyline class="cls-1" points="37.21 36.78 63.38 36.78 63.38 58 26.67 58 26.67 47.39"/><line class="cls-1" x1="45.03" y1="58" x2="45.03" y2="76.35"/><path class="cls-1" d="M96.83,46.69h0l-25.5-25.5,3.79-3.79a3.13,3.13,0,0,0,3.47-5.08L67.68,1.42A3.13,3.13,0,0,0,62.6,4.89L49.86,17.63a3.13,3.13,0,0,0-3.47,5.08L57.3,33.62a3.13,3.13,0,0,0,5.08-3.47l3.79-3.79,25.5,25.5a3.65,3.65,0,0,0,5.16-5.16Z"/></g></g></svg>