<?xml version="1.0" encoding="utf-8"?>
<!-- Generator: Adobe Illustrator 18.0.0, SVG Export Plug-In . SVG Version: 6.00 Build 0)  -->
<!DOCTYPE svg PUBLIC "-//W3C//DTD SVG 1.1//EN" "http://www.w3.org/Graphics/SVG/1.1/DTD/svg11.dtd">
<svg version="1.1" id="Camada_1" xmlns="http://www.w3.org/2000/svg" xmlns:xlink="http://www.w3.org/1999/xlink" x="0px" y="0px"
	 viewBox="0 0 55.2 55.2" enable-background="new 0 0 55.2 55.2" xml:space="preserve">
<g>
	<path fill="none" stroke="#fff" stroke-width="1.5" stroke-miterlimit="10" d="M0.7,54.4h26.8V0.8H0.7V54.4z M17.5,7.5h6.7v6.7
		h-6.7V7.5z M17.5,20.9h6.7v6.7h-6.7V20.9z M17.5,34.3h6.7V41h-6.7V34.3z M4.1,7.5h6.7v6.7H4.1V7.5z M4.1,20.9h6.7v6.7H4.1V20.9z
		 M4.1,34.3h6.7V41H4.1V34.3z M30.9,17.5h23.5v3.4H30.9V17.5z M30.9,54.4h6.7V41h10.1v13.4h6.7V24.2H30.9V54.4z M30.9,54.4"/>
</g>
</svg>
