<svg xmlns="http://www.w3.org/2000/svg" viewBox="0 0 19.99 26"><defs><style>.cls-1,.cls-2,.cls-3{fill:none;stroke:#5776b0;stroke-miterlimit:10;}.cls-2{stroke-width:0.3px;}.cls-2,.cls-3{fill-rule:evenodd;}</style></defs><title>p-folhas-texto-icon-2</title><g id="Camada_2" data-name="Camada 2"><g id="Camada_1-2" data-name="Camada 1"><path class="cls-1" d="M19.49,15.72V.5H.5v25h13l6-5.9V11.75m-5.64,12,4.57-4.84H13.32a.53.53,0,0,0-.53.53v5.05"/><path class="cls-2" d="M9.89,9.08s.05,0,.05,0,0,0-.05,0-.05,0-.05,0,0,0,.05,0Z"/><path class="cls-2" d="M9.84,9h.1a0,0,0,1,1,0,.06h-.1a0,0,0,0,1,0-.06Z"/><path class="cls-2" d="M10,8.37v0a0,0,0,0,0,0,0h0V7.88l-.08,0-.08,0v.45h0a0,0,0,0,0,0,0v0a1.33,1.33,0,0,1-.28-.06v.27a1.32,1.32,0,0,1,.28-.06v0a0,0,0,0,0,0,0h0a.7.7,0,0,0,0,.39h.1a.76.76,0,0,0,0-.39h0a0,0,0,0,0,0,0v0a1.32,1.32,0,0,1,.28.06V8.31A1.32,1.32,0,0,1,10,8.37Z"/><polygon class="cls-2" points="9.89 5.54 9.43 6.41 8.46 6.58 9.14 7.29 9.01 8.27 9.89 7.84 10.78 8.27 10.65 7.29 11.33 6.58 10.36 6.41 9.89 5.54 9.89 5.54"/><polyline class="cls-3" points="2.77 22.09 2.77 3.34 16.77 3.22 16.77 15.72"/><line class="cls-1" x1="5.13" y1="10.38" x2="14.41" y2="10.38"/><line class="cls-1" x1="5.13" y1="13.44" x2="14.41" y2="13.44"/></g></g></svg>