<svg xmlns="http://www.w3.org/2000/svg" viewBox="0 0 32.87 29.39"><defs><style>.cls-1,.cls-2{fill:none;stroke:#5776b0;stroke-miterlimit:10;}.cls-2{stroke-width:0.8px;}</style></defs><title>p-martelo-tela</title><g id="Camada_2" data-name="Camada 2"><g id="Camada_1-2" data-name="Camada 1"><path class="cls-1" d="M30.45.5h-28A1.93,1.93,0,0,0,.5,2.42V21.77A1.93,1.93,0,0,0,2.42,23.7H12v1.4A2.33,2.33,0,0,1,9.7,27.42H7.58a.73.73,0,0,0,0,1.47h17.7a.73.73,0,0,0,0-1.47H23.17a2.33,2.33,0,0,1-2.33-2.33V23.7h9.6a1.93,1.93,0,0,0,1.92-1.92V2.42A1.93,1.93,0,0,0,30.45.5Z"/><circle class="cls-1" cx="16.44" cy="20.07" r="0.79"/><path class="cls-2" d="M22.25,15.06h0L16.3,9.12l.88-.88A.73.73,0,0,0,18,7.05L15.45,4.51a.73.73,0,0,0-1.18.81l-3,3a.73.73,0,0,0-.81,1.18L13,12a.73.73,0,0,0,1.18-.81l.88-.88L21,16.27a.85.85,0,0,0,1.2-1.2Z"/></g></g></svg>