<?xml version="1.0" encoding="utf-8"?>
<!-- Generator: Adobe Illustrator 17.0.0, SVG Export Plug-In . SVG Version: 6.00 Build 0)  -->
<!DOCTYPE svg PUBLIC "-//W3C//DTD SVG 1.1//EN" "http://www.w3.org/Graphics/SVG/1.1/DTD/svg11.dtd">
<svg version="1.1" id="Camada_1" xmlns="http://www.w3.org/2000/svg" xmlns:xlink="http://www.w3.org/1999/xlink" x="0px" y="0px"
	 width="18.727px" height="18.727px" viewBox="0 0 18.727 18.727" enable-background="new 0 0 18.727 18.727" xml:space="preserve">
<path id="BOTAO_x5F_voltar_configuracao_2_" fill="#5877B1" d="M9.364,0C4.192,0,0,4.192,0,9.364s4.192,9.364,9.364,9.364
	s9.364-4.192,9.364-9.364S14.535,0,9.364,0z M15.223,11.081c-0.033,0.023-0.07,0.04-0.11,0.053c-0.253,0.087-0.531-0.051-0.62-0.306
	C13.92,9.192,12.505,8.003,10.8,7.724h-0.001C8.672,7.373,6.55,8.558,5.707,10.511l0.87-0.515c0.112-0.067,0.245-0.087,0.374-0.054
	c0.125,0.033,0.233,0.113,0.3,0.226c0.135,0.229,0.067,0.521-0.156,0.665l-1.932,1.149c-0.079,0.047-0.167,0.069-0.251,0.069
	c-0.162,0-0.319-0.08-0.413-0.226l-0.021-0.033L3.348,9.892C3.28,9.778,3.26,9.646,3.293,9.519c0.032-0.128,0.112-0.235,0.226-0.303
	C3.631,9.15,3.761,9.131,3.893,9.162C4.02,9.194,4.127,9.274,4.194,9.389l0.537,0.904C5.125,9.276,5.804,8.402,6.709,7.75
	c1.238-0.891,2.742-1.244,4.248-0.997c2.064,0.338,3.776,1.776,4.466,3.753C15.497,10.722,15.415,10.958,15.223,11.081z"/>
</svg>
