<svg xmlns="http://www.w3.org/2000/svg" viewBox="0 0 63.67 53.9"><defs><style>.cls-1{fill:none;stroke:#fff;stroke-linecap:round;stroke-linejoin:round;fill-rule:evenodd;}</style></defs><title>Ativo 14</title><g id="Camada_2" data-name="Camada 2"><g id="Layer_1" data-name="Layer 1"><path class="cls-1" d="M34.78.5H62.2a1,1,0,0,1,1,1V38.71a1,1,0,0,1-1,1H1.48a1,1,0,0,1-1-1V1.48a1,1,0,0,1,1-1H36.64m-.89,0"/><path class="cls-1" d="M29.88,49.75V40m0,0"/><path class="cls-1" d="M12.3,53.4l3.91-13.72m0,0"/><path class="cls-1" d="M47.55,53.4,43.63,39.69m0,0"/><path class="cls-1" d="M8.34,32.82V19.1a1,1,0,0,1,1-1H25a1,1,0,0,1,1,1V32.82m0,0"/><path class="cls-1" d="M44.57,14.21H56.32a1,1,0,0,1,1,1V32.82m0,0"/><path class="cls-1" d="M24,15.19V9.31a1,1,0,0,1,1-1H40.65a1,1,0,0,1,1,1V32.82m0,0"/></g></g></svg>