<?xml version="1.0" encoding="utf-8"?>
<!-- Generator: Adobe Illustrator 21.0.0, SVG Export Plug-In . SVG Version: 6.00 Build 0)  -->
<svg version="1.1" id="Camada_1" xmlns="http://www.w3.org/2000/svg" xmlns:xlink="http://www.w3.org/1999/xlink" x="0px" y="0px"
	 viewBox="0 0 71.7 71.7" style="enable-background:new 0 0 71.7 71.7;" xml:space="preserve">
<style type="text/css">
	.st0{fill:none;stroke:#fff;stroke-miterlimit:10;}
</style>
<title>Ativo 5</title>
<g id="Camada_2">
	<g id="Camada_1-2">
		<path class="st0" d="M41.8,5.2v4.7"/>
		<path class="st0" d="M30,9.9V5.2"/>
		<path class="st0" d="M55.9,27.6H15.8c-0.6,0-1.1-0.4-1.2-1c0,0,0-0.1,0-0.1v-2.4C14.7,14.8,21,6.6,30,4.3V4c0-1.9,1.6-3.5,3.5-3.5
			h4.7c1.9,0,3.5,1.6,3.5,3.5v0.2c9,2.4,15.3,10.5,15.3,19.8v2.4c0,0.6-0.4,1.1-1,1.2C56,27.6,56,27.6,55.9,27.6z"/>
		<path class="st0" d="M58.3,27.6H13.5"/>
		<path class="st0" d="M54.7,27.6v4.7c0,10.6-8,22.4-18.9,22.4S17,42.9,17,32.3v-4.7"/>
		<path class="st0" d="M40.6,65.3h-9.4c-0.4,0-0.8-0.2-0.9-0.6C30,64.4,30,64,30.1,63.6L34.8,53c0.2-0.4,0.6-0.7,1.1-0.7
			c0.5,0,0.9,0.2,1.1,0.7l4.7,10.6c0.1,0.4,0.1,0.8-0.1,1.2C41.3,65.1,41,65.3,40.6,65.3z M33,63h5.8l-2.9-6.5L33,63z"/>
		<path class="st0" d="M30.2,64.9l-9.4-13c-0.2-0.3-0.3-0.6-0.2-0.9l1.1-4.3"/>
		<path class="st0" d="M50.6,52.6c4.8,0.8,10.1,2.9,17.1,6.6l0,0c2.1,1.2,3.5,3.4,3.5,5.8v5.1c0,0.6-0.4,1.1-1,1.2c0,0-0.1,0-0.1,0
			H41.3"/>
		<path class="st0" d="M30,71.2H1.7c-0.6,0-1.1-0.4-1.2-1c0,0,0-0.1,0-0.1V65c-0.1-2.4,1.3-4.7,3.5-5.8c7-3.7,12.4-5.8,17.2-6.6"/>
		<path class="st0" d="M27.6,17h-0.2l-9-1.8c-0.4-0.1-0.7-0.4-0.8-0.7c-0.1-0.4-0.1-0.7,0.1-1.1c1.9-3,4.5-5.5,7.7-7.2
			c0.3-0.2,0.7-0.2,1.1,0c0.4,0.2,0.6,0.5,0.7,0.8l1.8,8.6c0.1,0.4,0,0.8-0.4,1.1C28.2,16.9,27.9,17,27.6,17z"/>
		<path class="st0" d="M44.1,17c-0.3,0-0.6-0.1-0.8-0.4c-0.2-0.3-0.4-0.7-0.3-1.1L44.7,7c0.1-0.3,0.3-0.6,0.6-0.8
			c0.3-0.1,0.7-0.1,1.1,0c3.1,1.7,5.7,4.2,7.6,7.2c0.2,0.3,0.3,0.7,0.1,1.1c-0.2,0.4-0.5,0.6-0.8,0.7l-9,1.9L44.1,17z"/>
		<path class="st0" d="M50.3,46.7l1.1,4.3c0,0.3-0.1,0.7-0.2,0.9l-9.4,13"/>
	</g>
</g>
</svg>
