<svg xmlns="http://www.w3.org/2000/svg" viewBox="0 0 22.86 22.86"><defs><style>.cls-1,.cls-2{fill:none;stroke:#fff;stroke-miterlimit:10;}.cls-2{stroke-width:0.7px;}</style></defs><title>p-lupa-martelo</title><g id="Camada_2" data-name="Camada 2"><g id="Camada_1-2" data-name="Camada 1"><path class="cls-1" d="M16,14.11H15l-.37-.37a7.73,7.73,0,0,0,2-5.2,8,8,0,1,0-8,8,7.73,7.73,0,0,0,5.2-2l.37.37v1l6.19,6.19,1.85-1.85Zm-7.43,0"/><path class="cls-2" d="M4.23,11.62h0L8.48,7.37l-.63-.63a.52.52,0,0,1-.58-.85L9.09,4.08a.52.52,0,0,1,.85.58l2.12,2.12a.52.52,0,0,1,.58.85L10.82,9.44A.52.52,0,0,1,10,8.86l-.63-.63L5.09,12.48a.61.61,0,0,1-.86-.86Z"/></g></g></svg>