<?xml version="1.0" encoding="utf-8"?>
<!-- Generator: Adobe Illustrator 21.0.0, SVG Export Plug-In . SVG Version: 6.00 Build 0)  -->
<svg version="1.1" id="Camada_1" xmlns="http://www.w3.org/2000/svg" xmlns:xlink="http://www.w3.org/1999/xlink" x="0px" y="0px"
	 viewBox="0 0 60.2 48.8" style="enable-background:new 0 0 60.2 48.8;" xml:space="preserve">
<style type="text/css">
	.st0{fill:none;stroke:#fff;stroke-miterlimit:10;}
	.st1{fill:#fff;}
</style>
<g>
	<g>
		<line class="st0" x1="12.4" y1="15.1" x2="47.4" y2="15.1"/>
		<polygon class="st0" points="59.7,48.3 13.6,48.3 0.5,48.3 0.5,0.5 59.7,0.5 		"/>
		<g>
			<g>
				<path class="st1" d="M15.9,30.8c2.1-1.9,3.9-4,5.9-6.1c0.6-0.6,0.8-1.2,1.1-1.1c0.2,0-0.3,5.4-0.3,5.7c0,0.3,0.4,0.6,0.7,0.4
					c0.6-0.3,3-2.4,3.7-2.4c1.8,0.2-0.2-0.3,1.4,1.2c1,1,1.7,2.1,3.1,2.8c1.1,0.5,2.6,1,3.8,0.6c0.8-0.3,1.1-0.9,1.7-1.3
					c2.4-1.4,3.9-1.1,6.4-0.7c0.6,0.1,0.8-0.8,0.2-0.9c-1.8-0.3-3.5-1-5.3-0.7c-0.7,0.1-0.4,0.5-1.1,0.7c-1.1,1.2-2.6,1.8-4.4,1.9
					c-2.4-0.8-3.9-2.5-4.5-5c-0.1-0.3-0.4-0.4-0.7-0.3c-0.8,0.6-3.2,2.8-3.8,2.1c-0.8-0.9,0-4.8,0-6.1c0-0.5-0.6-0.6-0.8-0.2
					c-2.3,3.2-4.9,6.1-7.8,8.7C14.8,30.6,15.4,31.2,15.9,30.8L15.9,30.8z"/>
			</g>
		</g>
	</g>
</g>
</svg>
