<svg xmlns="http://www.w3.org/2000/svg" viewBox="0 0 32.87 29.39"><defs><style>.cls-1{fill:none;stroke:#fff;stroke-miterlimit:10;}</style></defs><title>p-monitor-simples</title><g id="Camada_2" data-name="Camada 2"><g id="Camada_1-2" data-name="Camada 1"><path class="cls-1" d="M30.45.5h-28A1.93,1.93,0,0,0,.5,2.42V21.77A1.93,1.93,0,0,0,2.42,23.7H12v1.4A2.33,2.33,0,0,1,9.7,27.42H7.58a.73.73,0,0,0,0,1.47h17.7a.73.73,0,0,0,0-1.47H23.17a2.33,2.33,0,0,1-2.33-2.33V23.7h9.6a1.93,1.93,0,0,0,1.92-1.92V2.42A1.93,1.93,0,0,0,30.45.5ZM3.91,2.74H29a.41.41,0,0,1,.41.41V15.67H3.5V3.14A.41.41,0,0,1,3.91,2.74ZM16.44,19.28a.79.79,0,1,1-.79.79A.79.79,0,0,1,16.44,19.28Zm3.3-10.7-2.07,2.07M18,5.4l-6.24,6.13"/></g></g></svg>