<?xml version="1.0" encoding="utf-8"?>
<!-- Generator: Adobe Illustrator 18.0.0, SVG Export Plug-In . SVG Version: 6.00 Build 0)  -->
<!DOCTYPE svg PUBLIC "-//W3C//DTD SVG 1.1//EN" "http://www.w3.org/Graphics/SVG/1.1/DTD/svg11.dtd">
<svg version="1.1" id="Camada_1" xmlns="http://www.w3.org/2000/svg" xmlns:xlink="http://www.w3.org/1999/xlink" x="0px" y="0px"
	 viewBox="0 0 18.7 17.5" enable-background="new 0 0 18.7 17.5" xml:space="preserve">
<g opacity="0.9">
	<path fill="#5776B0" d="M0,5.9C0.6,5.3,1.2,5.4,1.8,6c2,2.1,4.1,4.1,6.1,6.1c0.2,0.2,0.4,0.4,0.8,0.8c0-1.3,0-2.4,0-3.4
		c0-2.8,0-5.6,0-8.4C8.7,0.5,8.6,0,9.4,0c0.8,0,0.7,0.6,0.7,1.1c0,3.7,0,7.4,0,11.1c0,0.1,0,0.3,0,0.7c0.7-0.7,1.3-1.3,1.9-1.9
		c1.7-1.7,3.4-3.4,5.1-5.1c0.4-0.4,0.9-0.8,1.4-0.3c0.5,0.5,0.1,0.9-0.3,1.4c-2.7,2.7-5.3,5.3-8,8c-0.5,0.5-1.1,0.6-1.5,0.1
		C5.8,12.3,3,9.5,0.2,6.6C0.1,6.5,0.1,6.5,0,6.4C0,6.2,0,6,0,5.9z"/>
	<path fill="#5776B0" d="M0,16.8c0.4-0.2,0.8-0.5,1.1-0.5c5.5,0,11.1,0,16.6,0c0.5,0,1-0.1,1,0.7c0,0.8-0.5,0.6-1,0.6
		c-5.5,0-11,0-16.5,0c-0.4,0-0.8-0.2-1.2-0.4C0,17,0,16.9,0,16.8z"/>
</g>
</svg>
