<svg xmlns="http://www.w3.org/2000/svg" viewBox="0 0 51.36 39.22"><defs><style>.cls-1{fill:#5776b0;}</style></defs><title>Asset 4</title><g id="Layer_2" data-name="Layer 2"><g id="Camada_1" data-name="Camada 1"><path class="cls-1" d="M0,12.21a4.74,4.74,0,0,1,.86-1.83,3.16,3.16,0,0,1,1.9-1.11,11.87,11.87,0,0,1,1.79-.1H31.38c.32-1.09.56-2.17.95-3.18a8.94,8.94,0,0,1,2.78-3.72A9.67,9.67,0,0,1,39.44.2a10,10,0,0,1,5.79.54,9.26,9.26,0,0,1,3.26,2.18,9.85,9.85,0,0,1,2.79,5.84,9.65,9.65,0,0,1-1,5.7,9.89,9.89,0,0,1-6.78,5.2,5.52,5.52,0,0,1-.71.11c-.65.06-.66.05-.66.73V35.92a3.3,3.3,0,0,1-2.75,3.19,8.67,8.67,0,0,1-1.35.1H3.72a3.46,3.46,0,0,1-3.65-3s0,0-.07,0ZM16.38,24.89C15.26,25.93,14.14,27,13,28c-.85.79-1.67,1.61-2.51,2.4-.63.59-1.27,1.16-1.92,1.72a.78.78,0,0,1-1,.06A.81.81,0,0,1,7.65,31c.33-.32.68-.61,1-.92L13,26a3.5,3.5,0,0,1,.3-.24l2-1.89L1.56,11.93c0,.42-.08.71-.08,1,0,7.51,0,15,0,22.53a2.2,2.2,0,0,0,2.29,2.29h32.8c.69,0,1.38,0,2.07,0a2,2,0,0,0,2.05-2.07c0-5.11,0-10.22,0-15.32v-.56A7.33,7.33,0,0,1,37.43,19c-1-.48-1.89-1.12-2.88-1.72l-7.64,6.63c.17.14.28.21.38.3l4.31,4c1,1,2,1.89,3,2.85a.7.7,0,0,1,0,1.07.79.79,0,0,1-1,0l-1.05-.95q-1.62-1.52-3.23-3t-3.47-3.3c-.77.67-1.51,1.32-2.27,1.95a3.92,3.92,0,0,1-4.51.23C18.11,26.4,17.28,25.63,16.38,24.89ZM31.51,10.66l-.23,0H3.49a4.82,4.82,0,0,0-.88.17A5.12,5.12,0,0,0,3,11.2l4.15,3.57L11,18.12l4.64,4.05,4,3.49a2.46,2.46,0,0,0,3.08,0c.73-.59,1.43-1.22,2.14-1.83l5.13-4.45c1.16-1,2.29-2.05,3.46-3.05.21-.18.21-.24.06-.44A9.85,9.85,0,0,1,31.51,10.66ZM33,9.85a8.45,8.45,0,0,0,16.89.5A8.57,8.57,0,0,0,42,1.48,8.48,8.48,0,0,0,33,9.85Z"/><path class="cls-1" d="M40.76,9.16V6a.75.75,0,0,1,.73-.84c.52,0,.74.21.74.74,0,1.07,0,2.15,0,3.29,1.07,0,2.11,0,3.15,0a1.15,1.15,0,0,1,.76.3,1,1,0,0,1,.11.73.59.59,0,0,1-.67.43c-1.1,0-2.19,0-3.35,0,0,1.12,0,2.21,0,3.3a1,1,0,0,1-.16.53.65.65,0,0,1-.85.21c-.39-.14-.44-.45-.45-.77,0-.91,0-1.83,0-2.74v-.53H37.58c-.62,0-.84-.18-.85-.72s.32-.75.87-.75Z"/></g></g></svg>