<?xml version="1.0" encoding="utf-8"?>
<!-- Generator: Adobe Illustrator 17.0.0, SVG Export Plug-In . SVG Version: 6.00 Build 0)  -->
<!DOCTYPE svg PUBLIC "-//W3C//DTD SVG 1.1//EN" "http://www.w3.org/Graphics/SVG/1.1/DTD/svg11.dtd">
<svg version="1.1" id="Camada_1" xmlns="http://www.w3.org/2000/svg" xmlns:xlink="http://www.w3.org/1999/xlink" x="0px" y="0px"
	 width="42.254px" height="53.524px" viewBox="0 0 42.254 53.524" enable-background="new 0 0 42.254 53.524" xml:space="preserve">
<g>
	<path fill="none" stroke="#6AA782" stroke-width="1.5" stroke-miterlimit="10" d="M28.854,0.75H0.75v52.024h40.754V13.396
		L28.854,0.75z M30.264,2.409l9.179,9.179h-9.179V2.409z M2.486,51.037"/>
	<path fill="none" stroke="#6AA782" stroke-width="1.5" stroke-miterlimit="10" d="M31.965,18.959L31.965,18.959H18.091
		 M31.965,18.959"/>
	<path fill="none" stroke="#6AA782" stroke-width="1.5" stroke-miterlimit="10" d="M14.95,16.546 M8.807,19.573l1.735,1.732
		c0.169,0.169,0.39,0.254,0.615,0.254c0.19,0,0.38-0.063,0.538-0.191L16.03,17.9 M14.95,16.546"/>
	<path fill="none" stroke="#6AA782" stroke-width="1.5" stroke-miterlimit="10" d="M31.965,28.498L31.965,28.498H18.091
		 M31.965,28.498"/>
	<path fill="none" stroke="#6AA782" stroke-width="1.5" stroke-miterlimit="10" d="M14.95,26.084 M8.807,29.107l1.735,1.736
		c0.169,0.169,0.39,0.254,0.615,0.254c0.19,0,0.38-0.064,0.538-0.191l4.335-3.467"/>
	<path fill="none" stroke="#6AA782" stroke-width="1.5" stroke-miterlimit="10" d="M31.965,38.031L31.965,38.031H18.091
		 M31.965,38.031"/>
	<path fill="none" stroke="#6AA782" stroke-width="1.5" stroke-miterlimit="10" d="M14.95,35.623 M8.807,38.646l1.735,1.735
		c0.169,0.17,0.39,0.255,0.615,0.255c0.19,0,0.38-0.064,0.538-0.191l4.335-3.467"/>
</g>
</svg>
