<?xml version="1.0" encoding="utf-8"?>
<!-- Generator: Adobe Illustrator 18.0.0, SVG Export Plug-In . SVG Version: 6.00 Build 0)  -->
<!DOCTYPE svg PUBLIC "-//W3C//DTD SVG 1.1//EN" "http://www.w3.org/Graphics/SVG/1.1/DTD/svg11.dtd">
<svg version="1.1" id="Camada_1" xmlns="http://www.w3.org/2000/svg" xmlns:xlink="http://www.w3.org/1999/xlink" x="0px" y="0px"
	 viewBox="0 0 22.1 22.7" enable-background="new 0 0 22.1 22.7" xml:space="preserve">
<g>
	<path fill="#5776B0" d="M0,22.7C0,16,0,9.3,0,2.7c1.1,0,2.2,0,3.3,0c0,0.3,0,0.6,0,0.8C3.2,4.9,4.5,6.1,5.9,5.9
		c1.2-0.2,2.1-1.2,2-2.4c0-0.3,0-0.5,0-0.8c2.2,0,4.3,0,6.4,0c0,0.2,0,0.5,0,0.7c0,1.4,1.2,2.6,2.7,2.4c1.1-0.2,1.9-1,2-2
		c0-0.4,0.1-0.7,0.1-1.1c1,0,2,0,3,0c0,6.6,0,13.3,0,19.9C14.7,22.7,7.4,22.7,0,22.7z M1.6,21c6.4,0,12.7,0,19,0c0-4.2,0-8.4,0-12.6
		c-6.3,0-12.7,0-19,0C1.6,12.6,1.6,16.8,1.6,21z"/>
	<path fill="#5776B0" d="M7.2,2.4c0,0.4,0,0.8-0.1,1.2C7,4.4,6.3,4.9,5.4,4.8C4.8,4.8,4,4.3,4,3.5C4,2.8,3.9,2,4,1.2
		C4.1,0.5,4.9,0,5.5,0C6.3,0,7,0.5,7.1,1.2C7.2,1.6,7.2,2,7.2,2.4z"/>
	<path fill="#5776B0" d="M15.1,2.4c0-0.3,0-0.5,0-0.8c0-0.7,0.4-1.3,1.1-1.5c0.7-0.2,1.6,0.2,1.9,0.8c0.1,0.2,0.1,0.4,0.1,0.6
		c0,0.6,0,1.2,0,1.8c0,0.7-0.3,1.2-1,1.4c-0.5,0.2-1.2,0.1-1.7-0.3c-0.4-0.3-0.5-0.7-0.5-1.2C15.1,3,15.1,2.7,15.1,2.4z"/>
	<path fill="#5776B0" d="M7.9,12.3c0-0.8,0-1.5,0-2.3c0.8,0,1.7,0,2.5,0c0,0.7,0,1.5,0,2.3C9.7,12.3,8.8,12.3,7.9,12.3z"/>
	<path fill="#5776B0" d="M14.6,10c0,0.8,0,1.5,0,2.3c-0.8,0-1.7,0-2.5,0c0-0.7,0-1.5,0-2.3C12.9,10,13.7,10,14.6,10z"/>
	<path fill="#5776B0" d="M18.4,10c0,0.8,0,1.5,0,2.3c-0.8,0-1.7,0-2.5,0c0-0.7,0-1.5,0-2.3C16.7,10,17.5,10,18.4,10z"/>
	<path fill="#5776B0" d="M3.9,15.9c0-0.8,0-1.5,0-2.3c0.8,0,1.7,0,2.5,0c0,0.7,0,1.5,0,2.3C5.7,15.9,4.8,15.9,3.9,15.9z"/>
	<path fill="#5776B0" d="M7.9,15.9c0-0.8,0-1.5,0-2.3c0.8,0,1.7,0,2.5,0c0,0.7,0,1.5,0,2.3C9.6,15.9,8.8,15.9,7.9,15.9z"/>
	<path fill="#5776B0" d="M12,13.7c0.9,0,1.7,0,2.5,0c0,0.8,0,1.5,0,2.3c-0.8,0-1.7,0-2.5,0C12,15.2,12,14.4,12,13.7z"/>
	<path fill="#5776B0" d="M15.8,13.7c0.9,0,1.7,0,2.5,0c0,0.8,0,1.5,0,2.3c-0.8,0-1.7,0-2.5,0C15.8,15.2,15.8,14.4,15.8,13.7z"/>
	<path fill="#5776B0" d="M3.9,19.7c0-0.7,0-1.5,0-2.2c0.8,0,1.7,0,2.5,0c0,0.7,0,1.4,0,2.2C5.7,19.7,4.8,19.7,3.9,19.7z"/>
	<path fill="#5776B0" d="M10.5,19.7c-0.8,0-1.7,0-2.5,0c0-0.7,0-1.5,0-2.2c0.8,0,1.7,0,2.5,0C10.5,18.2,10.5,18.9,10.5,19.7z"/>
	<path fill="#5776B0" d="M14.6,19.7c-0.9,0-1.7,0-2.5,0c0-0.7,0-1.4,0-2.2c0.8,0,1.7,0,2.5,0C14.6,18.2,14.6,18.9,14.6,19.7z"/>
	<path fill="#5776B0" d="M15.8,17.5c0.9,0,1.7,0,2.5,0c0,0.7,0,1.5,0,2.2c-0.8,0-1.7,0-2.5,0C15.8,18.9,15.8,18.2,15.8,17.5z"/>
</g>
</svg>
