<svg xmlns="http://www.w3.org/2000/svg" viewBox="0 0 42.59 68.43"><defs><style>.cls-1{fill:none;stroke:#fff;stroke-miterlimit:10;}</style></defs><title>Asset 2</title><g id="Layer_2" data-name="Layer 2"><g id="Camada_1" data-name="Camada 1"><path class="cls-1" d="M8.37,16.23H33.1a1.06,1.06,0,0,0,1.12-1.13V1.63A1.06,1.06,0,0,0,33.1.5H8.37A1.06,1.06,0,0,0,7.24,1.63V15.11a1.06,1.06,0,0,0,1.13,1.13ZM9.5,2.75"/><path class="cls-1" d="M17.36,42.09H1.63A1.06,1.06,0,0,0,.5,43.21v9a1.06,1.06,0,0,0,1.13,1.13H8.37v3.37H1.63A1.06,1.06,0,0,0,.5,57.82v9a1.06,1.06,0,0,0,1.13,1.13H17.36a1.06,1.06,0,0,0,1.13-1.13v-9a1.06,1.06,0,0,0-1.13-1.13H10.62V53.33h6.74a1.06,1.06,0,0,0,1.13-1.13v-9a1.06,1.06,0,0,0-1.13-1.12Zm-1.12,9"/><path class="cls-1" d="M41,53.33a1.06,1.06,0,0,0,1.13-1.13v-9A1.06,1.06,0,0,0,41,42.09H25.23a1.06,1.06,0,0,0-1.13,1.12v9a1.06,1.06,0,0,0,1.13,1.13H32v3.37H25.23a1.06,1.06,0,0,0-1.13,1.13v9a1.06,1.06,0,0,0,1.13,1.13H41a1.06,1.06,0,0,0,1.13-1.13v-9A1.06,1.06,0,0,0,41,56.69H34.22V53.33Zm-14.61-9"/><path class="cls-1" d="M21.3,18.48V35.34m12.92,4.49"/><line class="cls-1" x1="11.74" y1="4.99" x2="25.23" y2="4.99"/><line class="cls-1" x1="11.74" y1="9.49" x2="29.72" y2="9.49"/><polyline class="cls-1" points="33.09 39.84 33.09 35.34 9.49 35.34 9.49 39.84"/></g></g></svg>