<?xml version="1.0" encoding="utf-8"?>
<!-- Generator: Adobe Illustrator 17.0.0, SVG Export Plug-In . SVG Version: 6.00 Build 0)  -->
<!DOCTYPE svg PUBLIC "-//W3C//DTD SVG 1.1//EN" "http://www.w3.org/Graphics/SVG/1.1/DTD/svg11.dtd">
<svg version="1.1" id="Camada_1" xmlns="http://www.w3.org/2000/svg" xmlns:xlink="http://www.w3.org/1999/xlink" x="0px" y="0px"
	 width="125.21px" height="66.125px" viewBox="0 0 125.21 66.125" enable-background="new 0 0 125.21 66.125" xml:space="preserve">
<g>
	<line fill="none" stroke="#FFFFFF" stroke-width="1.5" stroke-miterlimit="10" x1="12.444" y1="63.263" x2="60.056" y2="15.651"/>
	<g>
		<defs>
			<path id="SVGID_1_" d="M61,14.5L9.625,66.125c0,0-9.625-21.375-9.625-21.75s4.625-32.75,4.625-32.75L32.625,0l26.5,5.25L61,14.5z
				"/>
		</defs>
		<clipPath id="SVGID_2_">
			<use xlink:href="#SVGID_1_"  overflow="visible"/>
		</clipPath>
		<g clip-path="url(#SVGID_2_)">
			<g>
				<path fill="none" stroke="#FFFFFF" stroke-width="1.5" stroke-miterlimit="10" d="M36.25,57.939
					c-15.767,0-28.112-16.645-28.63-17.354c-0.491-0.672-0.491-1.584,0-2.257c0.518-0.708,12.863-17.354,28.63-17.354
					s28.111,16.645,28.63,17.354c0.491,0.672,0.491,1.584,0,2.257C64.361,41.293,52.016,57.939,36.25,57.939z"/>
				<path fill="none" stroke="#FFFFFF" stroke-width="1.5" stroke-miterlimit="10" d="M36.25,50.928
					c-6.325,0-11.472-5.146-11.472-11.472s5.146-11.472,11.472-11.472s11.472,5.146,11.472,11.472S42.575,50.928,36.25,50.928z"/>
				<path fill="#FFFFFF" d="M36.25,45.039c-3.078,0-5.582-2.504-5.582-5.582c0-3.078,2.504-5.582,5.582-5.582
					s5.582,2.504,5.582,5.582C41.832,42.535,39.328,45.039,36.25,45.039z"/>
			</g>
		</g>
	</g>
	<g>
		<g>
			<g>
				<path fill="none" stroke="#FFFFFF" stroke-width="1.5" stroke-miterlimit="10" d="M36.25,57.939
					c-15.767,0-28.112-16.645-28.63-17.354c-0.491-0.672-0.491-1.584,0-2.257c0.518-0.708,12.863-17.354,28.63-17.354
					s28.111,16.645,28.63,17.354c0.491,0.672,0.491,1.584,0,2.257C64.361,41.293,52.016,57.939,36.25,57.939z"/>
			</g>
		</g>
		<g>
			<path fill="none" stroke="#FFFFFF" stroke-width="1.5" stroke-miterlimit="10" d="M90.412,30.88c0-1.125,0.214-2.191,0.64-3.2
				c0.427-1.008,1.008-1.881,1.745-2.618c0.737-0.737,1.6-1.319,2.588-1.745c0.989-0.426,2.046-0.64,3.17-0.64
				c1.125,0,2.182,0.214,3.17,0.64c0.989,0.427,1.852,1.009,2.588,1.745c0.737,0.737,1.319,1.61,1.745,2.618
				c0.427,1.009,0.64,2.075,0.64,3.2"/>
			<path fill="none" stroke="#FFFFFF" stroke-width="1.5" stroke-miterlimit="10" d="M82.269,30.473c0-2.25,0.426-4.373,1.28-6.37
				c0.853-1.997,2.017-3.742,3.49-5.235c1.474-1.493,3.2-2.666,5.177-3.519c1.978-0.853,4.091-1.28,6.34-1.28l0,0
				c2.25,0,4.363,0.427,6.341,1.28c1.978,0.853,3.704,2.026,5.177,3.519c1.474,1.493,2.637,3.238,3.491,5.235
				c0.853,1.997,1.28,4.12,1.28,6.37c0,1.939-0.329,3.839-0.989,5.701c-0.077,0.194-0.155,0.329-0.233,0.407
				c-0.427,0.814-0.853,1.571-1.28,2.269c-0.388,0.621-0.805,1.27-1.251,1.949c-0.446,0.679-0.863,1.25-1.25,1.716
				c-0.077,0.116-0.175,0.233-0.291,0.349c-0.117,0.116-0.233,0.252-0.349,0.407c-0.543,0.62-0.941,1.154-1.193,1.6
				c-0.252,0.446-0.359,1.173-0.32,2.181c0.077,2.094,0.097,3.636,0.058,4.625s-0.116,1.774-0.233,2.356
				c-0.349,2.017-1.231,3.568-2.647,4.654c-1.416,1.086-3.384,1.629-5.905,1.629h-0.116c-0.698,0-1.299-0.252-1.803-0.756
				c-0.504-0.504-0.776-1.125-0.814-1.862"/>
			
				<line fill="none" stroke="#FFFFFF" stroke-width="1.5" stroke-miterlimit="10" x1="114.455" y1="26.161" x2="124.679" y2="15.936"/>
			<line fill="none" stroke="#FFFFFF" stroke-width="1.5" stroke-miterlimit="10" x1="83.68" y1="56.935" x2="101.935" y2="38.68"/>
		</g>
	</g>
</g>
</svg>
