<svg xmlns="http://www.w3.org/2000/svg" viewBox="0 0 16.7 17.92"><defs><style>.cls-1{fill:#fff;stroke:#fff;stroke-miterlimit:10;stroke-width:0.25px;}</style></defs><title>Asset 1</title><g id="Layer_2" data-name="Layer 2"><g id="Camada_1" data-name="Camada 1"><path class="cls-1" d="M.13,8.46a3.89,3.89,0,0,1,.65-1.4A2.86,2.86,0,0,1,2.48,6a3,3,0,0,1,3,1l.17.23,5.08-3A3,3,0,0,1,12.44.35a3,3,0,0,1,3.79,1.39A3,3,0,0,1,11,4.81L7.47,7c-.44.26-.88.52-1.31.81A.35.35,0,0,0,6,8a3.38,3.38,0,0,1,0,2L11,13.1a3,3,0,0,1,4.06-.95,3,3,0,0,1,1.18,4,3,3,0,0,1-3.8,1.45,3,3,0,0,1-1.74-3.86L6.89,11.4c-.32-.2-.66-.37-1-.6s-.34-.11-.48.07a2.72,2.72,0,0,1-1.62,1A3,3,0,0,1,.18,9.47s0-.05,0-.07Zm5.36.46A2.33,2.33,0,0,0,3.12,6.6a2.35,2.35,0,0,0,0,4.69A2.37,2.37,0,0,0,5.49,8.92Zm5.74,5.85a2.35,2.35,0,0,0,2.24,2.34,2.35,2.35,0,1,0,.16-4.69A2.36,2.36,0,0,0,11.23,14.77Zm0-11.63A2.34,2.34,0,1,0,13.61.81,2.34,2.34,0,0,0,11.23,3.14Z"/></g></g></svg>