<svg xmlns="http://www.w3.org/2000/svg" viewBox="0 0 48.28 55.48"><defs><style>.cls-1{fill:none;stroke:#3aab80;stroke-miterlimit:10;stroke-width:1.5px;}</style></defs><title>Asset 2</title><g id="Layer_2" data-name="Layer 2"><g id="Camada_1" data-name="Camada 1"><rect class="cls-1" x="0.75" y="0.75" width="46.78" height="53.98"/><rect class="cls-1" x="25.48" y="6.46" width="18.91" height="11.72"/><rect class="cls-1" x="25.48" y="21.88" width="18.91" height="11.72"/><rect class="cls-1" x="25.48" y="37.31" width="18.91" height="11.72"/><rect class="cls-1" x="4.22" y="6.46" width="18.91" height="11.72"/><rect class="cls-1" x="4.22" y="21.88" width="18.91" height="11.72"/><rect class="cls-1" x="4.22" y="37.31" width="18.91" height="11.72"/><path class="cls-1" d="M34.23,12.18,32.68,9.81h1.21l1,1.72,1-1.72h1.2l-1.47,2.37,1.61,2.65h-1.2l-1.19-1.95-1.18,1.95H32.54Z"/><path class="cls-1" d="M12.09,27.6l-1.54-2.37h1.2L12.8,27l1-1.72H15l-1.47,2.38,1.62,2.64H14L12.8,28.3l-1.19,1.95H10.4Z"/></g></g></svg>