<svg xmlns="http://www.w3.org/2000/svg" viewBox="0 0 62.53 65.81"><defs><style>.cls-1{fill:none;stroke:#5776b0;stroke-miterlimit:10;}.cls-2{fill:#5776b0;}</style></defs><title>Asset 5</title><g id="Layer_2" data-name="Layer 2"><g id="Camada_1" data-name="Camada 1"><path class="cls-1" d="M49.73,17.48V.5H.5V65.31H34.28L49.73,50V40.5M47,48.07H33.72a1.37,1.37,0,0,0-1.38,1.37V62.54"/><line class="cls-1" x1="10.42" y1="12.63" x2="39.52" y2="12.63"/><line class="cls-1" x1="10.42" y1="24.36" x2="39.52" y2="24.36"/><line class="cls-1" x1="10.42" y1="36.08" x2="39.52" y2="36.08"/><path class="cls-2" d="M9.93,47.8A29.57,29.57,0,0,0,14.23,43l-.84-.23-.19,4.06a.45.45,0,0,0,.68.39c.23-.14,1.74-1.34,2.12-1.29.15,0,.29.66.45.82a5.77,5.77,0,0,0,2.09,1.59,2.88,2.88,0,0,0,1.78.08c1.49-.51-.12-.35,1.19-1a4.7,4.7,0,0,1,3,0c.57.1.81-.77.24-.87-.82-.14-1.87-.65-2.71-.47-.23,0-.47.24-.69.29l-.48.46Q17.41,48.14,16.68,45a.45.45,0,0,0-.66-.27c-.85.6-1.7,1.18-2.6,1.72l.68.39.19-4.06c0-.48-.6-.56-.84-.23A28.52,28.52,0,0,1,9.3,47.16c-.43.39.21,1,.64.64Z"/><circle class="cls-1" cx="12.99" cy="53.92" r="3.38"/><polygon class="cls-1" points="61.74 21.82 53.57 15.13 53.57 17.48 45.4 17.48 45.4 26.15 53.57 26.15 53.57 28.5 61.74 21.82"/><polygon class="cls-1" points="45.4 36.96 53.57 30.27 53.57 32.63 61.74 32.63 61.74 41.3 53.57 41.3 53.57 43.65 45.4 36.96"/></g></g></svg>