<?xml version="1.0" encoding="utf-8"?>
<!-- Generator: Adobe Illustrator 21.0.0, SVG Export Plug-In . SVG Version: 6.00 Build 0)  -->
<svg version="1.1" id="Camada_1" xmlns="http://www.w3.org/2000/svg" xmlns:xlink="http://www.w3.org/1999/xlink" x="0px" y="0px"
	 viewBox="0 0 68.8 67.2" style="enable-background:new 0 0 68.8 67.2;" xml:space="preserve">
<style type="text/css">
	.st0{fill:none;stroke:#5776B0;stroke-miterlimit:10;}
</style>
<g>
	<g>
		<path class="st0" d="M47.7,13.5c-0.2-0.1-0.3-0.3-0.5-0.3L35,9.4c-4.9-1.5-8,1.1-8.9,2c-0.5,0.5-0.9,1-1.1,1.5l-5.4,12.7
			c-0.3,0.7-0.2,1.7,0.3,2.7c0.7,1.4,2,2.4,3.5,2.7c1.7,0.4,3.4-0.1,4.8-1.5c0.4-0.4,0.7-0.8,0.8-1.1l1.8-3.4
			c0.3-0.6,0.7-1.1,1.2-1.6c1.6-1.6,2.3-0.8,2.6-0.5c2.7,2.6,17,17,17,17c0.5,0.5,0.4,1.5-0.2,2.1c-0.6,0.6-1.6,0.7-2.1,0.2l-4-4
			c-0.5-0.5-1.3-0.5-1.9,0c-0.5,0.5-0.5,1.3,0,1.9l4,4c0.5,0.5,0.4,1.5-0.2,2.1c-0.6,0.6-1.6,0.7-2.1,0.2l-4-4
			c-0.5-0.5-1.3-0.5-1.9,0c-0.5,0.5-0.5,1.3,0,1.9l4,4c0.5,0.5,0.4,1.5-0.2,2.1c-0.6,0.6-1.6,0.7-2.1,0.2l-4-4
			c-0.5-0.5-1.3-0.5-1.9,0c-0.5,0.5-0.5,1.4,0,1.9l4,4c0.5,0.5,0.4,1.5-0.2,2.1c-0.6,0.6-1.6,0.7-2.1,0.2l-4.9-4.9
			c0.7-1.1,0.5-2.6-0.5-3.6c-1.2-1.2-2.9-1.3-4-0.2c1-1,0.9-2.8-0.2-4c-1.2-1.2-2.9-1.3-4-0.2c1-1,0.9-2.8-0.2-4
			c-1.2-1.2-2.9-1.3-4-0.2c1-1,0.9-2.8-0.2-4c-1.1-1.1-2.7-1.2-3.8-0.4L7,25.4c-0.5-0.5-1.4-0.5-1.9,0c-0.5,0.5-0.5,1.4,0,1.9
			l7.9,7.9l-2.3,2.3c-1,1-0.9,2.8,0.2,4c1.2,1.2,2.9,1.3,4,0.2c-1,1-0.9,2.8,0.2,4c1.2,1.2,2.9,1.3,4,0.2c-1,1-0.9,2.8,0.2,4
			c1.2,1.2,2.9,1.3,4,0.2c-1,1-0.9,2.8,0.2,4c1.2,1.2,2.9,1.3,4,0.2l2.5-2.5l4.8,4.9c1.5,1.5,4.2,1.4,5.8-0.2
			c0.8-0.8,1.2-1.9,1.3-2.9c1-0.1,2.1-0.5,2.9-1.3c0.8-0.8,1.2-1.9,1.3-2.9c1-0.1,2.1-0.5,2.9-1.3c0.8-0.8,1.3-1.9,1.3-2.9
			c1-0.1,2.1-0.5,2.9-1.3c1.7-1.7,1.8-4.3,0.2-5.8l-2-2l8.4-8.4c0.5-0.5,0.5-1.3,0-1.9L47.7,13.5z M47.7,13.5"/>
		<path class="st0" d="M67.6,16.5L56.9,5.8c-1-1-2.7-1-3.7,0l-3.7,3.7c-1,1-1,2.7,0,3.7L60.1,24c1,1,2.7,1,3.7,0l3.7-3.7
			C68.6,19.2,68.6,17.5,67.6,16.5L67.6,16.5z M61.9,21.9c-1.2,0-2.2-1-2.2-2.2c0-1.2,1-2.2,2.2-2.2c1.2,0,2.2,1,2.2,2.2
			C64.1,21,63.1,21.9,61.9,21.9L61.9,21.9z M61.9,21.9"/>
	</g>
	<polyline class="st0" points="48.6,52.9 48.6,66.7 0.5,66.7 0.5,0.5 48.6,0.5 48.6,6.4 	"/>
</g>
</svg>
