<svg xmlns="http://www.w3.org/2000/svg" viewBox="0 0 54.56 60.89"><defs><style>.cls-1{fill:none;stroke:#3aab80;stroke-miterlimit:10;stroke-width:1.5px;}</style></defs><title>Asset 1</title><g id="Layer_2" data-name="Layer 2"><g id="Camada_1" data-name="Camada 1"><path class="cls-1" d="M36.87,30.18V.75H.75V48.3H29"/><line class="cls-1" x1="8.03" y1="9.65" x2="29.38" y2="9.65"/><line class="cls-1" x1="8.03" y1="18.26" x2="29.38" y2="18.26"/><line class="cls-1" x1="8.03" y1="26.85" x2="29.38" y2="26.85"/><path class="cls-1" d="M53.16,56.36h0L37.68,40.87l2.3-2.3a1.82,1.82,0,0,0,.76.16,1.9,1.9,0,0,0,1.35-3.24l-6.63-6.63a1.9,1.9,0,0,0-1.35-.56,1.91,1.91,0,0,0-1.9,1.9,2,2,0,0,0,.16.77L24.64,38.7a1.91,1.91,0,0,0-2.11.4,1.9,1.9,0,0,0,0,2.69l6.63,6.63a1.91,1.91,0,0,0,2.68,0,1.9,1.9,0,0,0,.56-1.35,1.79,1.79,0,0,0-.16-.76l2.3-2.3L50,59.5a2.22,2.22,0,0,0,3.13-3.14Z"/></g></g></svg>