<svg xmlns="http://www.w3.org/2000/svg" viewBox="0 0 52.93 59.84"><defs><style>.cls-1{fill:none;stroke:#fff;stroke-miterlimit:10;}</style></defs><title>Asset 2</title><g id="Layer_2" data-name="Layer 2"><g id="Camada_1" data-name="Camada 1"><path class="cls-1" d="M13.32,24.15a11,11,0,0,1-7.76-2.77C1,16.84.5,8,.5,1.68A1.18,1.18,0,0,1,1.68.5C8,.5,16.84,1,21.38,5.56c4,4,3.38,12.44,0,15.82C19.62,23.14,16.48,24.15,13.32,24.15Z"/><path class="cls-1" d="M39.61,28.81c-3.16,0-6.29-1-8.06-2.77-3.38-3.38-4-11.82,0-15.82C36.09,5.69,45,5.16,51.25,5.16a1.18,1.18,0,0,1,1.18,1.18c0,6.28-.53,15.16-5.06,19.7A11,11,0,0,1,39.61,28.81Z"/><path class="cls-1" d="M12.79,10.89c11.36,7.7,11.92,40.93,12.78,46.51.92-3.49,4.32-32.55,15.5-42.55"/></g></g></svg>