<svg xmlns="http://www.w3.org/2000/svg" viewBox="0 0 60.12 55.38"><defs><style>.cls-1{fill:none;stroke:#fff;stroke-miterlimit:10;}</style></defs><title>Asset 2</title><g id="Layer_2" data-name="Layer 2"><g id="Camada_1" data-name="Camada 1"><path class="cls-1" d="M16.58,8.1a7.61,7.61,0,1,1,7.61,7.6,7.61,7.61,0,0,1-7.61-7.6ZM29.4,16.43a9.77,9.77,0,0,0-2-.21H21a9.93,9.93,0,0,0-2,.2m5.56,3.77M33.17,28a7,7,0,1,0-4-6.45M24.54,35.92a7,7,0,1,0-7-7,7,7,0,0,0,7,7Zm3,.48H21.56a9,9,0,0,0-9,9v7.27l0,.11.5.16a40.84,40.84,0,0,0,12.2,2c6.59,0,10.42-1.88,10.65-2l.47-.24h0V45.37a9,9,0,0,0-9-9ZM38.15,47.62a24.16,24.16,0,0,0,9.4-2L48,45.4h0V38.13a9,9,0,0,0-9-9h0m6.23-7.66a7,7,0,1,0-5.5-8.33h0M49.7,40.57a24.08,24.08,0,0,0,9.4-2l.47-.24h.05V31.08a9,9,0,0,0-9-9h0M18.53,35.18m.89-12.53a7,7,0,1,0-3.59,6.71M9.47,30.72h0a9,9,0,0,0-9,9V47h0L1,47.2a24.16,24.16,0,0,0,9.4,2"/></g></g></svg>