<?xml version="1.0" encoding="utf-8"?>
<!-- Generator: Adobe Illustrator 17.0.0, SVG Export Plug-In . SVG Version: 6.00 Build 0)  -->
<!DOCTYPE svg PUBLIC "-//W3C//DTD SVG 1.1//EN" "http://www.w3.org/Graphics/SVG/1.1/DTD/svg11.dtd">
<svg version="1.1" id="Camada_1" xmlns="http://www.w3.org/2000/svg" xmlns:xlink="http://www.w3.org/1999/xlink" x="0px" y="0px"
	 width="38.015px" height="34.981px" viewBox="0 0 38.015 34.981" enable-background="new 0 0 38.015 34.981" xml:space="preserve">
<g>
	<path fill="none" stroke="#FFFFFF" stroke-width="0.5" stroke-miterlimit="10" d="M37.018,12.542h-0.501
		c-0.488-2.475-2.99-6.834-4.098-8.68c0.519-0.357,0.861-0.956,0.861-1.632c0-1.092-0.888-1.98-1.98-1.98s-1.98,0.888-1.98,1.98
		c0,0.677,0.341,1.275,0.861,1.632c-1.108,1.846-3.61,6.205-4.098,8.68h-0.501c-0.413,0-0.747,0.335-0.747,0.747
		c0,3.565,2.9,6.465,6.465,6.465c3.565,0,6.465-2.9,6.465-6.465C37.765,12.877,37.43,12.542,37.018,12.542z M31.3,18.26
		c-2.487,0-4.553-1.836-4.915-4.223h9.83C35.853,16.425,33.787,18.26,31.3,18.26z"/>
	<path fill="none" stroke="#FFFFFF" stroke-width="0.5" stroke-miterlimit="10" d="M25.659,30.435h-1.976v-1.898
		c0-0.413-0.335-0.747-0.747-0.747h-1.898V6.915c0.489-0.483,0.804-1.142,0.84-1.873l3.16-0.68c0.403-0.087,0.66-0.484,0.573-0.888
		c-0.087-0.403-0.484-0.66-0.888-0.573l-3.167,0.682c-0.475-0.902-1.422-1.519-2.51-1.519c-1.507,0-2.743,1.182-2.83,2.668
		l-7.902,1.7C7.954,5.939,7.372,5.618,6.716,5.618c-1.092,0-1.98,0.888-1.98,1.98c0,0.677,0.341,1.275,0.861,1.632
		c-1.108,1.846-3.61,6.205-4.098,8.68H0.998c-0.413,0-0.747,0.335-0.747,0.747c0,3.565,2.9,6.465,6.465,6.465s6.465-2.9,6.465-6.465
		c0-0.413-0.335-0.747-0.747-0.747h-0.501c-0.488-2.476-2.99-6.834-4.098-8.68c0.445-0.306,0.759-0.789,0.84-1.347l7.85-1.689
		c0.138,0.268,0.317,0.511,0.529,0.721v20.875h-1.898c-0.413,0-0.747,0.335-0.747,0.747v1.898h-1.976
		c-0.413,0-0.747,0.335-0.747,0.747v2.8c0,0.413,0.335,0.747,0.747,0.747h13.226c0.413,0,0.747-0.335,0.747-0.747v-2.801
		C26.407,30.77,26.072,30.435,25.659,30.435z M6.716,23.628c-2.487,0-4.553-1.836-4.915-4.223h9.829
		C11.269,21.793,9.203,23.628,6.716,23.628z"/>
	<path fill="none" stroke="#FFFFFF" stroke-width="0.5" stroke-miterlimit="10" d="M27.214,3.923c0.052,0,0.105-0.005,0.158-0.017
		l0.545-0.117c0.403-0.087,0.66-0.484,0.573-0.888c-0.087-0.403-0.484-0.66-0.888-0.573l-0.545,0.117
		c-0.403,0.087-0.66,0.484-0.573,0.888C26.56,3.683,26.87,3.923,27.214,3.923z"/>
</g>
</svg>
