<?xml version="1.0" encoding="utf-8"?>
<!-- Generator: Adobe Illustrator 17.0.0, SVG Export Plug-In . SVG Version: 6.00 Build 0)  -->
<!DOCTYPE svg PUBLIC "-//W3C//DTD SVG 1.1//EN" "http://www.w3.org/Graphics/SVG/1.1/DTD/svg11.dtd">
<svg version="1.1" id="Camada_1" xmlns="http://www.w3.org/2000/svg" xmlns:xlink="http://www.w3.org/1999/xlink" x="0px" y="0px"
	 width="109.247px" height="46.257px" viewBox="0 0 109.247 46.257" enable-background="new 0 0 109.247 46.257"
	 xml:space="preserve">
<g id="BOTAO-inicio_x5F_trf5_3_">
	<g id="simbolo_x5F_trf5_3_">
		<g>
			<defs>
				<path id="SVGID_1_" d="M41.81,20.594l-1.251,1.189l-6.06,0.029c-4.543,0.625-6.919,3.001-7.128,7.128v5.374l-5.629,5.348V27.783
					c0.209-4.127,2.585-6.503,7.128-7.128L41.81,20.594z"/>
			</defs>
			<clipPath id="SVGID_2_">
				<use xlink:href="#SVGID_1_"  overflow="visible"/>
			</clipPath>
			
				<linearGradient id="SVGID_3_" gradientUnits="userSpaceOnUse" x1="-368.826" y1="319.5401" x2="-368.5995" y2="319.5401" gradientTransform="matrix(98.4564 75.4832 -73.9555 96.4637 59965.6367 -2962.2625)">
				<stop  offset="0" style="stop-color:#0F9939"/>
				<stop  offset="0.4" style="stop-color:#84C072"/>
				<stop  offset="1" style="stop-color:#FFFFFF"/>
			</linearGradient>
			<polygon clip-path="url(#SVGID_2_)" fill="url(#SVGID_3_)" points="12.535,32.603 34.381,49.351 51.017,27.652 29.171,10.904 			
				"/>
		</g>
		<g>
			<defs>
				<path id="SVGID_4_" d="M41.716,19.068l-5.244-4.982l-6.202-0.029c-4.543-0.625-6.919-3.001-7.128-7.128V1.42L21.648,0v11.878
					c0.209,4.126,2.585,6.503,7.128,7.128L41.716,19.068z"/>
			</defs>
			<clipPath id="SVGID_5_">
				<use xlink:href="#SVGID_4_"  overflow="visible"/>
			</clipPath>
			
				<linearGradient id="SVGID_6_" gradientUnits="userSpaceOnUse" x1="-369.9542" y1="318.8513" x2="-369.756" y2="318.8513" gradientTransform="matrix(-31.3157 102.4879 -101.8413 -31.1182 20921.6309 47837.2656)">
				<stop  offset="0" style="stop-color:#9A9999"/>
				<stop  offset="0.28" style="stop-color:#C6C5C6"/>
				<stop  offset="1" style="stop-color:#F2F2F2"/>
			</linearGradient>
			<polygon clip-path="url(#SVGID_5_)" fill="url(#SVGID_6_)" points="23.362,-5.608 16.319,17.44 40.002,24.676 47.045,1.628 			
				"/>
		</g>
		<g>
			<defs>
				<path id="SVGID_7_" d="M0,25.663l1.251-1.189l6.06-0.029c4.543-0.625,6.919-3.001,7.128-7.128v-5.374l5.629-5.348v11.878
					c-0.209,4.127-2.585,6.503-7.128,7.128L0,25.663z"/>
			</defs>
			<clipPath id="SVGID_8_">
				<use xlink:href="#SVGID_7_"  overflow="visible"/>
			</clipPath>
			
				<linearGradient id="SVGID_9_" gradientUnits="userSpaceOnUse" x1="-371.4267" y1="322.0024" x2="-371.2002" y2="322.0024" gradientTransform="matrix(-81.2549 -87.7552 87.7875 -81.2847 -58428.7617 -6394.7051)">
				<stop  offset="0" style="stop-color:#2B4899"/>
				<stop  offset="0.46" style="stop-color:#7A85C1"/>
				<stop  offset="1" style="stop-color:#FFFFFF"/>
			</linearGradient>
			<polygon clip-path="url(#SVGID_8_)" fill="url(#SVGID_9_)" points="29.574,16.862 10.805,-3.409 -9.506,15.397 9.263,35.667 			
				"/>
		</g>
		<g>
			<defs>
				<path id="SVGID_10_" d="M0.093,27.189l5.244,4.982l6.202,0.029c4.543,0.625,6.919,3.001,7.128,7.128v5.508l1.494,1.42V34.378
					c-0.209-4.126-2.585-6.503-7.128-7.128L0.093,27.189z"/>
			</defs>
			<clipPath id="SVGID_11_">
				<use xlink:href="#SVGID_10_"  overflow="visible"/>
			</clipPath>
			
				<linearGradient id="SVGID_12_" gradientUnits="userSpaceOnUse" x1="-370.9302" y1="318.4661" x2="-370.732" y2="318.4661" gradientTransform="matrix(-31.3154 102.4868 -101.8419 -31.1183 20830.5762 47952.1484)">
				<stop  offset="0" style="stop-color:#9A9999"/>
				<stop  offset="0.28" style="stop-color:#C6C5C6"/>
				<stop  offset="1" style="stop-color:#F2F2F2"/>
			</linearGradient>
			<polygon clip-path="url(#SVGID_11_)" fill="url(#SVGID_12_)" points="1.807,21.581 -5.235,44.628 18.448,51.865 25.49,28.817 			
				"/>
		</g>
	</g>
	<g id="escrito_x5F_trf5_3_">
		<path fill="#231F20" d="M56.967,18.608v17.077h-4.635V18.608h-6.501v-3.67h17.638v3.67H56.967z"/>
		<path fill="#231F20" d="M75.502,35.685l-2.146-5.941c-0.715-2.022-1.181-2.644-3.452-2.644h-1.68v8.585h-4.51V14.937h8.461
			c3.546,0,7.061,1.368,7.061,5.506c0,2.861-2.115,4.573-4.79,5.039c1.866,0.374,2.644,1.337,3.297,3.079l2.675,7.124H75.502z
			 M70.401,18.017h-2.209v6.003h2.084c2.115,0,4.324-0.653,4.324-3.11C74.6,18.483,72.641,18.017,70.401,18.017z"/>
		<path fill="#231F20" d="M85.547,18.11v5.692h8.305v3.142h-8.305v8.741h-4.604V14.937h13.282v3.173H85.547z"/>
		<path fill="#231F20" d="M100.444,36.027c-1.835,0-3.888-0.249-5.63-0.808L95,31.983c1.462,0.56,2.955,0.84,4.541,0.84
			c2.396,0,5.133-1.026,5.133-3.733c0-2.706-2.551-3.639-4.946-3.639c-1.369,0-2.769,0.217-4.386,0.685l0.218-11.198h12.691v3.08
			h-8.679l-0.155,5.194c0.746-0.217,1.555-0.28,2.333-0.28c3.888,0,7.497,1.586,7.497,6.096
			C109.247,33.88,104.767,36.027,100.444,36.027z"/>
	</g>
</g>
</svg>
