<svg xmlns="http://www.w3.org/2000/svg" viewBox="0 0 47.61 72.24"><defs><style>.cls-1{fill:none;stroke:#5877af;stroke-miterlimit:10;}.cls-2{font-size:13.52px;fill:#5776b0;font-family:Roboto-Bold, Roboto Bold;font-weight:700;}</style></defs><title>Asset 3</title><g id="Layer_2" data-name="Layer 2"><g id="Camada_1" data-name="Camada 1"><path class="cls-1" d="M17.15.5a1.57,1.57,0,0,0-1,.39L1,14a1.57,1.57,0,0,0-.15,2.21L18.53,36.49l.89,1,.91,1c-.72.08-1.49.18-2.25.32-2.79.52-4.57,1.42-4.88,2.47-.1.33-.23,1.6.61,6.13.52,2.78,1.34,6.38,2.42,10.69,1.48,5.88,3.07,11.51,3.65,13.57H31.7l1-19.31S31.3,39,31.14,37.51a23.41,23.41,0,0,1-.25-2.39l-.13-1.25v-.06a2.63,2.63,0,1,0-5.27,0v1.5c0,4.72,0,9.44,0,14.16a1.14,1.14,0,0,1-1.57,1,4.66,4.66,0,0,1-2.62-2.68A3.24,3.24,0,0,1,22,44.94l0-.06,1.16-1.33,0-4.3-.75-.86-.94-1.08-.93-1.06-18.32-21,14.94-13,2.14,2.45L21,4.11,18.34,1A1.57,1.57,0,0,0,17.15.5Zm0,0"/><path class="cls-1" d="M33.47,39.43l.66,6.25h.06a3,3,0,0,0,2.41-1.06,3.57,3.57,0,0,0,.81-2.23,3.14,3.14,0,0,0-3.21-3Zm0,0"/><path class="cls-1" d="M47.08,32.3,37.25,1.45A.73.73,0,0,0,36.33,1L22.2,5.48l-.86.28L20.47,6l-3.21,1a.73.73,0,0,0-.48.92l6.81,21.37.5,1.56q.15-.2.31-.39a5,5,0,0,1,3.73-1.68,4.59,4.59,0,0,1,3.19,1.25,4.84,4.84,0,0,1,1.08,1.52,5.15,5.15,0,0,1,.3.84,5.41,5.41,0,0,1,.16,1c0,.11,0,.22,0,.33l.39,3.73.71-.22,1.09-.35L46.6,33.22a.73.73,0,0,0,.48-.92Zm0,0"/><text class="cls-2" transform="matrix(0.95, -0.31, 0.31, 0.95, 30.21, 24.27)">$</text></g></g></svg>