<svg xmlns="http://www.w3.org/2000/svg" viewBox="0 0 89.83 43.45"><defs><style>.cls-1{fill:none;stroke:#fff;stroke-linecap:round;stroke-linejoin:round;}</style></defs><title>Ativo 2</title><g id="Camada_2" data-name="Camada 2"><g id="Camada_1-2" data-name="Camada 1"><path class="cls-1" d="M88.36,18.92A4.71,4.71,0,0,0,85.12,17L68.56,15l-15-12.62A8.17,8.17,0,0,0,48.31.5h-24a6,6,0,0,0-5,2.75L12.41,14.07,4.22,16.53A5.26,5.26,0,0,0,.56,22.35l1.2,7.76A7,7,0,0,0,8.7,36h9.59a8.19,8.19,0,0,0,16.17,0h26.7a8.19,8.19,0,0,0,16.17,0h4.92a5.68,5.68,0,0,0,5.65-4.83l1.36-8.67A4.73,4.73,0,0,0,88.36,18.92Zm-62,21.51A5.65,5.65,0,1,1,32,34.77,5.65,5.65,0,0,1,26.38,40.42Zm42.88,0a5.65,5.65,0,0,1-5.64-5.57s0-.05,0-.08,0-.06,0-.08a5.64,5.64,0,0,1,11.29,0s0,.06,0,.08,0,.06,0,.08A5.65,5.65,0,0,1,69.26,40.42Z"/><line class="cls-1" x1="54.28" y1="15.95" x2="25.13" y2="15.95"/></g></g></svg>