<svg xmlns="http://www.w3.org/2000/svg" viewBox="0 0 62.85 58.9"><defs><style>.cls-1{fill:none;stroke:#fff;stroke-miterlimit:10;}</style></defs><title>Ativo 1</title><g id="Camada_2" data-name="Camada 2"><g id="Camada_1-2" data-name="Camada 1"><path class="cls-1" d="M54.75,51.16H12.64l-.09,0-.1,0L6.14,53.87a1,1,0,0,0,0,1.82l6.31,2.63.19.06H54.75a2.57,2.57,0,0,0,2.57-2.57v-2.1a2.57,2.57,0,0,0-2.57-2.57Zm-40.92,2H47v3.29H13.82Zm35.2,0h2v3.29H49Zm-37.17.49v2.3L9.09,54.78Zm43.49,2.2a.6.6,0,0,1-.59.59H53V53.14h1.78a.6.6,0,0,1,.59.59Zm0,0"/><path class="cls-1" d="M62.18,35.59v0l0-.06h0l0-.07h0l0-.08h0l0-.08v0s0,0,0-.07,0-.07,0-.1V1.49a1,1,0,0,0-1-1H1.49a1,1,0,0,0-1,1v45.4a1,1,0,0,0,1,1H49.71l.08,0h0l.08,0h0l.07,0h0l.06,0h0l.06,0h0l.07-.06L62.06,35.74l.06-.07v0l0-.06ZM59,36,50.5,44.5V36Zm0,0"/><path class="cls-1" d="M45.57,40.63H40.63V16.19H55.11V31.09a1,1,0,1,0,2,0V6.75a1,1,0,0,0-1-1H14.65m-3.95,0H6.75a1,1,0,0,0-1,1V41.62a1,1,0,0,0,1,1H45.57m-6.91-2H24.19V16.19H38.66ZM7.74,16.19H22.21V40.63H7.74Zm0,0"/></g></g></svg>