<svg xmlns="http://www.w3.org/2000/svg" viewBox="0 0 53.32 41.98"><defs><style>.cls-1{fill:none;stroke:#5776b0;stroke-miterlimit:10;}.cls-2{fill:#5776b0;}</style></defs><title>Asset 7</title><g id="Layer_2" data-name="Layer 2"><g id="Camada_1" data-name="Camada 1"><line class="cls-1" x1="9.1" y1="11.01" x2="34.33" y2="11.01"/><polygon class="cls-1" points="43.18 34.98 9.96 34.98 0.5 34.98 0.5 0.5 43.18 0.5 43.18 34.98"/><polyline class="cls-1" points="43.18 7 52.82 7 52.82 41.48 10.14 41.48 10.14 34.98"/><path class="cls-2" d="M11.66,22.45A39.51,39.51,0,0,0,17.4,16l-.84-.23-.26,5.45a.45.45,0,0,0,.68.39c.54-.32,2.29-1.82,3.07-1.64.22.05.34.83.58,1a7.83,7.83,0,0,0,2.72,2.08,3.74,3.74,0,0,0,2.27.13c2.27-.75-.43-.32,1.57-1.28,1.41-.68,2.76-.34,4.18-.1.57.1.81-.77.24-.87-1.06-.18-2.46-.86-3.55-.63-.29.06-.59.29-.86.35l-.65.61q-4.84,1.89-5.87-2.5a.45.45,0,0,0-.66-.27c-.65.46-1.95,1.83-2.75,1.33-.31-.19.18-3.77.19-4.09,0-.48-.6-.56-.84-.23A38.46,38.46,0,0,1,11,21.81c-.43.39.21,1,.64.64Z"/></g></g></svg>