<?xml version="1.0" encoding="utf-8"?>
<!-- Generator: Adobe Illustrator 18.0.0, SVG Export Plug-In . SVG Version: 6.00 Build 0)  -->
<!DOCTYPE svg PUBLIC "-//W3C//DTD SVG 1.1//EN" "http://www.w3.org/Graphics/SVG/1.1/DTD/svg11.dtd">
<svg version="1.1" id="Camada_1" xmlns="http://www.w3.org/2000/svg" xmlns:xlink="http://www.w3.org/1999/xlink" x="0px" y="0px"
	 viewBox="0 0 17.6 17.7" enable-background="new 0 0 17.6 17.7" xml:space="preserve">
<g>
	<path fill="#5776B0" d="M0,15c0-3.3,0-6.7,0-10c0.9,0,1.8,0,2.7,0c0-1.7,0-3.3,0-5C6.8,0,10.9,0,15,0c0,1.7,0,3.3,0,5
		c0.9,0,1.7,0,2.6,0c0,3.3,0,6.7,0,10c-0.6,0-1.2,0-1.8,0c0,0.3,0,0.6,0,0.9c-0.3,0-0.6,0-0.8,0c0,0.6,0,1.2,0,1.8
		c-4.1,0-8.2,0-12.4,0c0-0.6,0-1.2,0-1.8c-0.3,0-0.6,0-0.9,0c0-0.3,0-0.6,0-0.8C1.1,15,0.6,15,0,15z M17,5.6c-5.5,0-10.9,0-16.3,0
		c0,1.6,0,3.1,0,4.6c5.4,0,10.9,0,16.3,0C17,8.7,17,7.2,17,5.6z M3.3,17c3.7,0,7.4,0,11.1,0c0-2,0-4.1,0-6.1c-3.7,0-7.4,0-11.1,0
		C3.3,13,3.3,15,3.3,17z M3.3,5C7,5,10.7,5,14.4,5c0-1.5,0-2.9,0-4.3c-3.7,0-7.4,0-11.1,0C3.3,2.1,3.3,3.5,3.3,5z M1.8,14.4
		c0-0.4,0-0.7,0-1.1c0-0.2,0.1-0.4,0.3-0.4c0.2,0,0.3,0.1,0.3,0.4c0,0.6,0,1.2,0,1.8c0,0,0,0.1,0,0.1c0.1,0,0.2,0,0.2,0
		c0-1.4,0-2.9,0-4.3c-0.7,0-1.3,0-2,0c0,1.1,0,2.3,0,3.4C1,14.4,1.4,14.4,1.8,14.4z M17,10.9c-0.7,0-1.3,0-2,0c0,1.4,0,2.8,0,4.1
		c0,0.2,0.1,0.2,0.2,0.1c0-0.6,0-1.3,0-1.9c0-0.3,0.1-0.4,0.3-0.4c0.2,0,0.3,0.2,0.3,0.4c0,0.4,0,0.7,0,1.1c0.4,0,0.7,0,1.1,0
		C17,13.2,17,12.1,17,10.9z"/>
	<path fill="#5776B0" d="M14.7,9.4c-1,0-1.5-0.7-1.5-1.5c0-0.8,0.5-1.5,1.5-1.5c0.9,0,1.5,0.7,1.5,1.5C16.2,8.8,15.6,9.4,14.7,9.4z
		 M13.8,8c0,0.5,0.4,0.8,0.8,0.8c0.5,0,0.8-0.4,0.9-0.8c0-0.5-0.5-0.9-0.8-0.9C14.2,7.1,13.8,7.5,13.8,8z"/>
	<path fill="#5776B0" d="M8.9,12.6c1.1,0,2.3,0,3.4,0c0.2,0,0.4,0,0.4,0.3c0,0.2-0.1,0.3-0.4,0.3c-2.3,0-4.6,0-6.9,0
		c-0.2,0-0.4,0-0.4-0.3c0-0.2,0.1-0.3,0.4-0.3C6.5,12.6,7.7,12.6,8.9,12.6z"/>
	<path fill="#5776B0" d="M8.8,14.7c-1.1,0-2.3,0-3.4,0c-0.2,0-0.4,0-0.4-0.3c0-0.2,0.1-0.3,0.4-0.3c0.9,0,1.7,0,2.6,0
		c1.4,0,2.8,0,4.2,0c0.2,0,0.4,0,0.4,0.3c0,0.3,0,0.4-0.3,0.4C11.1,14.7,10,14.7,8.8,14.7z"/>
</g>
</svg>
