<?xml version="1.0" encoding="utf-8"?>
<!-- Generator: Adobe Illustrator 17.0.0, SVG Export Plug-In . SVG Version: 6.00 Build 0)  -->
<!DOCTYPE svg PUBLIC "-//W3C//DTD SVG 1.1//EN" "http://www.w3.org/Graphics/SVG/1.1/DTD/svg11.dtd">
<svg version="1.1" id="Camada_1" xmlns="http://www.w3.org/2000/svg" xmlns:xlink="http://www.w3.org/1999/xlink" x="0px" y="0px"
	 width="30.886px" height="32.029px" viewBox="0 0 30.886 32.029" enable-background="new 0 0 30.886 32.029" xml:space="preserve">
<g>
	<path fill="none" stroke="#FFFFFF" stroke-width="0.5" stroke-miterlimit="10" d="M17.515,31.779H0.703
		c-0.25,0-0.453-0.203-0.453-0.453v-3.532c0-1.32,1.074-2.395,2.395-2.395h12.928c1.32,0,2.395,1.074,2.395,2.395v3.532
		C17.967,31.577,17.765,31.779,17.515,31.779z"/>
	<path fill="none" stroke="#FFFFFF" stroke-width="0.5" stroke-miterlimit="10" d="M30.059,25.244L30.059,25.244L16.262,11.447
		l2.049-2.049c0.216,0.095,0.449,0.143,0.681,0.143c0.434,0,0.867-0.165,1.197-0.495c0.66-0.66,0.66-1.735,0-2.395l-5.905-5.905
		c-0.32-0.32-0.745-0.496-1.197-0.496s-0.878,0.176-1.197,0.496c-0.32,0.32-0.496,0.745-0.496,1.197c0,0.239,0.049,0.47,0.143,0.682
		L4.647,9.516c-0.62-0.272-1.371-0.154-1.878,0.353c-0.32,0.32-0.496,0.745-0.496,1.197c0,0.452,0.176,0.878,0.496,1.197
		l5.905,5.905c0.33,0.33,0.764,0.495,1.197,0.495c0.434,0,0.867-0.165,1.197-0.495c0.32-0.32,0.496-0.745,0.496-1.197
		c0-0.239-0.05-0.47-0.143-0.682l2.049-2.049l13.797,13.797c0.385,0.385,0.891,0.577,1.396,0.577c0.506,0,1.011-0.193,1.397-0.578
		C30.829,27.267,30.829,26.014,30.059,25.244z"/>
</g>
</svg>
