<?xml version="1.0" encoding="utf-8"?>
<!-- Generator: Adobe Illustrator 17.0.0, SVG Export Plug-In . SVG Version: 6.00 Build 0)  -->
<!DOCTYPE svg PUBLIC "-//W3C//DTD SVG 1.1//EN" "http://www.w3.org/Graphics/SVG/1.1/DTD/svg11.dtd">
<svg version="1.1" id="Camada_1" xmlns="http://www.w3.org/2000/svg" xmlns:xlink="http://www.w3.org/1999/xlink" x="0px" y="0px"
	 width="18.727px" height="18.727px" viewBox="0 0 18.727 18.727" enable-background="new 0 0 18.727 18.727" xml:space="preserve">
<path id="BOTAO-traducao_2_" fill="#5877B1" d="M9.364,0C4.192,0,0,4.192,0,9.364s4.192,9.364,9.364,9.364s9.364-4.192,9.364-9.364
	S14.535,0,9.364,0z M3.103,11.207c-0.034,0.009-0.065,0.012-0.1,0.012c-0.19,0-0.361-0.128-0.407-0.32
	C1.998,8.435,2.795,5.848,4.673,4.146C6.039,2.908,7.808,2.277,9.65,2.37c1.487,0.075,2.877,0.61,4.006,1.533l-0.065-1.72
	c-0.009-0.233,0.171-0.426,0.404-0.435c0.23-0.009,0.426,0.171,0.435,0.404l0.103,2.743v0.05c0,0.227-0.177,0.411-0.404,0.42
	l-2.775,0.103h-0.015c-0.224,0-0.411-0.177-0.42-0.404c-0.009-0.233,0.171-0.426,0.404-0.435L13.13,4.56
	c-2.28-1.857-5.645-1.826-7.894,0.208C3.585,6.261,2.888,8.535,3.41,10.7C3.466,10.924,3.326,11.151,3.103,11.207z M6.934,8.007
	v-1.23h4.859v1.23h-1.748v4.849H8.69V8.007H6.934z M14.054,14.581c-1.281,1.157-2.911,1.785-4.625,1.785
	c-0.115,0-0.233-0.003-0.351-0.009c-1.478-0.075-2.861-0.607-3.991-1.521l0.149,1.683c0.022,0.233-0.149,0.435-0.379,0.457
	c-0.012,0.003-0.025,0.003-0.037,0.003c-0.215,0-0.398-0.165-0.417-0.383l-0.249-2.765c-0.022-0.233,0.149-0.435,0.38-0.457
	l2.765-0.249c0.233-0.022,0.435,0.146,0.457,0.38c0.022,0.233-0.149,0.435-0.379,0.457l-1.829,0.165
	c1.114,0.927,2.495,1.396,3.879,1.396c1.449,0,2.905-0.516,4.065-1.564c1.652-1.493,2.351-3.767,1.826-5.931
	c-0.056-0.224,0.084-0.451,0.308-0.507c0.224-0.056,0.451,0.084,0.507,0.308C16.729,10.295,15.933,12.88,14.054,14.581z"/>
</svg>
