<svg xmlns="http://www.w3.org/2000/svg" viewBox="0 0 56.1 56.1"><defs><style>.cls-1{fill:none;stroke:#5776b0;stroke-linecap:round;stroke-linejoin:round;}</style></defs><title>Ativo 6</title><g id="Camada_2" data-name="Camada 2"><g id="Layer_1" data-name="Layer 1"><path class="cls-1" d="M54.69,27.13H52.82A24.81,24.81,0,0,0,29,3.28V1.42a.92.92,0,1,0-1.84,0V3.28A24.81,24.81,0,0,0,3.28,27.13H1.42a.92.92,0,0,0,0,1.84H3.28A24.81,24.81,0,0,0,27.13,52.82v1.86a.92.92,0,1,0,1.84,0V52.82A24.81,24.81,0,0,0,52.82,29h1.86a.92.92,0,1,0,0-1.84ZM29,51"/><path class="cls-1" d="M39.08,27.13H34.41A6.43,6.43,0,0,0,29,21.7V17a.92.92,0,0,0-1.84,0V21.7a6.43,6.43,0,0,0-5.43,5.43H17A.92.92,0,0,0,17,29H21.7a6.43,6.43,0,0,0,5.43,5.43v4.67a.92.92,0,0,0,1.84,0V34.41A6.43,6.43,0,0,0,34.41,29h4.67a.92.92,0,0,0,0-1.84Zm-11,5.51"/></g></g></svg>