<svg xmlns="http://www.w3.org/2000/svg" viewBox="0 0 187.66 46.53"><defs><style>.cls-1{font-size:20px;fill:#fff;font-family:Roboto-Light, Roboto;}.cls-2{letter-spacing:0.01em;}.cls-3{letter-spacing:-0.01em;}.cls-4{letter-spacing:-0.01em;}.cls-5{letter-spacing:-0.04em;}.cls-6{letter-spacing:-0.01em;}.cls-7{fill:none;stroke:#fff;stroke-miterlimit:10;}</style></defs><title>Asset 1</title><g id="Layer_2" data-name="Layer 2"><g id="Layer_1-2" data-name="Layer 1"><text class="cls-1" transform="translate(65.96 17.11)"><tspan class="cls-2">M</tspan><tspan x="17.51" y="0">AN</tspan><tspan class="cls-3" x="44.2" y="0">U</tspan><tspan x="57.4" y="0">AIS DE </tspan><tspan x="0" y="24">ORIE</tspan><tspan class="cls-4" x="43.55" y="24">N</tspan><tspan class="cls-5" x="57.47" y="24">T</tspan><tspan class="cls-6" x="68.54" y="24">A</tspan><tspan x="80.93" y="24">Ç</tspan><tspan class="cls-6" x="93.75" y="24">Ã</tspan><tspan x="106.13" y="24">O</tspan></text><path class="cls-7" d="M29.63,35.33a.88.88,0,0,0,.89-.88v-30a2.65,2.65,0,0,0-2.65-2.65H3.15A2.65,2.65,0,0,0,.5,4.43V38A4.42,4.42,0,0,0,4.91,42.4H29.63a.89.89,0,1,0,0-1.77,2.65,2.65,0,0,1,0-5.3Zm-3.52,5.3H4.91a2.65,2.65,0,0,1,0-5.3h21.2a4.39,4.39,0,0,0,0,5.3Z"/></g></g></svg>