<?xml version="1.0" encoding="utf-8"?>
<!-- Generator: Adobe Illustrator 17.0.0, SVG Export Plug-In . SVG Version: 6.00 Build 0)  -->
<!DOCTYPE svg PUBLIC "-//W3C//DTD SVG 1.1//EN" "http://www.w3.org/Graphics/SVG/1.1/DTD/svg11.dtd">
<svg version="1.1" id="Camada_1" xmlns="http://www.w3.org/2000/svg" xmlns:xlink="http://www.w3.org/1999/xlink" x="0px" y="0px"
	 width="63.728px" height="53.358px" viewBox="0 0 63.728 53.358" enable-background="new 0 0 63.728 53.358" xml:space="preserve">
<g>
	<g>
		<text transform="matrix(1 0 0 1 14.1188 28.8321)" fill="#FFFFFF" font-family="'Roboto-Light'" font-size="23.0682">PJe</text>
	</g>
	<path fill="none" stroke="#FFFFFF" stroke-miterlimit="10" d="M59.823,0.593V0.5H3.876v0.092C2.067,0.718,0.715,2.156,0.5,3.904
		v36.77c0,0.706,0.186,1.301,0.493,1.838c0.706,1.243,1.748,1.873,3.19,1.873h20.194v5.093h-3.837c-0.953,0-1.687,0.741-1.687,1.688
		c0,0.949,0.735,1.692,1.687,1.692h22.618c0.949,0,1.717-0.742,1.717-1.692c0-0.946-0.768-1.688-1.717-1.688h-3.836v-5.093h20.19
		c1.445,0,2.497-0.63,3.194-1.873c0.316-0.563,0.52-1.167,0.52-1.838V3.904C63.014,2.156,61.572,0.718,59.823,0.593L59.823,0.593z
		 M59.823,4.211v36.463c0,0.214-0.092,0.307-0.31,0.307H4.183c-0.214,0-0.307-0.092-0.307-0.307V3.904h55.947V4.211z M59.823,4.211"
		/>
</g>
</svg>
