<svg xmlns="http://www.w3.org/2000/svg" viewBox="0 0 71.88 68.33"><defs><style>.cls-1{fill:none;stroke:#fff;stroke-miterlimit:10;}</style></defs><title>Ativo 4</title><g id="Camada_2" data-name="Camada 2"><g id="Camada_1-2" data-name="Camada 1"><path class="cls-1" d="M71.38,67.83V12.31a1.18,1.18,0,0,0-1.18-1.18h-13V1.68A1.18,1.18,0,0,0,56,.5H15.86a1.18,1.18,0,0,0-1.18,1.18V18.22h-13A1.18,1.18,0,0,0,.5,19.4V67.83m34.26,0H30V57.2h4.73Zm7.09,0H37.12V57.2h4.73Zm13,0H44.21V56A1.18,1.18,0,0,0,43,54.84H28.85A1.18,1.18,0,0,0,27.67,56V67.83H17v-65h37.8Z"/><path class="cls-1" d="M21.76,7.59h4.73v4.73H21.76Z"/><path class="cls-1" d="M33.58,7.59H38.3v4.73H33.58Z"/><path class="cls-1" d="M45.39,7.59h4.73v4.73H45.39Z"/><path class="cls-1" d="M21.76,19.4h4.73v4.73H21.76Z"/><path class="cls-1" d="M33.58,19.4H38.3v4.73H33.58Z"/><path class="cls-1" d="M45.39,19.4h4.73v4.73H45.39Z"/><path class="cls-1" d="M21.76,31.21h4.73v4.73H21.76Z"/><path class="cls-1" d="M33.58,31.21H38.3v4.73H33.58Z"/><path class="cls-1" d="M45.39,31.21h4.73v4.73H45.39Z"/><path class="cls-1" d="M21.76,43h4.73v4.73H21.76Z"/><path class="cls-1" d="M33.58,43H38.3v4.73H33.58Z"/><path class="cls-1" d="M45.39,43h4.73v4.73H45.39Z"/><rect class="cls-1" x="5.23" y="22.94" width="3.54" height="3.54" rx="1.18" ry="1.18"/><rect class="cls-1" x="9.95" y="22.94" width="3.54" height="3.54" rx="1.18" ry="1.18"/><rect class="cls-1" x="5.23" y="27.67" width="3.54" height="3.54" rx="1.18" ry="1.18"/><rect class="cls-1" x="9.95" y="27.67" width="3.54" height="3.54" rx="1.18" ry="1.18"/><rect class="cls-1" x="5.23" y="32.39" width="3.54" height="3.54" rx="1.18" ry="1.18"/><rect class="cls-1" x="9.95" y="32.39" width="3.54" height="3.54" rx="1.18" ry="1.18"/><rect class="cls-1" x="5.23" y="37.12" width="3.54" height="3.54" rx="1.18" ry="1.18"/><rect class="cls-1" x="9.95" y="37.12" width="3.54" height="3.54" rx="1.18" ry="1.18"/><rect class="cls-1" x="5.23" y="41.85" width="3.54" height="3.54" rx="1.18" ry="1.18"/><rect class="cls-1" x="9.95" y="41.85" width="3.54" height="3.54" rx="1.18" ry="1.18"/><rect class="cls-1" x="5.23" y="46.57" width="3.54" height="3.54" rx="1.18" ry="1.18"/><rect class="cls-1" x="9.95" y="46.57" width="3.54" height="3.54" rx="1.18" ry="1.18"/><rect class="cls-1" x="5.23" y="51.3" width="3.54" height="3.54" rx="1.18" ry="1.18"/><rect class="cls-1" x="9.95" y="51.3" width="3.54" height="3.54" rx="1.18" ry="1.18"/><rect class="cls-1" x="5.23" y="56.02" width="3.54" height="3.54" rx="1.18" ry="1.18"/><rect class="cls-1" x="9.95" y="56.02" width="3.54" height="3.54" rx="1.18" ry="1.18"/><rect class="cls-1" x="5.23" y="60.75" width="3.54" height="3.54" rx="1.18" ry="1.18"/><rect class="cls-1" x="9.95" y="60.75" width="3.54" height="3.54" rx="1.18" ry="1.18"/><path class="cls-1" d="M60.75,22.94h4.73a1.18,1.18,0,0,0,1.18-1.18V17a1.18,1.18,0,0,0-1.18-1.18H60.75A1.18,1.18,0,0,0,59.56,17v4.73A1.18,1.18,0,0,0,60.75,22.94Z"/><path class="cls-1" d="M59.56,31.21a1.18,1.18,0,0,0,1.18,1.18h4.73a1.18,1.18,0,0,0,1.18-1.18V26.49a1.18,1.18,0,0,0-1.18-1.18H60.75a1.18,1.18,0,0,0-1.18,1.18Z"/><path class="cls-1" d="M59.56,40.66a1.18,1.18,0,0,0,1.18,1.18h4.73a1.18,1.18,0,0,0,1.18-1.18V35.94a1.18,1.18,0,0,0-1.18-1.18H60.75a1.18,1.18,0,0,0-1.18,1.18Z"/><path class="cls-1" d="M59.56,50.11a1.18,1.18,0,0,0,1.18,1.18h4.73a1.18,1.18,0,0,0,1.18-1.18V45.39a1.18,1.18,0,0,0-1.18-1.18H60.75a1.18,1.18,0,0,0-1.18,1.18Z"/><path class="cls-1" d="M59.56,59.56a1.18,1.18,0,0,0,1.18,1.18h4.73a1.18,1.18,0,0,0,1.18-1.18V54.84a1.18,1.18,0,0,0-1.18-1.18H60.75a1.18,1.18,0,0,0-1.18,1.18Z"/></g></g></svg>