<?xml version="1.0" encoding="utf-8"?>
<!-- Generator: Adobe Illustrator 17.0.0, SVG Export Plug-In . SVG Version: 6.00 Build 0)  -->
<!DOCTYPE svg PUBLIC "-//W3C//DTD SVG 1.1//EN" "http://www.w3.org/Graphics/SVG/1.1/DTD/svg11.dtd">
<svg version="1.1" id="Camada_1" xmlns="http://www.w3.org/2000/svg" xmlns:xlink="http://www.w3.org/1999/xlink" x="0px" y="0px"
	 width="61.22px" height="43.507px" viewBox="0 0 61.22 43.507" enable-background="new 0 0 61.22 43.507" xml:space="preserve">
<g>
	<g>
		<path fill="none" stroke="#fff" stroke-linecap="round" stroke-linejoin="round" stroke-miterlimit="10" d="M60.72,1.34v29.302
			c0,0.464-0.376,0.84-0.84,0.84h-0.843v4.805c0,0.237-0.1,0.463-0.276,0.622c-0.155,0.14-0.357,0.218-0.564,0.218
			c-0.027,0-0.055-0.002-0.083-0.004L55.67,36.88v5.287c0,0.254-0.115,0.494-0.312,0.654c-0.15,0.122-0.337,0.186-0.528,0.186
			c-0.059,0-0.118-0.007-0.177-0.019L1.173,31.465c-0.002,0-0.003-0.001-0.004-0.001l-0.005-0.001
			c-0.013-0.003-0.025-0.007-0.037-0.01c-0.01-0.003-0.02-0.005-0.029-0.008c-0.011-0.003-0.023-0.008-0.034-0.011
			c-0.004-0.002-0.009-0.003-0.012-0.004c-0.009-0.003-0.017-0.005-0.025-0.009c-0.002-0.001-0.004-0.002-0.006-0.002
			c-0.01-0.004-0.02-0.009-0.03-0.014c-0.01-0.005-0.021-0.009-0.032-0.015c-0.002-0.001-0.005-0.003-0.008-0.004
			c0,0-0.001,0-0.001-0.001C0.94,31.38,0.93,31.375,0.921,31.369c-0.009-0.005-0.019-0.01-0.028-0.016
			c-0.004-0.003-0.008-0.005-0.012-0.008c-0.008-0.005-0.017-0.011-0.025-0.017c-0.008-0.005-0.016-0.011-0.024-0.017
			c-0.005-0.004-0.01-0.008-0.016-0.013c-0.007-0.005-0.014-0.011-0.021-0.017c-0.007-0.006-0.013-0.011-0.02-0.017
			c-0.007-0.005-0.013-0.011-0.019-0.017c-0.006-0.006-0.012-0.011-0.018-0.017c-0.005-0.005-0.011-0.011-0.016-0.016
			c-0.006-0.008-0.014-0.015-0.02-0.023c-0.005-0.006-0.01-0.011-0.015-0.017c-0.004-0.005-0.008-0.01-0.011-0.015
			c-0.007-0.009-0.013-0.018-0.02-0.026c-0.004-0.006-0.009-0.012-0.013-0.018c-0.004-0.005-0.007-0.01-0.01-0.015
			c-0.006-0.009-0.012-0.019-0.018-0.028c-0.004-0.007-0.008-0.014-0.012-0.021c-0.004-0.007-0.007-0.013-0.01-0.019
			c-0.004-0.008-0.008-0.017-0.013-0.025c-0.004-0.008-0.007-0.016-0.011-0.024c-0.003-0.008-0.007-0.015-0.01-0.023
			c-0.003-0.007-0.005-0.014-0.008-0.021c-0.003-0.009-0.007-0.019-0.01-0.028c-0.003-0.009-0.005-0.017-0.008-0.026
			c-0.002-0.005-0.003-0.011-0.005-0.017c-0.003-0.011-0.005-0.023-0.008-0.033c-0.002-0.009-0.004-0.018-0.007-0.027
			c-0.001-0.004-0.001-0.008-0.002-0.012c-0.002-0.014-0.004-0.029-0.006-0.043c-0.001-0.009-0.003-0.017-0.003-0.026
			c-0.001-0.002-0.001-0.004-0.001-0.006C0.501,30.693,0.5,30.668,0.5,30.642V1.34c0-0.464,0.376-0.84,0.84-0.84h58.54
			C60.344,0.5,60.72,0.876,60.72,1.34L60.72,1.34z M51.163,29.802c0.398-4.16,3.717-7.479,7.877-7.877V10.057
			c-4.16-0.398-7.479-3.717-7.877-7.877H10.057C9.659,6.34,6.34,9.659,2.18,10.057v11.868c4.16,0.398,7.479,3.717,7.877,7.877
			H51.163z M8.366,29.802C7.982,26.569,5.413,24,2.18,23.616v6.186H8.366z M8.366,2.18H2.18v6.186
			C5.413,7.982,7.982,5.413,8.366,2.18L8.366,2.18z M59.04,2.18h-6.186c0.384,3.233,2.954,5.802,6.186,6.186V2.18z M53.99,36.713
			l-37.988-3.772l37.988,8.185V36.713z M57.357,31.482H18.302l39.055,3.878V31.482z M59.04,29.802v-6.186
			c-3.233,0.384-5.803,2.954-6.186,6.186h5.341c0.001,0,0.002,0,0.002,0c0.001,0,0.002,0,0.002,0H59.04z M39.387,9.396
			 M37.843,6.886c-1.878-1.321-4.088-2.019-6.391-2.019c-6.133,0-11.123,4.99-11.123,11.124c0,6.133,4.99,11.124,11.123,11.124
			c6.134,0,11.124-4.99,11.124-11.124c0-2.303-0.698-4.513-2.018-6.391 M39.387,9.396"/>
	</g>
	<text transform="matrix(1 0 0 1 27.075 21.7541)" fill="#fff" font-family="'Roboto-Bold'" font-size="15.3694">$</text>
</g>
</svg>
