<svg xmlns="http://www.w3.org/2000/svg" viewBox="0 0 72.3 73.77"><defs><style>.cls-1{fill:none;stroke:#5776b0;stroke-miterlimit:10;}</style></defs><title>Ativo 3</title><g id="Camada_2" data-name="Camada 2"><g id="Camada_1-2" data-name="Camada 1"><path class="cls-1" d="M21.55,33.53V.5H.5v46H15.78M7.39,30a1.45,1.45,0,0,1-1.48,1.1,1.61,1.61,0,1,1,0-3.22,1.48,1.48,0,0,1,1.51,1.2.67.67,0,0,1,.1.41.72.72,0,0,1-.13.51ZM11,39.67a3,3,0,1,1,3-3,3,3,0,0,1-3,3ZM9.43,29.33A1.66,1.66,0,0,1,11,27.72a1.49,1.49,0,0,1,1.51,1.2,1,1,0,0,1,0,.92A1.45,1.45,0,0,1,11,30.93a1.67,1.67,0,0,1-1.61-1.6Zm8.35.5a1.44,1.44,0,0,1-1.47,1.1,1.61,1.61,0,1,1,0-3.22,1.47,1.47,0,0,1,1.5,1.2,1,1,0,0,1,0,.92Zm-.88-7.74H5.31a1.25,1.25,0,0,1,0-2.5H16.9a1.25,1.25,0,0,1,0,2.5ZM17,17.58H5.45a1.24,1.24,0,0,1,0-2.49H17a1.24,1.24,0,0,1,0,2.49Zm0-4.8H5.45a1.24,1.24,0,0,1,0-2.49H17a1.24,1.24,0,0,1,0,2.49ZM17,8.2H5.45a1.25,1.25,0,0,1,0-2.5H17a1.25,1.25,0,0,1,0,2.5Zm0,0"/><path class="cls-1" d="M71.8,69.09V33.53H16.31V69.09H39v2.29H27.12v1.89H60.27V71.38H48.69V69.09ZM20.37,63.85V37.59H67.74V63.85Zm0,0"/></g></g></svg>