<?xml version="1.0" encoding="utf-8"?>
<!-- Generator: Adobe Illustrator 18.0.0, SVG Export Plug-In . SVG Version: 6.00 Build 0)  -->
<!DOCTYPE svg PUBLIC "-//W3C//DTD SVG 1.1//EN" "http://www.w3.org/Graphics/SVG/1.1/DTD/svg11.dtd">
<svg version="1.1" id="Camada_1" xmlns="http://www.w3.org/2000/svg" xmlns:xlink="http://www.w3.org/1999/xlink" x="0px" y="0px"
	 viewBox="0 0 64 50.8" enable-background="new 0 0 64 50.8" xml:space="preserve">
<g>
	<g>
		<path fill="#FFFFFF" d="M29.9,11.3c0-0.6,0.2-1,0.6-1.4c0.4-0.4,0.9-0.6,1.6-0.6c0.3,0,0.6,0,0.9,0.1s0.5,0.2,0.7,0.4
			c0.2,0.2,0.3,0.4,0.4,0.6c0.1,0.2,0.2,0.5,0.2,0.8c0,0.3-0.1,0.6-0.2,0.8c-0.1,0.2-0.2,0.5-0.4,0.6c-0.2,0.2-0.4,0.3-0.7,0.4
			s-0.6,0.1-0.9,0.1c-0.3,0-0.6,0-0.9-0.1s-0.5-0.2-0.7-0.4s-0.3-0.4-0.4-0.6C29.9,11.9,29.9,11.6,29.9,11.3z M33.9,29.2h-3.8V15
			h3.8V29.2z"/>
	</g>
</g>
<polygon fill="none" stroke="#FFFFFF" stroke-miterlimit="10" points="63.5,37.5 17.9,37.5 7.1,49.4 7.4,37.5 0.5,37.5 0.5,0.5 
	63.5,0.5 "/>
</svg>
