<?xml version="1.0" encoding="utf-8"?>
<!-- Generator: Adobe Illustrator 18.0.0, SVG Export Plug-In . SVG Version: 6.00 Build 0)  -->
<!DOCTYPE svg PUBLIC "-//W3C//DTD SVG 1.1//EN" "http://www.w3.org/Graphics/SVG/1.1/DTD/svg11.dtd">
<svg version="1.1" id="Camada_1" xmlns="http://www.w3.org/2000/svg" xmlns:xlink="http://www.w3.org/1999/xlink" x="0px" y="0px"
	 viewBox="0 0 1920 1080" enable-background="new 0 0 1920 1080" xml:space="preserve">
<g>
	<path fill="none" stroke="#3AB186" stroke-width="1.5" stroke-miterlimit="10" d="M963.6,529.3l-3-2.3c-0.3-0.2-0.7-0.2-1,0
		l-2.5,1.9l-2.5-1.9c-0.3-0.2-0.7-0.2-1,0l-3,2.3"/>
	<path fill="none" stroke="#3AB186" stroke-width="1.5" stroke-miterlimit="10" d="M980.5,558.6v-31.8c0,0,0-0.1,0-0.1
		c0,0,0,0,0-0.1c0,0,0,0,0,0c0,0,0,0,0-0.1c0,0,0,0,0,0c0,0,0,0,0-0.1c0,0,0,0,0,0c0,0,0,0,0-0.1c0,0,0,0,0,0c0,0,0,0,0-0.1
		c0,0,0,0,0,0c0,0,0,0,0,0c0,0,0,0,0,0c0,0,0,0,0,0c0,0,0,0,0,0l-9.6-9.6c0,0,0,0,0,0c0,0,0,0,0,0c0,0,0,0,0,0c0,0,0,0,0,0
		c0,0,0,0,0,0c0,0,0,0-0.1,0c0,0,0,0,0,0c0,0,0,0-0.1,0c0,0,0,0,0,0c0,0,0,0-0.1,0c0,0,0,0,0,0c0,0,0,0-0.1,0c0,0,0,0,0,0
		c0,0,0,0-0.1,0c0,0-0.1,0-0.1,0h-35.5c-0.5,0-0.9,0.4-0.9,0.9v42.3c0,2.4,1.9,4.3,4.3,4.3h45.1c2.4,0,4.3-1.9,4.3-4.3v-37.7
		c0-0.5-0.4-0.9-0.9-0.9l0,0h-7 M983.1,560.3 M972.1,518.1l6.7,6.7h-6.7V518.1z M970.9,519.3"/>
	<path fill="none" stroke="#3AB186" stroke-width="1.5" stroke-miterlimit="10" d="M953.6,554.9L953.6,554.9h-12.3 M953.6,554.9"/>
	<path fill="none" stroke="#3AB186" stroke-width="1.5" stroke-miterlimit="10" d="M972.8,554.9L972.8,554.9h-12.3 M972.8,554.9"/>
	<path fill="none" stroke="#3AB186" stroke-width="1.5" stroke-miterlimit="10" d="M972.8,549.7L972.8,549.7h-12.3 M972.8,549.7"/>
	<path fill="none" stroke="#3AB186" stroke-width="1.5" stroke-miterlimit="10" d="M972.8,544.6L972.8,544.6h-12.3 M972.8,544.6"/>
	<path fill="none" stroke="#3AB186" stroke-width="1.5" stroke-miterlimit="10" d="M954.5,542.6v-2.3c0-0.5-0.4-0.9-0.9-0.9h-12.3
		c-0.5,0-0.9,0.4-0.9,0.9v10.3c0,0.5,0.4,0.9,0.9,0.9h12.3c0.5,0,0.9-0.4,0.9-0.9V546"/>
	<path fill="none" stroke="#3AB186" stroke-width="1.5" stroke-miterlimit="10" d="M972.8,539.4L972.8,539.4h-12.3 M972.8,539.4"/>
	<path fill="none" stroke="#3AB186" stroke-width="1.5" stroke-miterlimit="10" d="M972.8,534.3L972.8,534.3h-31.4 M972.8,534.3"/>
</g>
</svg>
