<svg xmlns="http://www.w3.org/2000/svg" viewBox="0 0 28.64 17.24"><defs><style>.cls-1{fill:none;stroke:#5776b0;stroke-miterlimit:10;stroke-width:0.8px;}</style></defs><title>p-aperto-maos</title><g id="Camada_2" data-name="Camada 2"><g id="Camada_1-2" data-name="Camada 1"><path class="cls-1" d="M3.1,10.51H.4V.43a19.23,19.23,0,0,1,5,.9A66.36,66.36,0,0,1,3.1,10.51Zm19.63,1a28.77,28.77,0,0,0-4.4-4C17.18,6.57,16.09,5.7,15.4,5a.63.63,0,0,0-.66-.15c-.43.15-.69.27-.9.37a2.09,2.09,0,0,1-.85.23.63.63,0,0,0-.46.28,1.93,1.93,0,0,1-2.44,1c-.2-.07-.23-.15-.25-.23-.13-.56.53-1.85,1.4-2.71,2.06-2.06,3.12-2.57,5.36-1.57s4.26,1.73,4.9,2c.74,1.81,1.75,4.61,2.4,6.56Zm5.51.24H25.55c-.6-2-2.37-7-3.36-9.15a20.62,20.62,0,0,1,6-1Zm-6.45,1.86a.71.71,0,0,1-.77.16c-.48-.39-2.47-2.43-3.71-3.72a.63.63,0,0,0-.91.88c.29.31,2.65,2.76,3.6,3.62a.87.87,0,0,1-.46.52,1,1,0,0,1-1,0h0l0,0c-.76-.61-2.66-2.63-3.09-3.1a.63.63,0,0,0-.93.86s1.88,2,2.93,3a1.22,1.22,0,0,1-.67.68.67.67,0,0,1-.73-.11h0c-.9-.76-2.75-2.73-3.11-3.11a.63.63,0,1,0-.92.86c.43.46,1.7,1.81,2.66,2.71l-.3,0a3.65,3.65,0,0,1-1.55-.53c-.44-.29-3.23-2.37-5.63-4.38-.34-.29-.92-.9-1.44-1.43s-.73-.76-1-1C5.26,7.77,6,5.1,6.45,2.92h3.88c-.86.87-2,2.61-1.73,3.89A1.57,1.57,0,0,0,9.69,7.95a3.17,3.17,0,0,0,3.72-1.27,3.2,3.2,0,0,0,1-.3l.44-.19c.72.68,1.7,1.47,2.73,2.3,1.86,1.5,4,3.21,4.44,4.2A.74.74,0,0,1,21.78,13.63Z"/></g></g></svg>