<svg xmlns="http://www.w3.org/2000/svg" viewBox="0 0 35.13 20.92"><defs><style>.cls-1{fill:none;stroke:#5776b0;stroke-miterlimit:10;}</style></defs><title>p-msn-men</title><g id="Camada_2" data-name="Camada 2"><g id="Camada_1-2" data-name="Camada 1"><path class="cls-1" d="M1.07,18.29h9v1.57a.57.57,0,0,0,.57.57H24.48a.57.57,0,0,0,.57-.57V18.29h9a.57.57,0,0,0,.57-.57v-3a5.3,5.3,0,0,0-5.27-5.29H25a5.24,5.24,0,0,0-2.59.68,5.34,5.34,0,0,0-1.7,1.53,5.26,5.26,0,0,0-.91-.08H15.37a5.26,5.26,0,0,0-.91.08,5.33,5.33,0,0,0-1.7-1.53,5.24,5.24,0,0,0-2.59-.68H5.79A5.3,5.3,0,0,0,.5,14.74v3A.57.57,0,0,0,1.07,18.29Zm13.14-6.61A7,7,0,0,0,10,17.62V18m15,0v-.39a7,7,0,0,0-4.17-5.95"/><path class="cls-1" d="M8,.5A4,4,0,1,0,10.8,1.68,4,4,0,0,0,8,.5Z"/><path class="cls-1" d="M27.16,8.49a4,4,0,1,0-2.83-1.17A4,4,0,0,0,27.16,8.49Z"/><path class="cls-1" d="M14.74,3.81a4,4,0,1,0,2.83-1.17A4,4,0,0,0,14.74,3.81Z"/></g></g></svg>