<svg xmlns="http://www.w3.org/2000/svg" viewBox="0 0 28.63 24.06"><defs><style>.cls-1{font-size:10.16px;fill:#5776b0;font-family:Roboto-Light, Roboto;}.cls-2{letter-spacing:-0.1em;}.cls-3{fill:none;stroke:#5776b0;stroke-miterlimit:10;}</style></defs><title>p-tela-pje</title><g id="Camada_2" data-name="Camada 2"><g id="Camada_1-2" data-name="Camada 1"><text class="cls-1" transform="translate(6.5 12.98)"><tspan class="cls-2">P</tspan><tspan x="5.29" y="0">Je</tspan></text><path class="cls-3" d="M26.63.54v0H2v0A1.63,1.63,0,0,0,.5,2V18.2A1.59,1.59,0,0,0,.72,19a1.51,1.51,0,0,0,1.41.83H11v2.24H9.33a.74.74,0,0,0,0,1.49h10a.74.74,0,1,0,0-1.49H17.6V19.83h8.89A1.51,1.51,0,0,0,27.9,19a1.63,1.63,0,0,0,.23-.81V2A1.67,1.67,0,0,0,26.63.54Zm0,1.59V18.2c0,.09,0,.14-.14.14H2.12c-.09,0-.14,0-.14-.14V2H26.63Zm0,0"/></g></g></svg>