<?xml version="1.0" encoding="utf-8"?>
<!-- Generator: Adobe Illustrator 18.0.0, SVG Export Plug-In . SVG Version: 6.00 Build 0)  -->
<!DOCTYPE svg PUBLIC "-//W3C//DTD SVG 1.1//EN" "http://www.w3.org/Graphics/SVG/1.1/DTD/svg11.dtd">
<svg version="1.1" id="Camada_1" xmlns="http://www.w3.org/2000/svg" xmlns:xlink="http://www.w3.org/1999/xlink" x="0px" y="0px"
	 viewBox="0 0 442.5 61.8" enable-background="new 0 0 442.5 61.8" xml:space="preserve">
<g>
	<g>
		<defs>
			<path id="SVGID_1_" d="M149.3,27.5l-1.7,1.6l-8.1,0c-6.1,0.8-9.2,4-9.5,9.5v7.2l-7.5,7.1V37.1c0.3-5.5,3.5-8.7,9.5-9.5
				L149.3,27.5z"/>
		</defs>
		<clipPath id="SVGID_2_">
			<use xlink:href="#SVGID_1_"  overflow="visible"/>
		</clipPath>
		
			<linearGradient id="SVGID_3_" gradientUnits="userSpaceOnUse" x1="-197.4261" y1="327.1261" x2="-197.1237" y2="327.1261" gradientTransform="matrix(98.4564 75.4832 -73.9555 96.4637 43751.6094 -16624.6191)">
			<stop  offset="0" style="stop-color:#009800"/>
			<stop  offset="0.4" style="stop-color:#7FCB72"/>
			<stop  offset="1" style="stop-color:#FFFFFF"/>
		</linearGradient>
		<polygon clip-path="url(#SVGID_2_)" fill="url(#SVGID_3_)" points="110.2,43.5 139.3,65.9 161.6,36.9 132.4,14.6 		"/>
	</g>
	<g>
		<defs>
			<path id="SVGID_4_" d="M149.1,25.5l-7-6.7l-8.3,0c-6.1-0.8-9.2-4-9.5-9.5V1.9l-2-1.9v15.9c0.3,5.5,3.5,8.7,9.5,9.5L149.1,25.5z"
				/>
		</defs>
		<clipPath id="SVGID_5_">
			<use xlink:href="#SVGID_4_"  overflow="visible"/>
		</clipPath>
		
			<linearGradient id="SVGID_6_" gradientUnits="userSpaceOnUse" x1="-197.9812" y1="326.6992" x2="-197.7166" y2="326.6992" gradientTransform="matrix(-31.3157 102.4879 -101.8413 -31.1182 27211.4414 30456.1309)">
			<stop  offset="0" style="stop-color:#999999"/>
			<stop  offset="0.28" style="stop-color:#C5C5C5"/>
			<stop  offset="1" style="stop-color:#F2F2F2"/>
		</linearGradient>
		<polygon clip-path="url(#SVGID_5_)" fill="url(#SVGID_6_)" points="124.6,-7.5 115.2,23.3 146.9,32.9 156.3,2.2 		"/>
	</g>
	<g>
		<defs>
			<path id="SVGID_7_" d="M93.4,34.3l1.7-1.6l8.1,0c6.1-0.8,9.2-4,9.5-9.5v-7.2l7.5-7.1v15.9c-0.3,5.5-3.5,8.7-9.5,9.5L93.4,34.3z"
				/>
		</defs>
		<clipPath id="SVGID_8_">
			<use xlink:href="#SVGID_7_"  overflow="visible"/>
		</clipPath>
		
			<linearGradient id="SVGID_9_" gradientUnits="userSpaceOnUse" x1="-199.1699" y1="328.7805" x2="-198.8674" y2="328.7805" gradientTransform="matrix(-81.2549 -87.7552 87.7875 -81.2847 -44927.1992 9281.4297)">
			<stop  offset="0" style="stop-color:#0018E4"/>
			<stop  offset="0.46" style="stop-color:#7E8BF1"/>
			<stop  offset="1" style="stop-color:#FFFFFF"/>
		</linearGradient>
		<polygon clip-path="url(#SVGID_8_)" fill="url(#SVGID_9_)" points="132.9,22.5 107.9,-4.6 80.8,20.6 105.8,47.6 		"/>
	</g>
	<g>
		<defs>
			<path id="SVGID_10_" d="M93.6,36.3l7,6.7l8.3,0c6.1,0.8,9.2,4,9.5,9.5v7.4l2,1.9V45.9c-0.3-5.5-3.5-8.7-9.5-9.5L93.6,36.3z"/>
		</defs>
		<clipPath id="SVGID_11_">
			<use xlink:href="#SVGID_10_"  overflow="visible"/>
		</clipPath>
		
			<linearGradient id="SVGID_12_" gradientUnits="userSpaceOnUse" x1="-198.8562" y1="326.3539" x2="-198.5916" y2="326.3539" gradientTransform="matrix(-31.3154 102.4868 -101.8419 -31.1183 27120.334 30571.1992)">
			<stop  offset="0" style="stop-color:#999999"/>
			<stop  offset="0.28" style="stop-color:#C5C5C5"/>
			<stop  offset="1" style="stop-color:#F2F2F2"/>
		</linearGradient>
		<polygon clip-path="url(#SVGID_11_)" fill="url(#SVGID_12_)" points="95.9,28.8 86.5,59.6 118.1,69.3 127.5,38.5 		"/>
	</g>
</g>
<g>
	<path fill="#231F20" d="M169.5,24.8v22.8h-6.2V24.8h-8.7v-4.9h23.6v4.9H169.5z"/>
	<path fill="#231F20" d="M194.3,47.6l-2.9-7.9c-1-2.7-1.6-3.5-4.6-3.5h-2.2v11.5h-6V19.9h11.3c4.7,0,9.4,1.8,9.4,7.4
		c0,3.8-2.8,6.1-6.4,6.7c2.5,0.5,3.5,1.8,4.4,4.1l3.6,9.5H194.3z M187.4,24.1h-2.9v8h2.8c2.8,0,5.8-0.9,5.8-4.2
		C193.1,24.7,190.4,24.1,187.4,24.1z"/>
	<path fill="#231F20" d="M207.7,24.2v7.6h11.1V36h-11.1v11.7h-6.1V19.9h17.7v4.2H207.7z"/>
	<path fill="#231F20" d="M227.6,48.1c-2.5,0-5.2-0.3-7.5-1.1l0.2-4.3c2,0.7,3.9,1.1,6.1,1.1c3.2,0,6.9-1.4,6.9-5
		c0-3.6-3.4-4.9-6.6-4.9c-1.8,0-3.7,0.3-5.9,0.9l0.3-15H238v4.1h-11.6l-0.2,6.9c1-0.3,2.1-0.4,3.1-0.4c5.2,0,10,2.1,10,8.1
		C239.3,45.2,233.3,48.1,227.6,48.1z"/>
</g>
<g>
	<path fill="#231F20" d="M257.1,27.9c0,1.2,0,2.1,0.1,2.6c0,0.4,0.1,0.6,0.5,0.7c0.2,0,0.4,0,0.5,0c0.1,0,0.1,0,0.1,0.1
		c0,0.1-0.1,0.1-0.2,0.1c-0.7,0-1.4,0-1.5,0c-0.1,0-0.8,0-1.2,0c-0.1,0-0.2,0-0.2-0.1c0,0,0-0.1,0.1-0.1c0.1,0,0.3,0,0.4,0
		c0.2,0,0.3-0.3,0.4-0.7c0.1-0.5,0.1-1.5,0.1-2.6v-5.2l-1.8,0c-0.8,0-1,0.1-1.2,0.4c-0.1,0.2-0.2,0.3-0.2,0.4c0,0.1-0.1,0.1-0.1,0.1
		c0,0-0.1,0-0.1-0.1c0-0.1,0.2-1.2,0.3-1.3c0-0.1,0.1-0.2,0.1-0.2c0.1,0,0.2,0.1,0.5,0.1c0.4,0,0.8,0.1,1,0.1h4.6
		c0.4,0,0.7,0,0.9-0.1c0.2,0,0.3-0.1,0.3-0.1c0.1,0,0.1,0.1,0.1,0.1c0,0.4,0,1.2,0,1.3c0,0.1,0,0.2-0.1,0.2c-0.1,0-0.1,0-0.1-0.2
		l0-0.1c0-0.4-0.3-0.6-1.5-0.7l-1.5,0V27.9z"/>
	<path fill="#231F20" d="M262.3,25.7c0-1.9,0-2.2,0-2.6c0-0.4-0.1-0.6-0.5-0.7c-0.1,0-0.3,0-0.4,0c0,0-0.1,0-0.1-0.1
		c0-0.1,0.1-0.1,0.2-0.1c0.5,0,1.3,0,1.4,0c0.1,0,1.1,0,1.4,0c0.8,0,1.6,0.1,2.2,0.5c0.3,0.2,0.8,0.8,0.8,1.7c0,0.9-0.4,1.8-1.5,2.8
		c1,1.3,1.8,2.4,2.5,3.1c0.7,0.7,1.2,0.8,1.5,0.9c0.2,0,0.4,0,0.5,0c0.1,0,0.1,0,0.1,0.1c0,0.1-0.1,0.1-0.3,0.1h-0.9
		c-0.7,0-1-0.1-1.3-0.2c-0.5-0.3-0.9-0.9-1.6-1.8c-0.5-0.7-1.1-1.5-1.3-1.8c0,0-0.1-0.1-0.2-0.1l-1.5,0c-0.1,0-0.1,0-0.1,0.1v0.3
		c0,1.2,0,2.1,0.1,2.6c0,0.4,0.1,0.6,0.5,0.7c0.2,0,0.4,0,0.5,0c0.1,0,0.1,0,0.1,0.1c0,0.1-0.1,0.1-0.2,0.1c-0.7,0-1.4,0-1.5,0
		c0,0-0.8,0-1.1,0c-0.1,0-0.2,0-0.2-0.1c0,0,0-0.1,0.1-0.1c0.1,0,0.3,0,0.4,0c0.2,0,0.3-0.3,0.4-0.7c0.1-0.5,0.1-1.5,0.1-2.6V25.7z
		 M263.3,26.8c0,0.1,0,0.1,0.1,0.1c0.2,0.1,0.7,0.2,1.3,0.2c0.3,0,0.6,0,0.9-0.2c0.4-0.3,0.7-1,0.7-1.9c0-1.5-0.8-2.4-2.1-2.4
		c-0.4,0-0.7,0-0.8,0.1c-0.1,0-0.1,0.1-0.1,0.1V26.8z"/>
	<path fill="#231F20" d="M272,27.9c0,1.2,0,2.1,0.1,2.6c0,0.4,0.1,0.6,0.5,0.7c0.2,0,0.4,0,0.5,0c0.1,0,0.1,0,0.1,0.1
		c0,0.1-0.1,0.1-0.2,0.1c-0.7,0-1.4,0-1.5,0c-0.1,0-0.8,0-1.2,0c-0.1,0-0.2,0-0.2-0.1c0,0,0-0.1,0.1-0.1c0.1,0,0.3,0,0.4,0
		c0.2,0,0.3-0.3,0.4-0.7c0.1-0.5,0.1-1.5,0.1-2.6v-2.1c0-1.9,0-2.2,0-2.6c0-0.4-0.1-0.6-0.4-0.7c-0.1,0-0.3,0-0.4,0
		c0,0-0.1,0-0.1-0.1c0-0.1,0.1-0.1,0.2-0.1c0.4,0,1.2,0,1.2,0c0.1,0,0.8,0,1.2,0c0.1,0,0.2,0,0.2,0.1c0,0,0,0.1-0.1,0.1
		c-0.1,0-0.2,0-0.3,0c-0.3,0.1-0.4,0.3-0.4,0.7c0,0.4,0,0.7,0,2.6V27.9z"/>
	<path fill="#231F20" d="M275.7,25.7c0-1.9,0-2.2,0-2.6c0-0.4-0.1-0.6-0.5-0.7c-0.1,0-0.3,0-0.4,0c0,0-0.1,0-0.1-0.1
		c0-0.1,0.1-0.1,0.2-0.1c0.5,0,1.3,0,1.4,0c0.3,0,0.8,0,1.3,0c2,0,2.4,1.2,2.4,1.8c0,1-0.6,1.6-1.1,2.2c0.9,0.3,2.1,1.1,2.1,2.6
		c0,1.3-1,2.7-3.1,2.7c-0.1,0-0.5,0-0.9,0c-0.4,0-0.7,0-0.7,0c0,0-0.2,0-0.5,0c-0.2,0-0.5,0-0.7,0c-0.1,0-0.2,0-0.2-0.1
		c0,0,0-0.1,0.1-0.1c0.1,0,0.3,0,0.4,0c0.2,0,0.3-0.3,0.4-0.7c0.1-0.5,0.1-1.5,0.1-2.6V25.7z M276.7,26c0,0.1,0,0.1,0.1,0.1
		c0.1,0,0.3,0,0.7,0c0.7,0,0.9,0,1.1-0.3c0.3-0.3,0.4-0.7,0.4-1.2c0-1-0.4-2.1-1.6-2.1c-0.1,0-0.4,0-0.6,0.1c-0.1,0-0.1,0.1-0.1,0.1
		V26z M276.7,27.3c0,0.9,0,2.4,0,2.6c0,0.6,0,0.8,0.4,1c0.3,0.2,0.9,0.2,1.1,0.2c0.7,0,1.7-0.4,1.7-1.7c0-0.7-0.2-1.8-1.2-2.4
		c-0.4-0.3-0.7-0.3-1-0.4c-0.2,0-0.8,0-0.9,0c-0.1,0-0.1,0-0.1,0.1V27.3z"/>
	<path fill="#231F20" d="M282.7,25.7c0-1.9,0-2.2,0-2.6c0-0.4-0.1-0.6-0.5-0.7c-0.1,0-0.3,0-0.4,0c0,0-0.1,0-0.1-0.1
		c0-0.1,0.1-0.1,0.2-0.1c0.5,0,1.3,0,1.4,0c0.1,0,0.8,0,1.2,0c0.1,0,0.2,0,0.2,0.1c0,0,0,0.1-0.1,0.1c-0.1,0-0.2,0-0.3,0
		c-0.3,0-0.4,0.3-0.5,0.7c0,0.4,0,0.7,0,2.6v1.7c0,1.8,0.4,2.5,0.9,3c0.6,0.6,1.1,0.7,1.8,0.7c0.7,0,1.5-0.4,1.9-0.9
		c0.6-0.7,0.7-1.7,0.7-3v-1.5c0-1.9,0-2.2,0-2.6c0-0.4-0.1-0.6-0.5-0.7c-0.1,0-0.3,0-0.4,0c0,0-0.1,0-0.1-0.1c0-0.1,0.1-0.1,0.2-0.1
		c0.5,0,1.2,0,1.3,0c0.1,0,0.7,0,1,0c0.1,0,0.2,0,0.2,0.1c0,0,0,0.1-0.1,0.1c-0.1,0-0.2,0-0.3,0c-0.3,0.1-0.4,0.3-0.5,0.7
		c0,0.4,0,0.7,0,2.6v1.3c0,1.3-0.1,2.8-1.1,3.6c-0.9,0.8-1.8,0.9-2.5,0.9c-0.4,0-1.6,0-2.5-0.9c-0.6-0.6-1.1-1.4-1.1-3.2V25.7z"/>
	<path fill="#231F20" d="M293.3,29.8c0,1,0.1,1.3,0.5,1.4c0.2,0.1,0.5,0.1,0.6,0.1c0.1,0,0.1,0,0.1,0.1c0,0.1-0.1,0.1-0.2,0.1
		c-0.7,0-1.2,0-1.3,0c-0.1,0-0.6,0-1.2,0c-0.1,0-0.2,0-0.2-0.1c0,0,0-0.1,0.1-0.1c0.1,0,0.3,0,0.5-0.1c0.3-0.1,0.4-0.4,0.4-1.5l0-7
		c0-0.5,0-0.6,0.1-0.6c0.1,0,0.3,0.3,0.4,0.4c0.2,0.2,2,2.2,3.9,4.2c1.2,1.3,2.5,2.8,2.9,3.2l-0.1-6.2c0-0.8-0.1-1.1-0.5-1.2
		c-0.2,0-0.5-0.1-0.6-0.1c-0.1,0-0.1,0-0.1-0.1c0-0.1,0.1-0.1,0.2-0.1c0.5,0,1.1,0,1.3,0c0.1,0,0.5,0,1,0c0.1,0,0.2,0,0.2,0.1
		c0,0,0,0.1-0.1,0.1c-0.1,0-0.1,0-0.3,0c-0.4,0.1-0.5,0.4-0.5,1.1l0,7.1c0,0.8,0,0.9-0.1,0.9c-0.1,0-0.2-0.1-0.9-0.8
		c-0.1-0.1-1.9-1.9-3.2-3.3c-1.4-1.5-2.8-3.1-3.2-3.5L293.3,29.8z"/>
	<path fill="#231F20" d="M305.6,22.5c0.1-0.4,0.2-0.5,0.3-0.5c0.1,0,0.1,0.1,0.3,0.4c0.2,0.5,2.1,5.5,2.8,7.3c0.4,1.1,0.8,1.3,1,1.4
		c0.2,0.1,0.4,0.1,0.5,0.1c0.1,0,0.1,0,0.1,0.1c0,0.1-0.1,0.1-0.2,0.1c-0.2,0-1.1,0-1.9,0c-0.2,0-0.4,0-0.4-0.1c0,0,0-0.1,0.1-0.1
		c0.1,0,0.1-0.1,0.1-0.3l-1.1-3c0,0,0-0.1-0.1-0.1h-2.6c-0.1,0-0.1,0-0.1,0.1l-0.7,2.2c-0.1,0.3-0.2,0.6-0.2,0.8
		c0,0.2,0.3,0.4,0.5,0.4h0.1c0.1,0,0.1,0,0.1,0.1c0,0.1-0.1,0.1-0.2,0.1c-0.3,0-0.8,0-1,0c-0.1,0-0.8,0-1.4,0c-0.2,0-0.2,0-0.2-0.1
		c0,0,0-0.1,0.1-0.1c0.1,0,0.3,0,0.4,0c0.6-0.1,0.8-0.5,1-1.1L305.6,22.5z M306.9,27.4C307,27.4,307,27.4,306.9,27.4l-1.1-3.4
		c-0.1-0.2-0.1-0.2-0.2,0l-1.1,3.3c0,0.1,0,0.1,0,0.1H306.9z"/>
	<path fill="#231F20" d="M312.8,27.9c0,1.8,0,2.6,0.3,2.8c0.2,0.2,0.5,0.3,1.5,0.3c0.6,0,1.2,0,1.5-0.4c0.2-0.2,0.3-0.5,0.3-0.7
		c0-0.1,0-0.2,0.1-0.2c0.1,0,0.1,0,0.1,0.2c0,0.1-0.1,0.9-0.2,1.2c-0.1,0.3-0.1,0.3-0.8,0.3c-0.9,0-1.5,0-2,0c-0.5,0-0.9,0-1.2,0
		c0,0-0.3,0-0.5,0c-0.2,0-0.5,0-0.7,0c-0.1,0-0.2,0-0.2-0.1c0,0,0-0.1,0.1-0.1c0.1,0,0.3,0,0.4,0c0.2,0,0.3-0.3,0.4-0.7
		c0.1-0.5,0.1-1.5,0.1-2.6v-2.1c0-1.9,0-2.2,0-2.6c0-0.4-0.1-0.6-0.5-0.7c-0.1,0-0.3,0-0.4,0c0,0-0.1,0-0.1-0.1
		c0-0.1,0.1-0.1,0.2-0.1c0.5,0,1.3,0,1.4,0c0.1,0,0.9,0,1.3,0c0.1,0,0.2,0,0.2,0.1c0,0,0,0.1-0.1,0.1c-0.1,0-0.3,0-0.4,0
		c-0.4,0.1-0.4,0.3-0.5,0.7c0,0.4,0,0.7,0,2.6V27.9z"/>
	<path fill="#231F20" d="M321.8,25.7c0-1.9,0-2.2,0-2.6c0-0.4-0.1-0.6-0.5-0.7c-0.1,0-0.3,0-0.4,0c0,0-0.1,0-0.1-0.1
		c0-0.1,0.1-0.1,0.2-0.1c0.5,0,1.3,0,1.4,0c0.1,0,1.1,0,1.4,0c0.8,0,1.6,0.1,2.2,0.5c0.3,0.2,0.8,0.8,0.8,1.7c0,0.9-0.4,1.8-1.5,2.8
		c1,1.3,1.8,2.4,2.5,3.1c0.7,0.7,1.2,0.8,1.5,0.9c0.2,0,0.4,0,0.5,0c0.1,0,0.1,0,0.1,0.1c0,0.1-0.1,0.1-0.3,0.1h-0.9
		c-0.7,0-1-0.1-1.3-0.2c-0.5-0.3-1-0.9-1.6-1.8c-0.5-0.7-1.1-1.5-1.3-1.8c0,0-0.1-0.1-0.2-0.1l-1.5,0c-0.1,0-0.1,0-0.1,0.1v0.3
		c0,1.2,0,2.1,0.1,2.6c0,0.4,0.1,0.6,0.5,0.7c0.2,0,0.4,0,0.5,0c0.1,0,0.1,0,0.1,0.1c0,0.1-0.1,0.1-0.2,0.1c-0.7,0-1.4,0-1.5,0
		c0,0-0.8,0-1.1,0c-0.1,0-0.2,0-0.2-0.1c0,0,0-0.1,0.1-0.1c0.1,0,0.3,0,0.4,0c0.2,0,0.3-0.3,0.4-0.7c0.1-0.5,0.1-1.5,0.1-2.6V25.7z
		 M322.7,26.8c0,0.1,0,0.1,0.1,0.1c0.2,0.1,0.7,0.2,1.3,0.2c0.3,0,0.6,0,0.9-0.2c0.4-0.3,0.7-1,0.7-1.9c0-1.5-0.8-2.4-2.1-2.4
		c-0.4,0-0.7,0-0.8,0.1c-0.1,0-0.1,0.1-0.1,0.1V26.8z"/>
	<path fill="#231F20" d="M330.4,25.7c0-1.9,0-2.2,0-2.6c0-0.4-0.1-0.6-0.5-0.7c-0.1,0-0.3,0-0.4,0c0,0-0.1,0-0.1-0.1
		c0-0.1,0.1-0.1,0.2-0.1c0.3,0,0.6,0,0.9,0l0.5,0c0.1,0,2.5,0,2.8,0c0.2,0,0.4,0,0.5-0.1c0.1,0,0.1-0.1,0.2-0.1c0,0,0,0,0,0.1
		c0,0.1-0.1,0.2-0.1,0.6c0,0.1,0,0.7-0.1,0.8c0,0.1,0,0.1-0.1,0.1c-0.1,0-0.1-0.1-0.1-0.2c0-0.1,0-0.3-0.1-0.4
		c-0.1-0.2-0.2-0.3-0.9-0.4c-0.2,0-1.5,0-1.7,0c0,0-0.1,0-0.1,0.1v3.4c0,0.1,0,0.1,0.1,0.1c0.2,0,1.7,0,1.9,0c0.3,0,0.5,0,0.6-0.2
		c0.1-0.1,0.1-0.2,0.2-0.2c0,0,0.1,0,0.1,0.1c0,0.1-0.1,0.3-0.1,0.7c0,0.2,0,0.7,0,0.8c0,0.1,0,0.2-0.1,0.2c-0.1,0-0.1,0-0.1-0.1
		c0-0.1,0-0.2,0-0.4c0-0.2-0.2-0.4-0.6-0.4c-0.3,0-1.5-0.1-1.7-0.1c-0.1,0-0.1,0-0.1,0.1v1.1c0,0.4,0,1.8,0,2.1c0,0.8,0.2,1,1.4,1
		c0.3,0,0.9,0,1.2-0.1c0.3-0.1,0.5-0.4,0.6-0.9c0-0.1,0-0.2,0.1-0.2c0.1,0,0.1,0.1,0.1,0.2c0,0.1-0.1,0.9-0.2,1.2
		c-0.1,0.3-0.2,0.3-0.7,0.3c-0.9,0-1.6,0-2.1,0c-0.5,0-0.8,0-1,0c0,0-0.2,0-0.5,0c-0.2,0-0.5,0-0.7,0c-0.1,0-0.2,0-0.2-0.1
		c0,0,0-0.1,0.1-0.1c0.1,0,0.3,0,0.4,0c0.2,0,0.3-0.3,0.4-0.7c0.1-0.5,0.1-1.5,0.1-2.6V25.7z"/>
	<path fill="#231F20" d="M343,28.3c0-1-0.1-1.1-0.5-1.3c-0.1,0-0.3,0-0.4,0c0,0-0.1,0-0.1-0.1c0-0.1,0.1-0.1,0.2-0.1
		c0.5,0,1.3,0,1.4,0c0.1,0,0.8,0,1.2,0c0.1,0,0.2,0,0.2,0.1c0,0,0,0.1-0.1,0.1c-0.1,0-0.2,0-0.3,0c-0.3,0.1-0.4,0.3-0.5,0.7
		c0,0.4,0,0.8,0,1.3v1.4c0,0.5,0,0.6-0.2,0.7c-0.8,0.4-1.9,0.5-2.6,0.5c-0.9,0-2.7-0.1-4-1.3c-0.7-0.6-1.5-1.9-1.5-3.5
		c0-1.9,0.9-3.3,2-4c1.1-0.7,2.3-0.8,3.2-0.8c0.8,0,1.6,0.2,1.9,0.2c0.3,0.1,0.7,0.1,1,0.1c0.1,0,0.1,0.1,0.1,0.1
		c0,0.2-0.1,0.5-0.1,1.7c0,0.2,0,0.3-0.1,0.3c-0.1,0-0.1-0.1-0.1-0.2c0-0.2-0.1-0.5-0.3-0.8c-0.3-0.5-1.3-1-2.9-1
		c-0.8,0-1.7,0.1-2.6,0.8c-0.7,0.6-1.2,1.7-1.2,3.1c0,1.7,0.9,3,1.3,3.4c1,0.9,2.1,1.3,3.2,1.3c0.4,0,1.1-0.1,1.4-0.3
		c0.2-0.1,0.2-0.2,0.2-0.4V28.3z"/>
	<path fill="#231F20" d="M348.1,27.9c0,1.2,0,2.1,0.1,2.6c0,0.4,0.1,0.6,0.5,0.7c0.2,0,0.4,0,0.6,0c0.1,0,0.1,0,0.1,0.1
		c0,0.1-0.1,0.1-0.2,0.1c-0.7,0-1.4,0-1.5,0c-0.1,0-0.8,0-1.2,0c-0.1,0-0.2,0-0.2-0.1c0,0,0-0.1,0.1-0.1c0.1,0,0.3,0,0.4,0
		c0.2,0,0.3-0.3,0.4-0.7c0.1-0.5,0.1-1.5,0.1-2.6v-2.1c0-1.9,0-2.2,0-2.6c0-0.4-0.1-0.6-0.4-0.7c-0.1,0-0.3,0-0.4,0
		c0,0-0.1,0-0.1-0.1c0-0.1,0.1-0.1,0.2-0.1c0.4,0,1.2,0,1.2,0c0.1,0,0.8,0,1.2,0c0.1,0,0.2,0,0.2,0.1c0,0,0,0.1-0.1,0.1
		c-0.1,0-0.2,0-0.3,0c-0.3,0.1-0.4,0.3-0.5,0.7c0,0.4,0,0.7,0,2.6V27.9z"/>
	<path fill="#231F20" d="M354.9,22c2.7,0,4.8,1.7,4.8,4.6c0,2.7-1.9,5-4.9,5c-3.3,0-4.7-2.6-4.7-4.8C350.1,24.8,351.6,22,354.9,22z
		 M355.2,31.1c1.1,0,3.4-0.6,3.4-4.2c0-2.9-1.8-4.5-3.7-4.5c-2,0-3.6,1.3-3.6,4C351.3,29.3,353,31.1,355.2,31.1z"/>
	<path fill="#231F20" d="M362,29.8c0,1,0.1,1.3,0.5,1.4c0.2,0.1,0.5,0.1,0.6,0.1c0.1,0,0.1,0,0.1,0.1c0,0.1-0.1,0.1-0.2,0.1
		c-0.7,0-1.2,0-1.3,0c-0.1,0-0.6,0-1.2,0c-0.1,0-0.2,0-0.2-0.1c0,0,0-0.1,0.1-0.1c0.1,0,0.3,0,0.5-0.1c0.3-0.1,0.4-0.4,0.4-1.5l0-7
		c0-0.5,0-0.6,0.1-0.6c0.1,0,0.3,0.3,0.4,0.4c0.2,0.2,2,2.2,3.9,4.2c1.2,1.3,2.5,2.8,2.9,3.2l-0.1-6.2c0-0.8-0.1-1.1-0.5-1.2
		c-0.2,0-0.5-0.1-0.6-0.1c-0.1,0-0.1,0-0.1-0.1c0-0.1,0.1-0.1,0.2-0.1c0.5,0,1.1,0,1.3,0c0.1,0,0.5,0,1,0c0.1,0,0.2,0,0.2,0.1
		c0,0,0,0.1-0.1,0.1c-0.1,0-0.1,0-0.3,0c-0.4,0.1-0.5,0.4-0.5,1.1l0,7.1c0,0.8,0,0.9-0.1,0.9c-0.1,0-0.2-0.1-0.9-0.8
		c-0.1-0.1-1.9-1.9-3.2-3.3c-1.4-1.5-2.8-3.1-3.2-3.5L362,29.8z"/>
	<path fill="#231F20" d="M374.4,22.5c0.1-0.4,0.2-0.5,0.3-0.5c0.1,0,0.1,0.1,0.3,0.4c0.2,0.5,2.1,5.5,2.8,7.3c0.4,1.1,0.8,1.3,1,1.4
		c0.2,0.1,0.4,0.1,0.5,0.1c0.1,0,0.1,0,0.1,0.1c0,0.1-0.1,0.1-0.2,0.1c-0.2,0-1.1,0-1.9,0c-0.2,0-0.4,0-0.4-0.1c0,0,0-0.1,0.1-0.1
		c0.1,0,0.1-0.1,0.1-0.3l-1.1-3c0,0,0-0.1-0.1-0.1h-2.6c-0.1,0-0.1,0-0.1,0.1l-0.7,2.2c-0.1,0.3-0.2,0.6-0.2,0.8
		c0,0.2,0.3,0.4,0.5,0.4h0.1c0.1,0,0.1,0,0.1,0.1c0,0.1-0.1,0.1-0.2,0.1c-0.3,0-0.8,0-1,0c-0.1,0-0.8,0-1.4,0c-0.2,0-0.2,0-0.2-0.1
		c0,0,0-0.1,0.1-0.1c0.1,0,0.3,0,0.4,0c0.6-0.1,0.8-0.5,1-1.1L374.4,22.5z M375.7,27.4C375.7,27.4,375.7,27.4,375.7,27.4l-1.1-3.4
		c-0.1-0.2-0.1-0.2-0.2,0l-1.1,3.3c0,0.1,0,0.1,0,0.1H375.7z"/>
	<path fill="#231F20" d="M381.6,27.9c0,1.8,0,2.6,0.3,2.8c0.2,0.2,0.5,0.3,1.5,0.3c0.6,0,1.2,0,1.5-0.4c0.2-0.2,0.3-0.5,0.3-0.7
		c0-0.1,0-0.2,0.1-0.2c0.1,0,0.1,0,0.1,0.2c0,0.1-0.1,0.9-0.2,1.2c-0.1,0.3-0.1,0.3-0.8,0.3c-0.9,0-1.5,0-2,0c-0.5,0-0.9,0-1.2,0
		c0,0-0.3,0-0.5,0c-0.2,0-0.5,0-0.7,0c-0.1,0-0.2,0-0.2-0.1c0,0,0-0.1,0.1-0.1c0.1,0,0.3,0,0.4,0c0.2,0,0.3-0.3,0.4-0.7
		c0.1-0.5,0.1-1.5,0.1-2.6v-2.1c0-1.9,0-2.2,0-2.6c0-0.4-0.1-0.6-0.5-0.7c-0.1,0-0.3,0-0.4,0c0,0-0.1,0-0.1-0.1
		c0-0.1,0.1-0.1,0.2-0.1c0.5,0,1.3,0,1.4,0s1,0,1.3,0c0.1,0,0.2,0,0.2,0.1c0,0,0,0.1-0.1,0.1c-0.1,0-0.3,0-0.4,0
		c-0.4,0.1-0.5,0.3-0.5,0.7c0,0.4,0,0.7,0,2.6V27.9z"/>
	<path fill="#231F20" d="M390.5,25.7c0-1.9,0-2.2,0-2.6c0-0.4-0.1-0.6-0.5-0.7c-0.1,0-0.3,0-0.4,0c0,0-0.1,0-0.1-0.1
		c0-0.1,0.1-0.1,0.2-0.1c0.3,0,0.6,0,0.9,0l0.5,0c0.2,0,2.7,0,3,0c0.2,0,0.4,0,0.5,0c0.1,0,0.1-0.1,0.2-0.1c0,0,0.1,0,0.1,0.1
		c0,0.1-0.1,0.2-0.1,0.6c0,0.1,0,0.7-0.1,0.8c0,0.1,0,0.1-0.1,0.1c-0.1,0-0.1-0.1-0.1-0.1c0-0.1,0-0.3-0.1-0.5
		c-0.1-0.2-0.4-0.4-0.8-0.4l-1.9,0c-0.1,0-0.1,0-0.1,0.1v3.4c0,0.1,0,0.1,0.1,0.1l1.6,0c0.2,0,0.4,0,0.5,0c0.3,0,0.5-0.1,0.6-0.2
		c0.1-0.1,0.1-0.1,0.1-0.1c0,0,0.1,0,0.1,0.1c0,0.1-0.1,0.3-0.1,0.7c0,0.2,0,0.7,0,0.8c0,0.1,0,0.2-0.1,0.2c-0.1,0-0.1,0-0.1-0.1
		c0-0.1,0-0.3-0.1-0.4c-0.1-0.2-0.3-0.4-0.6-0.4c-0.3,0-1.6,0-1.8,0c-0.1,0-0.1,0-0.1,0.1v1c0,1.2,0,2.1,0.1,2.6
		c0,0.4,0.1,0.6,0.5,0.7c0.2,0,0.4,0,0.5,0c0.1,0,0.1,0,0.1,0.1c0,0.1-0.1,0.1-0.2,0.1c-0.7,0-1.4,0-1.5,0c-0.1,0-0.8,0-1.2,0
		c-0.1,0-0.2,0-0.2-0.1c0,0,0-0.1,0.1-0.1c0.1,0,0.3,0,0.4,0c0.2,0,0.3-0.3,0.4-0.7c0.1-0.5,0.1-1.5,0.1-2.6V25.7z"/>
	<path fill="#231F20" d="M397.1,25.7c0-1.9,0-2.2,0-2.6c0-0.4-0.1-0.6-0.5-0.7c-0.1,0-0.3,0-0.4,0c-0.1,0-0.1,0-0.1-0.1
		c0-0.1,0.1-0.1,0.2-0.1c0.3,0,0.6,0,0.9,0l0.5,0c0.1,0,2.5,0,2.8,0c0.2,0,0.4,0,0.5-0.1c0.1,0,0.1-0.1,0.2-0.1c0,0,0,0,0,0.1
		c0,0.1-0.1,0.2-0.1,0.6c0,0.1,0,0.7-0.1,0.8c0,0.1,0,0.1-0.1,0.1c-0.1,0-0.1-0.1-0.1-0.2c0-0.1,0-0.3-0.1-0.4
		c-0.1-0.2-0.2-0.3-0.9-0.4c-0.2,0-1.5,0-1.7,0c0,0-0.1,0-0.1,0.1v3.4c0,0.1,0,0.1,0.1,0.1c0.2,0,1.7,0,1.9,0c0.3,0,0.5,0,0.6-0.2
		c0.1-0.1,0.1-0.2,0.2-0.2c0,0,0.1,0,0.1,0.1c0,0.1-0.1,0.3-0.1,0.7c0,0.2,0,0.7,0,0.8c0,0.1,0,0.2-0.1,0.2c-0.1,0-0.1,0-0.1-0.1
		c0-0.1,0-0.2,0-0.4c-0.1-0.2-0.2-0.4-0.6-0.4c-0.3,0-1.5-0.1-1.7-0.1c-0.1,0-0.1,0-0.1,0.1v1.1c0,0.4,0,1.8,0,2.1
		c0,0.8,0.2,1,1.4,1c0.3,0,0.9,0,1.2-0.1c0.3-0.1,0.5-0.4,0.5-0.9c0-0.1,0.1-0.2,0.1-0.2c0.1,0,0.1,0.1,0.1,0.2
		c0,0.1-0.1,0.9-0.2,1.2c-0.1,0.3-0.2,0.3-0.7,0.3c-0.9,0-1.6,0-2.1,0c-0.5,0-0.8,0-0.9,0c0,0-0.2,0-0.5,0c-0.2,0-0.5,0-0.7,0
		c-0.1,0-0.2,0-0.2-0.1c0,0,0-0.1,0.1-0.1c0.1,0,0.3,0,0.4,0c0.2,0,0.3-0.3,0.4-0.7c0.1-0.5,0.1-1.5,0.1-2.6V25.7z"/>
	<path fill="#231F20" d="M404,25.7c0-1.9,0-2.2,0-2.6c0-0.4-0.1-0.6-0.5-0.7c-0.1,0-0.3,0-0.4,0c0,0-0.1,0-0.1-0.1
		c0-0.1,0.1-0.1,0.2-0.1c0.6,0,1.3,0,1.4,0c0.1,0,0.9,0,1.6,0c1.2,0,3.4-0.1,4.9,1.4c0.6,0.6,1.2,1.6,1.2,3.1c0,1.5-0.6,2.7-1.3,3.4
		c-0.5,0.5-1.6,1.4-3.7,1.4c-0.5,0-1.2,0-1.7-0.1c-0.5,0-1-0.1-1-0.1c0,0-0.2,0-0.5,0c-0.2,0-0.5,0-0.7,0c-0.1,0-0.2,0-0.2-0.1
		c0,0,0-0.1,0.1-0.1c0.1,0,0.3,0,0.4,0c0.2,0,0.3-0.3,0.4-0.7c0.1-0.5,0.1-1.5,0.1-2.6V25.7z M405,27.1c0,1.3,0,2.4,0,2.6
		c0,0.3,0,0.8,0.1,0.9c0.2,0.2,0.6,0.5,2.1,0.5c1.1,0,2.2-0.4,2.9-1.1c0.6-0.6,1-1.8,1-2.9c0-1.5-0.7-2.5-1.2-3.1
		c-1.1-1.2-2.5-1.4-4-1.4c-0.2,0-0.7,0-0.8,0.1c-0.1,0-0.1,0.1-0.1,0.2c0,0.4,0,1.7,0,2.6V27.1z"/>
	<path fill="#231F20" d="M414.4,25.7c0-1.9,0-2.2,0-2.6c0-0.4-0.1-0.6-0.5-0.7c-0.1,0-0.3,0-0.4,0c-0.1,0-0.1,0-0.1-0.1
		c0-0.1,0.1-0.1,0.2-0.1c0.3,0,0.6,0,0.9,0l0.5,0c0.1,0,2.5,0,2.8,0c0.2,0,0.4,0,0.5-0.1c0.1,0,0.1-0.1,0.2-0.1c0,0,0,0,0,0.1
		c0,0.1-0.1,0.2-0.1,0.6c0,0.1,0,0.7-0.1,0.8c0,0.1,0,0.1-0.1,0.1c-0.1,0-0.1-0.1-0.1-0.2c0-0.1,0-0.3-0.1-0.4
		c-0.1-0.2-0.2-0.3-0.9-0.4c-0.2,0-1.5,0-1.7,0c-0.1,0-0.1,0-0.1,0.1v3.4c0,0.1,0,0.1,0.1,0.1c0.2,0,1.7,0,1.9,0
		c0.3,0,0.5,0,0.6-0.2c0.1-0.1,0.1-0.2,0.2-0.2c0,0,0.1,0,0.1,0.1c0,0.1-0.1,0.3-0.1,0.7c0,0.2,0,0.7,0,0.8c0,0.1,0,0.2-0.1,0.2
		c-0.1,0-0.1,0-0.1-0.1c0-0.1,0-0.2,0-0.4c-0.1-0.2-0.2-0.4-0.6-0.4c-0.3,0-1.5-0.1-1.7-0.1c-0.1,0-0.1,0-0.1,0.1v1.1
		c0,0.4,0,1.8,0,2.1c0,0.8,0.2,1,1.4,1c0.3,0,0.9,0,1.2-0.1c0.3-0.1,0.5-0.4,0.5-0.9c0-0.1,0.1-0.2,0.1-0.2c0.1,0,0.1,0.1,0.1,0.2
		c0,0.1-0.1,0.9-0.2,1.2c-0.1,0.3-0.2,0.3-0.7,0.3c-0.9,0-1.6,0-2.1,0c-0.5,0-0.8,0-1,0c0,0-0.2,0-0.5,0c-0.2,0-0.5,0-0.7,0
		c-0.1,0-0.2,0-0.2-0.1c0,0,0-0.1,0.1-0.1c0.1,0,0.3,0,0.4,0c0.2,0,0.3-0.3,0.4-0.7c0.1-0.5,0.1-1.5,0.1-2.6V25.7z"/>
	<path fill="#231F20" d="M421.2,25.7c0-1.9,0-2.2,0-2.6c0-0.4-0.1-0.6-0.5-0.7c-0.1,0-0.3,0-0.4,0c0,0-0.1,0-0.1-0.1
		c0-0.1,0.1-0.1,0.2-0.1c0.5,0,1.3,0,1.4,0c0.1,0,1.1,0,1.4,0c0.8,0,1.6,0.1,2.2,0.5c0.3,0.2,0.8,0.8,0.8,1.7c0,0.9-0.4,1.8-1.5,2.8
		c1,1.3,1.8,2.4,2.5,3.1c0.7,0.7,1.2,0.8,1.5,0.9c0.2,0,0.4,0,0.5,0c0.1,0,0.1,0,0.1,0.1c0,0.1-0.1,0.1-0.3,0.1h-0.9
		c-0.7,0-1-0.1-1.3-0.2c-0.5-0.3-1-0.9-1.6-1.8c-0.5-0.7-1.1-1.5-1.3-1.8c0,0-0.1-0.1-0.2-0.1l-1.5,0c-0.1,0-0.1,0-0.1,0.1v0.3
		c0,1.2,0,2.1,0.1,2.6c0,0.4,0.1,0.6,0.5,0.7c0.2,0,0.4,0,0.5,0c0.1,0,0.1,0,0.1,0.1c0,0.1-0.1,0.1-0.2,0.1c-0.7,0-1.4,0-1.5,0
		c0,0-0.8,0-1.1,0c-0.1,0-0.2,0-0.2-0.1c0,0,0-0.1,0.1-0.1c0.1,0,0.3,0,0.4,0c0.2,0,0.3-0.3,0.4-0.7c0.1-0.5,0.1-1.5,0.1-2.6V25.7z
		 M422.2,26.8c0,0.1,0,0.1,0.1,0.1c0.2,0.1,0.7,0.2,1.3,0.2c0.3,0,0.6,0,0.9-0.2c0.4-0.3,0.7-1,0.7-1.9c0-1.5-0.8-2.4-2.1-2.4
		c-0.4,0-0.7,0-0.8,0.1c-0.1,0-0.1,0.1-0.1,0.1V26.8z"/>
	<path fill="#231F20" d="M431.6,22.5c0.1-0.4,0.2-0.5,0.3-0.5c0.1,0,0.1,0.1,0.3,0.4c0.2,0.5,2.1,5.5,2.8,7.3c0.4,1.1,0.8,1.3,1,1.4
		c0.2,0.1,0.4,0.1,0.5,0.1c0.1,0,0.1,0,0.1,0.1c0,0.1-0.1,0.1-0.2,0.1c-0.2,0-1.1,0-1.9,0c-0.2,0-0.4,0-0.4-0.1c0,0,0-0.1,0.1-0.1
		c0.1,0,0.1-0.1,0.1-0.3l-1.1-3c0,0,0-0.1-0.1-0.1h-2.6c-0.1,0-0.1,0-0.1,0.1l-0.7,2.2c-0.1,0.3-0.2,0.6-0.2,0.8
		c0,0.2,0.3,0.4,0.5,0.4h0.1c0.1,0,0.1,0,0.1,0.1c0,0.1-0.1,0.1-0.2,0.1c-0.3,0-0.8,0-1,0s-0.8,0-1.4,0c-0.2,0-0.2,0-0.2-0.1
		c0,0,0-0.1,0.1-0.1c0.1,0,0.3,0,0.4,0c0.6-0.1,0.8-0.5,1-1.1L431.6,22.5z M432.9,27.4C432.9,27.4,432.9,27.4,432.9,27.4l-1.1-3.4
		c-0.1-0.2-0.1-0.2-0.2,0l-1.1,3.3c0,0.1,0,0.1,0,0.1H432.9z"/>
	<path fill="#231F20" d="M438.8,27.9c0,1.8,0.1,2.6,0.3,2.8c0.2,0.2,0.5,0.3,1.5,0.3c0.6,0,1.2,0,1.5-0.4c0.2-0.2,0.3-0.5,0.3-0.7
		c0-0.1,0-0.2,0.1-0.2c0.1,0,0.1,0,0.1,0.2c0,0.1-0.1,0.9-0.2,1.2c-0.1,0.3-0.1,0.3-0.8,0.3c-0.9,0-1.5,0-2,0c-0.5,0-0.9,0-1.2,0
		c-0.1,0-0.3,0-0.5,0c-0.2,0-0.5,0-0.7,0c-0.1,0-0.2,0-0.2-0.1c0,0,0-0.1,0.1-0.1c0.1,0,0.3,0,0.4,0c0.2,0,0.3-0.3,0.4-0.7
		c0.1-0.5,0.1-1.5,0.1-2.6v-2.1c0-1.9,0-2.2,0-2.6c0-0.4-0.1-0.6-0.5-0.7c-0.1,0-0.3,0-0.4,0c0,0-0.1,0-0.1-0.1
		c0-0.1,0.1-0.1,0.2-0.1c0.6,0,1.3,0,1.4,0c0.1,0,1,0,1.3,0c0.1,0,0.2,0,0.2,0.1c0,0,0,0.1-0.1,0.1c-0.1,0-0.3,0-0.4,0
		c-0.4,0.1-0.5,0.3-0.5,0.7c0,0.4,0,0.7,0,2.6V27.9z"/>
	<path fill="#231F20" d="M254.3,41c0-1.6,0-1.9,0-2.2c0-0.4-0.1-0.5-0.4-0.6c-0.1,0-0.3,0-0.4,0c0,0-0.1,0-0.1-0.1
		c0-0.1,0-0.1,0.2-0.1c0.5,0,1.2,0,1.2,0c0.1,0,0.8,0,1.4,0c1.1,0,3-0.1,4.3,1.2c0.5,0.5,1,1.4,1,2.6c0,1.3-0.6,2.3-1.2,2.9
		c-0.5,0.5-1.4,1.2-3.3,1.2c-0.5,0-1,0-1.5-0.1c-0.5,0-0.8-0.1-0.9-0.1c0,0-0.2,0-0.4,0c-0.2,0-0.5,0-0.6,0c-0.1,0-0.2,0-0.2-0.1
		c0,0,0-0.1,0.1-0.1c0.1,0,0.2,0,0.3,0c0.2,0,0.2-0.2,0.3-0.5c0.1-0.4,0.1-1.2,0.1-2.2V41z M255.2,42.1c0,1.1,0,2.1,0,2.3
		c0,0.3,0,0.6,0.1,0.7c0.1,0.2,0.5,0.4,1.8,0.4c1,0,1.9-0.3,2.5-0.9c0.6-0.5,0.8-1.5,0.8-2.5c0-1.3-0.6-2.2-1-2.6
		c-1-1-2.2-1.2-3.5-1.2c-0.2,0-0.5,0-0.6,0.1c-0.1,0-0.1,0.1-0.1,0.2V42.1z"/>
	<path fill="#231F20" d="M265,38.2c0.1-0.3,0.2-0.4,0.3-0.4c0.1,0,0.1,0.1,0.3,0.4c0.2,0.4,1.9,4.7,2.6,6.3c0.4,0.9,0.7,1.1,0.9,1.1
		c0.2,0,0.3,0.1,0.4,0.1c0.1,0,0.1,0,0.1,0.1c0,0.1-0.1,0.1-0.2,0.1c-0.2,0-0.9,0-1.7,0c-0.2,0-0.4,0-0.4-0.1c0,0,0,0,0.1-0.1
		c0.1,0,0.2-0.1,0.1-0.3l-1-2.4c0,0,0-0.1-0.1-0.1h-2.5c0,0-0.1,0-0.1,0.1l-0.6,1.7c-0.1,0.3-0.2,0.5-0.2,0.7c0,0.2,0.2,0.3,0.4,0.3
		h0.1c0.1,0,0.1,0,0.1,0.1c0,0.1-0.1,0.1-0.2,0.1c-0.3,0-0.8,0-1,0c-0.1,0-0.6,0-1.1,0c-0.1,0-0.2,0-0.2-0.1c0,0,0-0.1,0.1-0.1
		c0.1,0,0.2,0,0.3,0c0.5-0.1,0.7-0.4,0.9-0.9L265,38.2z M266.2,42.5C266.3,42.5,266.3,42.5,266.2,42.5l-1-2.9
		c-0.1-0.2-0.1-0.2-0.2,0l-1,2.8c0,0,0,0.1,0,0.1H266.2z"/>
	<path fill="#231F20" d="M274,39.3c1.5,0.2,3.8,1.2,3.8,3.3c0,1.6-1.2,3.4-3.7,3.4c-0.4,0-0.8,0-1.1-0.2c-0.2-0.1-0.2-0.2-0.2-0.3
		c0-0.4,0-1.1,0-1.5c0-0.1,0.1-0.2,0.1-0.2c0.1,0,0.1,0.1,0.1,0.2c0,1.3,0.8,1.6,1.7,1.6c1,0,2.1-0.7,2.1-2.4c0-2-2.2-2.9-3.1-3
		c-0.2,0-0.3-0.1-0.3-0.2l0.3-3.1c0-0.1,0.1-0.2,0.2-0.2h2.9c0.3,0,0.6,0,0.7,0c0.1,0,0.2,0,0.3,0c0,0,0.1,0,0.1,0.1
		c0,0.1,0,0.6-0.2,1.5c0,0.1,0,0.1-0.1,0.1c0,0-0.1-0.1-0.1-0.2c0-0.5-0.1-0.8-1.1-0.8h-2.3L274,39.3z"/>
	<path fill="#231F20" d="M279.7,39.4C279.7,39.4,279.7,39.5,279.7,39.4l-0.3,0.8c0,0.1-0.1,0.2-0.1,0.3c0,0.1,0.1,0.2,0.2,0.2h0.1
		c0,0,0.1,0,0.1,0c0,0,0,0.1-0.1,0.1c-0.2,0-0.4,0-0.5,0c-0.1,0-0.5,0-0.8,0c-0.1,0-0.1,0-0.1-0.1c0,0,0,0,0.1,0c0,0,0.1,0,0.2,0
		c0.3,0,0.4-0.2,0.5-0.5l1.5-3.6c0-0.1,0.1-0.1,0.2-0.1c0,0,0.1,0,0.2,0.2c0.1,0.2,1.1,2.6,1.6,3.4c0.2,0.5,0.4,0.6,0.5,0.6
		c0.1,0,0.2,0,0.3,0c0,0,0.1,0,0.1,0c0,0-0.1,0.1-0.1,0.1c-0.1,0-0.6,0-1.2,0c-0.1,0-0.2,0-0.2,0c0,0,0,0,0-0.1c0,0,0.1-0.1,0-0.1
		l-0.5-1.1c0,0,0,0-0.1,0H279.7z M281,39.1C281.1,39.1,281.1,39,281,39.1l-0.5-1.4c0-0.1-0.1-0.1-0.1,0l-0.5,1.4c0,0,0,0,0,0H281z"
		/>
	<path fill="#231F20" d="M288,40.2c0-1.9,0-2.2,0-2.6c0-0.4-0.1-0.6-0.5-0.7c-0.1,0-0.3,0-0.4,0c0,0-0.1,0-0.1-0.1
		c0-0.1,0.1-0.1,0.2-0.1c0.5,0,1.3,0,1.4,0c0.1,0,1.1,0,1.4,0c0.8,0,1.6,0.1,2.2,0.5c0.3,0.2,0.8,0.8,0.8,1.7c0,0.9-0.4,1.8-1.5,2.8
		c1,1.3,1.8,2.4,2.5,3.1c0.7,0.7,1.2,0.8,1.5,0.9c0.2,0,0.4,0,0.5,0c0.1,0,0.1,0,0.1,0.1c0,0.1-0.1,0.1-0.3,0.1H295
		c-0.7,0-1-0.1-1.3-0.2c-0.5-0.3-1-0.9-1.6-1.8c-0.5-0.7-1.1-1.5-1.3-1.8c0,0-0.1-0.1-0.2-0.1l-1.5,0c-0.1,0-0.1,0-0.1,0.1v0.3
		c0,1.2,0,2.1,0.1,2.6c0,0.4,0.1,0.6,0.5,0.7c0.2,0,0.4,0,0.5,0c0.1,0,0.1,0,0.1,0.1c0,0.1-0.1,0.1-0.2,0.1c-0.7,0-1.4,0-1.5,0
		c0,0-0.8,0-1.1,0c-0.1,0-0.2,0-0.2-0.1c0,0,0-0.1,0.1-0.1c0.1,0,0.3,0,0.4,0c0.2,0,0.3-0.3,0.4-0.7c0.1-0.5,0.1-1.5,0.1-2.6V40.2z
		 M289,41.2c0,0.1,0,0.1,0.1,0.1c0.2,0.1,0.7,0.2,1.3,0.2c0.3,0,0.6,0,0.9-0.2c0.4-0.3,0.7-0.9,0.7-1.9c0-1.5-0.8-2.4-2.1-2.4
		c-0.4,0-0.7,0-0.8,0.1c-0.1,0-0.1,0.1-0.1,0.1V41.2z"/>
	<path fill="#231F20" d="M296.6,40.2c0-1.9,0-2.2,0-2.6c0-0.4-0.1-0.6-0.5-0.7c-0.1,0-0.3,0-0.4,0c0,0-0.1,0-0.1-0.1
		c0-0.1,0.1-0.1,0.2-0.1c0.3,0,0.6,0,0.9,0l0.5,0c0.1,0,2.5,0,2.8,0c0.2,0,0.4,0,0.5-0.1c0.1,0,0.1-0.1,0.2-0.1c0,0,0,0,0,0.1
		c0,0.1-0.1,0.2-0.1,0.6c0,0.1,0,0.7-0.1,0.8c0,0.1,0,0.1-0.1,0.1c-0.1,0-0.1-0.1-0.1-0.2c0-0.1,0-0.3-0.1-0.4
		c-0.1-0.2-0.2-0.3-0.9-0.4c-0.2,0-1.5,0-1.7,0c0,0-0.1,0-0.1,0.1v3.4c0,0.1,0,0.1,0.1,0.1c0.2,0,1.7,0,1.9,0c0.3,0,0.5,0,0.6-0.2
		c0.1-0.1,0.1-0.2,0.2-0.2c0,0,0.1,0,0.1,0.1c0,0.1-0.1,0.3-0.1,0.7c0,0.2,0,0.7,0,0.8c0,0.1,0,0.2-0.1,0.2c-0.1,0-0.1,0-0.1-0.1
		c0-0.1,0-0.2,0-0.4c0-0.2-0.2-0.4-0.6-0.4c-0.3,0-1.5-0.1-1.7-0.1c-0.1,0-0.1,0-0.1,0.1v1.1c0,0.4,0,1.8,0,2.1c0,0.8,0.2,1,1.4,1
		c0.3,0,0.9,0,1.2-0.1c0.3-0.1,0.5-0.4,0.5-0.9c0-0.1,0-0.2,0.1-0.2c0.1,0,0.1,0.1,0.1,0.2c0,0.1-0.1,0.9-0.2,1.2
		c-0.1,0.3-0.2,0.3-0.7,0.3c-0.9,0-1.6,0-2.1,0c-0.5,0-0.8,0-1,0c0,0-0.2,0-0.5,0c-0.2,0-0.5,0-0.7,0c-0.1,0-0.2,0-0.2-0.1
		c0,0,0-0.1,0.1-0.1c0.1,0,0.3,0,0.4,0c0.2,0,0.3-0.3,0.4-0.7c0.1-0.5,0.1-1.5,0.1-2.6V40.2z"/>
	<path fill="#231F20" d="M309.2,42.7c0-1-0.1-1.1-0.5-1.3c-0.1,0-0.3,0-0.4,0c0,0-0.1,0-0.1-0.1c0-0.1,0.1-0.1,0.2-0.1
		c0.5,0,1.3,0,1.4,0c0.1,0,0.8,0,1.2,0c0.1,0,0.2,0,0.2,0.1c0,0,0,0.1-0.1,0.1c-0.1,0-0.2,0-0.3,0c-0.3,0.1-0.4,0.3-0.5,0.7
		c0,0.4,0,0.8,0,1.3v1.4c0,0.5,0,0.6-0.2,0.7c-0.8,0.4-1.9,0.5-2.6,0.5c-0.9,0-2.7-0.1-4-1.3c-0.7-0.6-1.4-1.9-1.4-3.5
		c0-1.9,1-3.3,2-4c1.1-0.7,2.3-0.8,3.2-0.8c0.8,0,1.6,0.2,1.9,0.2c0.3,0.1,0.7,0.1,1,0.1c0.1,0,0.1,0.1,0.1,0.1
		c0,0.2-0.1,0.5-0.1,1.7c0,0.2,0,0.3-0.1,0.3c-0.1,0-0.1-0.1-0.1-0.2c0-0.2-0.1-0.5-0.3-0.8c-0.3-0.5-1.3-1-2.9-1
		c-0.8,0-1.7,0.1-2.6,0.8c-0.7,0.6-1.2,1.7-1.2,3.1c0,1.7,0.9,3,1.3,3.4c1,0.9,2.1,1.3,3.2,1.3c0.4,0,1.1-0.1,1.4-0.3
		c0.2-0.1,0.2-0.2,0.2-0.4V42.7z"/>
	<path fill="#231F20" d="M314.3,42.3c0,1.2,0,2.1,0.1,2.6c0,0.4,0.1,0.6,0.5,0.7c0.2,0,0.4,0,0.5,0c0.1,0,0.1,0,0.1,0.1
		c0,0.1-0.1,0.1-0.2,0.1c-0.7,0-1.4,0-1.5,0c-0.1,0-0.8,0-1.2,0c-0.1,0-0.2,0-0.2-0.1c0,0,0-0.1,0.1-0.1c0.1,0,0.3,0,0.4,0
		c0.2,0,0.3-0.3,0.4-0.7c0.1-0.5,0.1-1.5,0.1-2.6v-2.1c0-1.9,0-2.2,0-2.6c0-0.4-0.1-0.6-0.4-0.7c-0.1,0-0.3,0-0.4,0
		c0,0-0.1,0-0.1-0.1c0-0.1,0.1-0.1,0.2-0.1c0.4,0,1.2,0,1.2,0c0.1,0,0.8,0,1.2,0c0.1,0,0.2,0,0.2,0.1c0,0,0,0.1-0.1,0.1
		c-0.1,0-0.2,0-0.3,0c-0.3,0.1-0.4,0.3-0.4,0.7c0,0.4,0,0.7,0,2.6V42.3z"/>
	<path fill="#231F20" d="M319.8,36.9c0.1-0.4,0.2-0.5,0.3-0.5c0.1,0,0.1,0.1,0.3,0.4c0.2,0.5,2.1,5.5,2.8,7.3c0.4,1.1,0.8,1.3,1,1.4
		c0.2,0.1,0.4,0.1,0.5,0.1c0.1,0,0.1,0,0.1,0.1c0,0.1-0.1,0.1-0.2,0.1c-0.2,0-1.1,0-1.9,0c-0.2,0-0.4,0-0.4-0.1c0,0,0-0.1,0.1-0.1
		c0.1,0,0.1-0.1,0.1-0.3l-1.1-3c0,0,0-0.1-0.1-0.1h-2.6c-0.1,0-0.1,0-0.1,0.1l-0.7,2.2c-0.1,0.3-0.2,0.6-0.2,0.8
		c0,0.2,0.3,0.4,0.5,0.4h0.1c0.1,0,0.1,0,0.1,0.1c0,0.1-0.1,0.1-0.2,0.1c-0.3,0-0.8,0-0.9,0c-0.1,0-0.8,0-1.4,0
		c-0.2,0-0.2,0-0.2-0.1c0,0,0-0.1,0.1-0.1c0.1,0,0.3,0,0.4,0c0.6-0.1,0.8-0.5,1-1.1L319.8,36.9z M320.1,35.4
		c-0.2-0.1-0.5-0.3-0.8-0.3c-0.4,0-0.7,0.3-0.7,0.4c-0.1,0.1-0.1,0.1-0.2,0.1c0,0-0.1,0-0.1-0.1c0-0.1,0-0.1,0.1-0.2
		c0.2-0.3,0.7-0.9,1-0.9c0.3,0,0.6,0.2,1,0.4c0.2,0.1,0.5,0.2,0.7,0.2c0.4,0,0.7-0.3,0.7-0.4c0-0.1,0.1-0.1,0.1-0.1
		c0,0,0.1,0,0.1,0.1c0,0,0,0.1,0,0.2c-0.1,0.2-0.6,0.8-1,0.8C320.6,35.7,320.2,35.5,320.1,35.4z M321.1,41.8
		C321.1,41.8,321.1,41.8,321.1,41.8l-1.1-3.4c-0.1-0.2-0.1-0.2-0.2,0l-1.1,3.3c0,0.1,0,0.1,0,0.1H321.1z"/>
	<path fill="#231F20" d="M329.4,36.5c2.7,0,4.8,1.7,4.8,4.6c0,2.7-1.9,5-4.9,5c-3.3,0-4.7-2.6-4.7-4.8
		C324.6,39.2,326,36.5,329.4,36.5z M329.6,45.5c1.1,0,3.4-0.6,3.4-4.2c0-2.9-1.8-4.5-3.7-4.5c-2,0-3.6,1.3-3.6,4
		C325.7,43.7,327.5,45.5,329.6,45.5z"/>
</g>
<text transform="matrix(1 0 0 1 29.5453 25.8735)"><tspan x="0" y="0" fill="#7C7B7B" font-family="'Roboto-Light'" font-size="8.979">PORTAL DA</tspan><tspan x="-29.5" y="10.8" fill="#231F20" font-family="'Roboto-Bold'" font-size="8.979">JUSTIÇA FEDERAL</tspan><tspan x="-9.3" y="21.5" fill="#7C7B7B" font-family="'Roboto-Light'" font-size="8.979">DA 5ª REGIÃO</tspan></text>
<line fill="none" stroke="#7C7B7B" stroke-miterlimit="10" x1="85.5" y1="13.9" x2="85.5" y2="54.1"/>
</svg>
