<?xml version="1.0" encoding="utf-8"?>
<!-- Generator: Adobe Illustrator 21.0.0, SVG Export Plug-In . SVG Version: 6.00 Build 0)  -->
<svg version="1.1" id="Camada_1" xmlns="http://www.w3.org/2000/svg" xmlns:xlink="http://www.w3.org/1999/xlink" x="0px" y="0px"
	 viewBox="0 0 46.8 49" style="enable-background:new 0 0 46.8 49;" xml:space="preserve">
<style type="text/css">
	.st0{fill:none;stroke:#fff;stroke-width:1.5;stroke-miterlimit:10;}
	.st1{fill:#fff;}
</style>
<g>
	<g>
		<g>
			<path class="st0" d="M36.8,13.2V0.8H0.8v47.5h24.8L36.8,37v-7 M26.1,44.8 M34.8,35.6h-9.7c-0.6,0-1,0.5-1,1v9.6"/>
			<line class="st0" x1="8" y1="9.6" x2="29.4" y2="9.6"/>
			<line class="st0" x1="8" y1="18.2" x2="29.4" y2="18.2"/>
			<line class="st0" x1="8" y1="26.8" x2="29.4" y2="26.8"/>
		</g>
		<g>
			<g>
				<path class="st1" d="M8.2,35.9c1.2-1.1,2.3-2.3,3.3-3.7c-0.7-0.2-1.3-0.4-2-0.5c0,1-0.1,2-0.1,3c0,0.8,0.9,1.3,1.6,0.9
					c0.7-0.4,1.3-0.8,1.9-1.3c-0.5-0.2-1-0.4-1.5-0.6c0.4,1.4,1.5,2.7,3,2.9c0.6,0.1,1.1,0,1.6-0.3c1.1-0.6,0.9-0.8,2.3-0.5
					c1.3,0.2,1.9-1.8,0.6-2c-0.8-0.1-1.6-0.5-2.4-0.3c-1.1,0.2-2.5,2-3-0.3c-0.2-0.6-1-1-1.5-0.6c-0.6,0.4-1.2,0.9-1.9,1.3
					c0.5,0.3,1.1,0.6,1.6,0.9c0-1,0.1-2,0.1-3c0.1-1.1-1.4-1.3-2-0.5c-0.9,1.2-1.8,2.3-2.9,3.2C5.7,35.4,7.2,36.8,8.2,35.9L8.2,35.9
					z"/>
			</g>
		</g>
		<circle class="st1" cx="9.9" cy="39.9" r="2.5"/>
	</g>
	<polygon class="st0" points="45.7,16.4 39.7,11.5 39.7,13.2 33.7,13.2 33.7,19.6 39.7,19.6 39.7,21.3 	"/>
	<polygon class="st0" points="33.7,27.5 39.7,22.6 39.7,24.3 45.7,24.3 45.7,30.7 39.7,30.7 39.7,32.4 	"/>
</g>
</svg>
