<svg xmlns="http://www.w3.org/2000/svg" viewBox="0 0 29.63 33.05"><defs><style>.cls-1{fill:none;stroke:#fff;stroke-miterlimit:10;}</style></defs><title>p-folha-martelo</title><g id="Camada_2" data-name="Camada 2"><g id="Camada_1-2" data-name="Camada 1"><path class="cls-1" d="M20,16.38V.5H.5V26.16H15.72M14.2,24.3"/><line class="cls-1" x1="4.43" y1="5.3" x2="15.95" y2="5.3"/><line class="cls-1" x1="4.43" y1="9.95" x2="15.95" y2="9.95"/><line class="cls-1" x1="4.43" y1="14.58" x2="15.95" y2="14.58"/><path class="cls-1" d="M28.78,30.5h0l-8.36-8.36,1.24-1.24a1,1,0,0,0,1.14-1.66l-3.58-3.58a1,1,0,0,0-1.66,1.14L13.39,21a1,1,0,0,0-1.14,1.66l3.58,3.58a1,1,0,0,0,1.66-1.14l1.24-1.24,8.36,8.36a1.2,1.2,0,0,0,1.69-1.69Z"/></g></g></svg>