<svg xmlns="http://www.w3.org/2000/svg" viewBox="0 0 49.9 43.81"><defs><style>.cls-1{fill:none;stroke:#5776b0;stroke-linecap:round;stroke-linejoin:round;}</style></defs><title>Asset 3</title><g id="Layer_2" data-name="Layer 2"><g id="Camada_1" data-name="Camada 1"><path class="cls-1" d="M37.1,33.79H48.45a.85.85,0,0,0,.93-1h0v-20a1,1,0,0,0-.3-.73L37.84.81A1,1,0,0,0,37.11.5H1.54a1,1,0,0,0-1,1V32.76a1,1,0,0,0,1,1H31.7m14.14-22H38.25V4.14Z"/><line class="cls-1" x1="28.69" y1="20.07" x2="6.84" y2="20.07"/><line class="cls-1" x1="24.52" y1="26.94" x2="6.84" y2="26.94"/><path class="cls-1" d="M45.18,43.31a8.22,8.22,0,0,1-2.86-.61,21.47,21.47,0,0,1-7.21-4.93,21.65,21.65,0,0,1-4.94-7.21c-.8-2.14-.8-3.9,0-4.7l.36-.37c.73-.77,1.56-1.64,2.66-1.6a3.16,3.16,0,0,1,2.24,1.44c2.22,2.76,1.22,3.74.06,4.88l-.2.2c-.19.19-.55,1.07,2.78,4.4a17.84,17.84,0,0,0,2.75,2.36c.47.31,1.31.77,1.65.42l.2-.2c1.14-1.16,2.13-2.16,4.88.06A3.18,3.18,0,0,1,49,39.69c0,1.1-.83,1.93-1.6,2.67l-.37.35a2.53,2.53,0,0,1-1.84.6Z"/></g></g></svg>