<svg xmlns="http://www.w3.org/2000/svg" viewBox="0 0 26.06 26.06"><defs><style>.cls-1,.cls-3{fill:#5776b0;}.cls-2{fill:none;stroke:#5776b0;stroke-miterlimit:10;}.cls-3{font-size:7.6px;font-family:Roboto-Bold, Roboto;font-weight:700;}</style></defs><title>p-moeda-seta</title><g id="Camada_2" data-name="Camada 2"><g id="Camada_1-2" data-name="Camada 1"><path class="cls-1" d="M7.31,13.7A6.39,6.39,0,1,1,13.7,7.31a6.3,6.3,0,0,1-.91,3.28l.93.22a7.31,7.31,0,1,0-2.9,2.9l-.22-.93A6.29,6.29,0,0,1,7.31,13.7Z"/><path class="cls-2" d="M24.81,21.47,21,17.68a1,1,0,0,1-.29-.83,1,1,0,0,1,.47-.75l2.67-1.7a.1.1,0,0,0,.05-.1.11.11,0,0,0-.08-.09l-12.7-3.08,3.09,12.68a.11.11,0,0,0,.09.08.1.1,0,0,0,.1-.05l1.7-2.66a1,1,0,0,1,.75-.47H17a1,1,0,0,1,.72.3l3.88,3.87a2.36,2.36,0,0,0,3.49-.17A2.43,2.43,0,0,0,24.81,21.47Z"/><text class="cls-3" transform="translate(5.38 9.96)">$</text></g></g></svg>