<svg xmlns="http://www.w3.org/2000/svg" viewBox="0 0 21.91 27.49"><defs><style>.cls-1{fill:none;stroke:#5776b0;stroke-miterlimit:10;stroke-width:0.8px;}.cls-2{fill:#5776b0;}</style></defs><title>p-tablet-tlixo</title><g id="Camada_2" data-name="Camada 2"><g id="Camada_1-2" data-name="Camada 1"><path class="cls-1" d="M11,18m-.2-6.73V17.8"/><path class="cls-1" d="M9,18m-.2-6.73V17.8"/><path class="cls-1" d="M13.13,17.8V11.27"/><path class="cls-1" d="M15.51,9.09H12.73a1.57,1.57,0,0,0-.36-.93.84.84,0,0,0-.62-.26h-2a.84.84,0,0,0-.62.26,1.58,1.58,0,0,0-.36.93H6.41a.2.2,0,1,0,0,.4h.4l.38,9.11a1,1,0,0,0,1,1h5.6a1,1,0,0,0,1-1l.38-9.11h.4a.2.2,0,0,0,0-.4Zm-1.18,9.5"/><path class="cls-2" d="M20.29,0H1.63A1.63,1.63,0,0,0,0,1.63V25.86a1.63,1.63,0,0,0,1.63,1.63H20.29a1.63,1.63,0,0,0,1.63-1.63V1.63A1.63,1.63,0,0,0,20.29,0ZM21,25.86a.7.7,0,0,1-.7.7H1.63a.7.7,0,0,1-.7-.7V1.63a.7.7,0,0,1,.7-.7H20.29a.7.7,0,0,1,.7.7Zm0,0"/><path class="cls-2" d="M20.06,3H1.86a.31.31,0,0,0-.31.31V24.21a.31.31,0,0,0,.31.31h18.2a.31.31,0,0,0,.31-.31V3.28A.31.31,0,0,0,20.06,3ZM19.75,23.9H2.17V3.59H19.75Zm0,0"/><path class="cls-2" d="M11,25.16a.46.46,0,1,0,.33.14.47.47,0,0,0-.33-.14Zm0,0"/><path class="cls-2" d="M11,2.31A.31.31,0,0,0,11.27,2a.31.31,0,1,0-.31.31Zm0,0"/></g></g></svg>