<?xml version="1.0" encoding="utf-8"?>
<!-- Generator: Adobe Illustrator 16.0.2, SVG Export Plug-In . SVG Version: 6.00 Build 0)  -->
<!DOCTYPE svg PUBLIC "-//W3C//DTD SVG 1.1//EN" "http://www.w3.org/Graphics/SVG/1.1/DTD/svg11.dtd">
<svg version="1.1" id="Camada_1" xmlns="http://www.w3.org/2000/svg" xmlns:xlink="http://www.w3.org/1999/xlink" x="0px" y="0px"
	 width="39.922px" height="25.988px" viewBox="0 0 39.922 25.988" enable-background="new 0 0 39.922 25.988" xml:space="preserve">
<g>
	<g>
		<path fill="none" stroke="#FFFFFF" stroke-width="1.5" stroke-miterlimit="10" d="M19.961,25.239
			c-10.445,0-18.624-11.027-18.967-11.496c-0.325-0.445-0.325-1.051,0-1.495C1.337,11.778,9.515,0.75,19.961,0.75
			c10.446,0,18.624,11.027,18.967,11.497c0.326,0.444,0.326,1.05,0,1.495C38.585,14.211,30.406,25.239,19.961,25.239z"/>
		<path fill="none" stroke="#FFFFFF" stroke-width="1.5" stroke-miterlimit="10" d="M19.961,20.594c-4.191,0-7.6-3.409-7.6-7.6
			c0-4.191,3.409-7.601,7.6-7.601c4.191,0,7.6,3.409,7.6,7.601C27.561,17.185,24.15,20.594,19.961,20.594z"/>
	</g>
	<line fill="none" stroke="#FFFFFF" stroke-width="1.5" stroke-miterlimit="10" x1="19.961" y1="9.392" x2="19.961" y2="17.397"/>
</g>
</svg>
