<svg xmlns="http://www.w3.org/2000/svg" viewBox="0 0 58.77 66.02"><defs><style>.cls-1{fill:none;stroke:#fff;stroke-linecap:round;stroke-linejoin:round;}</style></defs><title>Ativo 13</title><g id="Camada_2" data-name="Camada 2"><g id="Layer_1" data-name="Layer 1"><line class="cls-1" x1="10.13" y1="29.4" x2="39.03" y2="29.4"/><line class="cls-1" x1="35.98" y1="36.62" x2="10.13" y2="36.62"/><line class="cls-1" x1="28.75" y1="43.85" x2="10.13" y2="43.85"/><line class="cls-1" x1="10.13" y1="51.08" x2="22.18" y2="51.08"/><path class="cls-1" d="M48.67,23.88V17.36a4.82,4.82,0,0,0-4.82-4.82H38.62A7.24,7.24,0,0,0,33.81,8a3.31,3.31,0,0,1-2.28-2.28,7.23,7.23,0,0,0-13.89,0A3.32,3.32,0,0,1,15.35,8a7.24,7.24,0,0,0-4.81,4.53H5.32A4.82,4.82,0,0,0,.5,17.36V60.71a4.82,4.82,0,0,0,4.82,4.82H43.85a4.82,4.82,0,0,0,4.82-4.82V41M32.75,53.48H29L29.4,50,31,48.39l3.41,3.41Zm3.38-3.38-3.41-3.41L48.05,31.36l3.41,3.41Zm17-17-3.41-3.41,1.7-1.7,3.41,3.41Zm3.41-3.41-3.41-3.41,1.7-1.7L58.27,28Z"/><circle class="cls-1" cx="24.62" cy="7.73" r="1.81"/></g></g></svg>