<?xml version="1.0" encoding="utf-8"?>
<!-- Generator: Adobe Illustrator 21.0.0, SVG Export Plug-In . SVG Version: 6.00 Build 0)  -->
<svg version="1.1" id="Camada_1" xmlns="http://www.w3.org/2000/svg" xmlns:xlink="http://www.w3.org/1999/xlink" x="0px" y="0px"
	 viewBox="0 0 89.8 43.5" style="enable-background:new 0 0 89.8 43.5;" xml:space="preserve">
<style type="text/css">
	.st0{fill:none;stroke:#fff;stroke-linecap:round;stroke-linejoin:round;}
</style>
<title>Ativo 2</title>
<g id="Camada_2">
	<g id="Camada_1-2">
		<path class="st0" d="M88.4,18.9c-0.8-1.1-1.9-1.8-3.2-1.9l-16.6-2l-15-12.6c-1.5-1.2-3.3-1.9-5.2-1.9h-24c-2,0-3.9,1-5,2.8
			l-6.9,10.8l-8.2,2.5c-2.5,0.8-4.1,3.2-3.7,5.8l1.2,7.8C2.3,33.5,5.3,36,8.7,36h9.6c0.7,4.5,4.9,7.5,9.4,6.8
			c3.5-0.6,6.2-3.3,6.8-6.8h26.7c0.7,4.5,4.9,7.5,9.4,6.8c3.5-0.6,6.2-3.3,6.8-6.8h4.9c2.8,0,5.2-2,5.7-4.8l1.4-8.7
			C89.5,21.2,89.1,19.9,88.4,18.9z M26.4,40.4c-3.1,0-5.7-2.5-5.7-5.6s2.5-5.7,5.6-5.7c3.1,0,5.7,2.5,5.7,5.6
			C32,37.9,29.5,40.4,26.4,40.4L26.4,40.4z M69.2,40.4c-3.1,0-5.6-2.5-5.6-5.6c0,0,0,0,0-0.1s0-0.1,0-0.1c0-3.1,2.5-5.6,5.6-5.6
			c3.1,0,5.6,2.5,5.6,5.6c0,0,0,0.1,0,0.1s0,0.1,0,0.1C74.8,37.9,72.3,40.4,69.2,40.4L69.2,40.4z"/>
		<line class="st0" x1="54.3" y1="15.9" x2="25.1" y2="15.9"/>
	</g>
</g>
</svg>
