<?xml version="1.0" encoding="utf-8"?>
<!-- Generator: Adobe Illustrator 17.0.0, SVG Export Plug-In . SVG Version: 6.00 Build 0)  -->
<!DOCTYPE svg PUBLIC "-//W3C//DTD SVG 1.1//EN" "http://www.w3.org/Graphics/SVG/1.1/DTD/svg11.dtd">
<svg version="1.1" id="Camada_1" xmlns="http://www.w3.org/2000/svg" xmlns:xlink="http://www.w3.org/1999/xlink" x="0px" y="0px"
	 width="54.975px" height="61.932px" viewBox="0 0 54.975 61.932" enable-background="new 0 0 54.975 61.932" xml:space="preserve">
<g>
	<polygon fill="none" stroke="#5D70A3" stroke-width="1.5" stroke-miterlimit="10" points="39.883,7.708 39.883,0.75 35.258,0.75 
		35.258,7.708 19.716,7.708 19.716,0.75 15.091,0.75 15.091,7.708 0.75,7.708 0.75,61.182 54.224,61.182 54.224,7.708 	"/>
	<line fill="none" stroke="#5D70A3" stroke-width="1.5" stroke-miterlimit="10" x1="0.75" y1="17.5" x2="54.224" y2="17.5"/>
	<g>
		<rect x="21.614" y="25.125" fill="none" stroke="#5D70A3" stroke-miterlimit="10" width="4" height="4"/>
		<rect x="29.361" y="25.125" fill="none" stroke="#5D70A3" stroke-miterlimit="10" width="4" height="4"/>
		<rect x="37.108" y="25.125" fill="none" stroke="#5D70A3" stroke-miterlimit="10" width="4" height="4"/>
		<rect x="44.855" y="25.125" fill="none" stroke="#5D70A3" stroke-miterlimit="10" width="4" height="4"/>
	</g>
	<g>
		<rect x="6.12" y="32.875" fill="none" stroke="#5D70A3" stroke-miterlimit="10" width="4" height="4"/>
		<rect x="13.867" y="32.875" fill="none" stroke="#5D70A3" stroke-miterlimit="10" width="4" height="4"/>
		<rect x="21.614" y="32.875" fill="none" stroke="#5D70A3" stroke-miterlimit="10" width="4" height="4"/>
		<rect x="29.361" y="32.875" fill="none" stroke="#5D70A3" stroke-miterlimit="10" width="4" height="4"/>
		<rect x="37.108" y="32.875" fill="#5D70A3" stroke="#5D70A3" stroke-miterlimit="10" width="4" height="4"/>
		<rect x="44.855" y="32.875" fill="none" stroke="#5D70A3" stroke-miterlimit="10" width="4" height="4"/>
	</g>
	<g>
		<rect x="6.12" y="40.625" fill="none" stroke="#5D70A3" stroke-miterlimit="10" width="4" height="4"/>
		<rect x="13.867" y="40.625" fill="none" stroke="#5D70A3" stroke-miterlimit="10" width="4" height="4"/>
		<rect x="21.614" y="40.625" fill="none" stroke="#5D70A3" stroke-miterlimit="10" width="4" height="4"/>
		<rect x="29.361" y="40.625" fill="none" stroke="#5D70A3" stroke-miterlimit="10" width="4" height="4"/>
		<rect x="37.108" y="40.625" fill="none" stroke="#5D70A3" stroke-miterlimit="10" width="4" height="4"/>
		<rect x="44.855" y="40.625" fill="none" stroke="#5D70A3" stroke-miterlimit="10" width="4" height="4"/>
	</g>
	<g>
		<rect x="6.12" y="48.375" fill="none" stroke="#5D70A3" stroke-miterlimit="10" width="4" height="4"/>
		<rect x="13.867" y="48.375" fill="none" stroke="#5D70A3" stroke-miterlimit="10" width="4" height="4"/>
		<rect x="21.614" y="48.375" fill="none" stroke="#5D70A3" stroke-miterlimit="10" width="4" height="4"/>
		<rect x="29.361" y="48.375" fill="none" stroke="#5D70A3" stroke-miterlimit="10" width="4" height="4"/>
		<rect x="37.108" y="48.375" fill="none" stroke="#5D70A3" stroke-miterlimit="10" width="4" height="4"/>
	</g>
</g>
</svg>
