<svg xmlns="http://www.w3.org/2000/svg" viewBox="0 0 46.76 59.41"><defs><style>.cls-1{fill:none;stroke:#5776b0;stroke-linecap:round;stroke-linejoin:round;}</style></defs><title>Ativo 20</title><g id="Camada_2" data-name="Camada 2"><g id="Layer_1" data-name="Layer 1"><path class="cls-1" d="M32.05.5H.5V58.91H46.26V14.7Zm1.58,1.86L43.94,12.67H33.64Z"/><path class="cls-1" d="M35.55,20.95H20m15.58,0"/><path class="cls-1" d="M16.44,18.24m-6.9,3.4,1.95,1.94a1,1,0,0,0,.69.28,1,1,0,0,0,.6-.21l4.87-3.89m-1.21-1.52"/><path class="cls-1" d="M35.55,31.66H20m15.58,0"/><path class="cls-1" d="M16.44,28.95m-6.9,3.39,1.95,1.95a1,1,0,0,0,1.29.07l4.87-3.89"/><path class="cls-1" d="M35.55,42.36H20m15.58,0"/><path class="cls-1" d="M9.55,43,11.49,45a1,1,0,0,0,1.29.07l4.87-3.89"/></g></g></svg>