<svg xmlns="http://www.w3.org/2000/svg" viewBox="0 0 55.2 48.91"><defs><style>.cls-1{fill:none;stroke:#3ab186;stroke-miterlimit:10;stroke-width:1.5px;}</style></defs><title>Ativo 8</title><g id="Camada_2" data-name="Camada 2"><g id="Layer_1" data-name="Layer 1"><path class="cls-1" d="M30.69,13.72l-3-2.28a.86.86,0,0,0-1,0l-2.48,1.89-2.48-1.89a.86.86,0,0,0-1,0l-3,2.28"/><path class="cls-1" d="M47.59,43V11.2s0-.06,0-.09V11l0-.07h0l0-.07h0l0-.07h0l0-.06v0l0,0v0l0,0h0L37.74,1h0l0,0h0l0,0h0l-.06,0h0l-.07,0h0l-.07,0h0l-.07,0H1.61a.86.86,0,0,0-.86.86V43.88A4.29,4.29,0,0,0,5,48.16H50.16a4.29,4.29,0,0,0,4.28-4.28V6.18a.86.86,0,0,0-.86-.86h-7M39.18,2.5l6.67,6.67H39.18ZM38,3.68"/><path class="cls-1" d="M20.74,39.25H8.46m12.28,0"/><path class="cls-1" d="M39.88,39.25H27.6m12.28,0"/><path class="cls-1" d="M39.88,34.11H27.6m12.28,0"/><path class="cls-1" d="M39.88,29H27.6m12.28,0"/><path class="cls-1" d="M21.6,27V24.68a.86.86,0,0,0-.86-.86H8.46a.86.86,0,0,0-.86.86V35a.86.86,0,0,0,.86.86H20.74A.86.86,0,0,0,21.6,35V30.4"/><path class="cls-1" d="M39.88,23.83H27.6m12.28,0"/><path class="cls-1" d="M39.88,18.69H8.46m31.42,0"/></g></g></svg>