<svg xmlns="http://www.w3.org/2000/svg" viewBox="0 0 58.67 60.66"><defs><style>.cls-1{fill:none;stroke:#5776b0;stroke-linecap:round;stroke-linejoin:round;}</style></defs><title>Asset 1</title><g id="Layer_2" data-name="Layer 2"><g id="Camada_1" data-name="Camada 1"><path class="cls-1" d="M30.33,16.41H16.41V30.33H30.33Z"/><path class="cls-1" d="M38.28,54.19H52.21V40.27H38.28Z"/><path class="cls-1" d="M58.17,13.42V.5H10.44V30.33H.5V54.19a6,6,0,0,0,6,6H52.21a6,6,0,0,0,5.95-6V13.47a.43.43,0,0,0,0-.05Zm-6-8.73v7.74H16.41V4.69ZM2.49,54.19V32.32h8V54.19a4,4,0,1,1-7.95,0Z"/><line class="cls-1" x1="34.3" y1="17.41" x2="52.21" y2="17.41"/><line class="cls-1" x1="34.3" y1="23.37" x2="52.21" y2="23.37"/><line class="cls-1" x1="34.3" y1="29.33" x2="52.21" y2="29.33"/><line class="cls-1" x1="16.41" y1="34.99" x2="52.21" y2="34.99"/><line class="cls-1" x1="16.9" y1="41.27" x2="34.81" y2="41.27"/><line class="cls-1" x1="16.9" y1="47.23" x2="34.81" y2="47.23"/><line class="cls-1" x1="16.9" y1="53.19" x2="34.81" y2="53.19"/></g></g></svg>