<svg xmlns="http://www.w3.org/2000/svg" viewBox="0 0 43.73 59.44"><defs><style>.cls-1{fill:none;stroke:#5877af;stroke-miterlimit:10;stroke-width:0.8px;}</style></defs><title>Asset 2</title><g id="Layer_2" data-name="Layer 2"><g id="Camada_1" data-name="Camada 1"><path class="cls-1" d="M4.59.4A4.2,4.2,0,0,1,8.78,4.59V50.18a6.25,6.25,0,0,0-8.38,0V4.59A4.2,4.2,0,0,1,4.59.4ZM32.86,59H4.59a4.19,4.19,0,1,1,4.19-4.19v1a1,1,0,0,0,1,1h23Zm10.47-4.19H10.87V5.64H43.33Z"/><path class="cls-1" d="M24.23,10.1h-10v10h10Z"/><path class="cls-1" d="M30,37.36H40v-10H30Z"/><line class="cls-1" x1="27.1" y1="10.82" x2="40.01" y2="10.82"/><line class="cls-1" x1="27.1" y1="15.12" x2="40.01" y2="15.12"/><line class="cls-1" x1="27.1" y1="19.43" x2="40.01" y2="19.43"/><line class="cls-1" x1="14.19" y1="23.51" x2="40.01" y2="23.51"/><line class="cls-1" x1="14.19" y1="41.51" x2="40.01" y2="41.51"/><line class="cls-1" x1="14.19" y1="45.33" x2="40.01" y2="45.33"/><line class="cls-1" x1="14.19" y1="49.15" x2="40.01" y2="49.15"/><line class="cls-1" x1="14.54" y1="28.04" x2="27.46" y2="28.04"/><line class="cls-1" x1="14.54" y1="32.34" x2="27.46" y2="32.34"/><line class="cls-1" x1="14.54" y1="36.64" x2="27.46" y2="36.64"/></g></g></svg>