<svg xmlns="http://www.w3.org/2000/svg" viewBox="0 0 25.94 29.77"><defs><style>.cls-1{fill:none;stroke:#5776b0;stroke-miterlimit:10;}.cls-2{fill:#5776b0;}</style></defs><title>P-tela-blocos-selecionados</title><g id="Camada_2" data-name="Camada 2"><g id="Camada_1-2" data-name="Camada 1"><rect class="cls-1" x="0.5" y="0.5" width="24.94" height="28.77"/><rect class="cls-1" x="13.68" y="3.54" width="10.08" height="6.25"/><rect class="cls-1" x="13.68" y="11.76" width="10.08" height="6.25"/><rect class="cls-1" x="13.68" y="19.99" width="10.08" height="6.25"/><rect class="cls-1" x="2.35" y="3.54" width="10.08" height="6.25"/><rect class="cls-1" x="2.35" y="11.76" width="10.08" height="6.25"/><rect class="cls-1" x="2.35" y="19.99" width="10.08" height="6.25"/><path class="cls-2" d="M18.35,6.59l-.82-1.26h.64l.56.92.56-.92h.64l-.78,1.27L20,8h-.64l-.64-1-.63,1h-.64Z"/><path class="cls-2" d="M6.55,14.81l-.82-1.26h.64l.56.92.56-.92h.64l-.78,1.27.86,1.41H7.56l-.64-1-.63,1H5.65Z"/></g></g></svg>