<?xml version="1.0" encoding="utf-8"?>
<!-- Generator: Adobe Illustrator 17.0.0, SVG Export Plug-In . SVG Version: 6.00 Build 0)  -->
<!DOCTYPE svg PUBLIC "-//W3C//DTD SVG 1.1//EN" "http://www.w3.org/Graphics/SVG/1.1/DTD/svg11.dtd">
<svg version="1.1" id="Camada_1" xmlns="http://www.w3.org/2000/svg" xmlns:xlink="http://www.w3.org/1999/xlink" x="0px" y="0px"
	 width="83.972px" height="69.797px" viewBox="0 0 83.972 69.797" enable-background="new 0 0 83.972 69.797" xml:space="preserve">
<g>
	<path fill="none" stroke="#FFFFFF" stroke-miterlimit="10" d="M56.526,11.603c-0.199-0.19-0.441-0.335-0.708-0.421L39.977,6.207
		C33.641,4.215,29.519,7.688,28.407,8.8c-0.647,0.647-1.145,1.337-1.395,1.931l-7.061,16.603c-0.404,0.949-0.267,2.215,0.362,3.473
		c0.916,1.801,2.553,3.103,4.502,3.568c2.189,0.527,4.455-0.19,6.232-1.955c0.466-0.466,0.861-0.984,1.095-1.415l2.37-4.405
		c0.388-0.724,0.958-1.483,1.551-2.079c2.043-2.032,3.008-1.103,3.414-0.706c3.551,3.423,22.162,22.12,22.162,22.12
		c0.664,0.653,0.525,1.913-0.302,2.741c-0.827,0.819-2.076,0.964-2.741,0.3l-5.232-5.223c-0.673-0.671-1.759-0.671-2.432,0
		c-0.68,0.673-0.68,1.759,0,2.432l5.225,5.232c0.662,0.664,0.525,1.913-0.302,2.741s-2.085,0.967-2.741,0.302l-5.232-5.223
		c-0.673-0.673-1.759-0.673-2.432,0c-0.673,0.671-0.673,1.757,0,2.438l5.223,5.223c0.664,0.664,0.519,1.913-0.3,2.741
		c-0.827,0.827-2.079,0.966-2.743,0.302l-5.232-5.223c-0.671-0.673-1.759-0.673-2.43,0c-0.673,0.673-0.673,1.768,0,2.432
		l5.223,5.232c0.664,0.662,0.525,1.922-0.302,2.741c-0.827,0.827-2.085,0.964-2.741,0.309l-6.371-6.368
		c0.913-1.37,0.664-3.354-0.689-4.707c-1.509-1.509-3.829-1.646-5.172-0.302c1.344-1.344,1.207-3.672-0.302-5.179
		c-1.516-1.509-3.835-1.648-5.179-0.302c1.344-1.346,1.207-3.663-0.311-5.181c-1.509-1.507-3.826-1.646-5.181-0.302
		c1.355-1.344,1.216-3.663-0.3-5.179c-1.414-1.415-3.526-1.613-4.897-0.534l-10.31-10.31c-0.673-0.673-1.768-0.673-2.438,0
		c-0.664,0.671-0.664,1.768,0,2.438l10.283,10.283L8.238,42.84c-1.346,1.337-1.216,3.663,0.302,5.172
		c1.516,1.516,3.826,1.655,5.179,0.302c-1.353,1.353-1.216,3.672,0.302,5.179c1.507,1.518,3.835,1.655,5.181,0.311
		c-1.346,1.344-1.207,3.663,0.3,5.172c1.518,1.516,3.837,1.655,5.181,0.309c-1.344,1.346-1.207,3.663,0.302,5.181
		c1.516,1.509,3.835,1.646,5.179,0.302l3.224-3.224l6.32,6.326c2.017,2.017,5.428,1.871,7.62-0.311
		c1.059-1.059,1.629-2.421,1.706-3.767c1.344-0.077,2.708-0.647,3.776-1.715c1.061-1.061,1.628-2.423,1.715-3.767
		c1.346-0.077,2.699-0.655,3.767-1.715c1.07-1.07,1.64-2.423,1.717-3.767c1.344-0.079,2.705-0.647,3.767-1.717
		c2.189-2.189,2.319-5.603,0.3-7.62l-2.663-2.663l10.947-10.947c0.673-0.673,0.673-1.759,0-2.429L56.526,11.603z M56.526,11.603"/>
	<path fill="none" stroke="#FFFFFF" stroke-miterlimit="10" d="M82.464,15.456L68.515,1.51c-1.353-1.346-3.533-1.346-4.879,0
		l-4.879,4.87c-1.344,1.353-1.344,3.533,0,4.879l13.957,13.946c1.344,1.344,3.524,1.344,4.87,0l4.879-4.87
		C83.808,18.991,83.808,16.8,82.464,15.456L82.464,15.456z M75.144,22.559c-1.56,0-2.836-1.26-2.836-2.827
		c0-1.562,1.275-2.829,2.836-2.829c1.56,0,2.827,1.267,2.827,2.829C77.971,21.292,76.704,22.559,75.144,22.559L75.144,22.559z
		 M75.144,22.559"/>
</g>
</svg>
