<?xml version="1.0" encoding="utf-8"?>
<!-- Generator: Adobe Illustrator 17.0.0, SVG Export Plug-In . SVG Version: 6.00 Build 0)  -->
<!DOCTYPE svg PUBLIC "-//W3C//DTD SVG 1.1//EN" "http://www.w3.org/Graphics/SVG/1.1/DTD/svg11.dtd">
<svg version="1.1" id="Camada_1" xmlns="http://www.w3.org/2000/svg" xmlns:xlink="http://www.w3.org/1999/xlink" x="0px" y="0px"
	 width="37.741px" height="45.899px" viewBox="0 0 37.741 45.899" enable-background="new 0 0 37.741 45.899" xml:space="preserve">
<g>
	<path fill="#FFFFFF" d="M18.858,45.899c-0.438,0-0.794-0.275-0.794-0.612c0-0.338,0.356-0.612,0.794-0.612
		c0.434,0,0.787,0.274,0.787,0.612C19.646,45.624,19.293,45.899,18.858,45.899z M18.858,44.934c-0.285,0-0.535,0.165-0.535,0.353
		c0,0.188,0.25,0.353,0.535,0.353c0.286,0,0.528-0.162,0.528-0.353C19.387,45.096,19.145,44.934,18.858,44.934z"/>
	<path fill="#FFFFFF" d="M19.491,45.115h-1.272c-0.279,0-0.506-0.23-0.506-0.512c0-0.279,0.227-0.506,0.506-0.506h1.272
		c0.283,0,0.513,0.227,0.513,0.506C20.004,44.886,19.774,45.115,19.491,45.115z M18.219,44.357c-0.136,0-0.247,0.111-0.247,0.247
		c0,0.139,0.111,0.253,0.247,0.253h1.272c0.14,0,0.254-0.113,0.254-0.253c0-0.134-0.116-0.247-0.254-0.247H18.219z"/>
	<path fill="#FFFFFF" d="M7.214,35.885l1.722-12.804L0,13.72l12.733-2.321L18.871,0l6.131,11.399l12.74,2.315l-8.936,9.361
		l1.722,12.81l-11.656-5.596L7.214,35.885z M18.871,29.714l0.112,0.054l10.902,5.235l-1.626-12.106l8.443-8.845l-12.038-2.187
		L18.871,1.093l-5.8,10.771L1.039,14.057l8.444,8.846L7.856,35.003L18.871,29.714z"/>
	<g>
		<path fill="#FFFFFF" d="M9.298,16.872l-0.123-0.039l-6.282-2.036l0.018-0.251l8.198-1.387l0.12,0.212
			c-0.851,1.001-1.487,2.139-1.892,3.379L9.298,16.872z M3.476,14.712l5.657,1.834c0.38-1.116,0.944-2.148,1.679-3.074L3.476,14.712
			z"/>
		<path fill="#FFFFFF" d="M22.667,10.569c-1.21-0.498-2.488-0.751-3.797-0.751h-0.13V3.086l0.244-0.06l3.846,7.363L22.667,10.569z
			 M19,9.56c1.181,0.015,2.336,0.23,3.441,0.642L19,3.614V9.56z"/>
		<path fill="#FFFFFF" d="M29.09,20.687l-0.222-0.1c0.02-0.277,0.03-0.511,0.03-0.735c0-1.053-0.165-2.095-0.492-3.099l-0.04-0.123
			l6.403-2.08l0.133,0.214L29.09,20.687z M28.691,16.796c0.309,0.991,0.466,2.018,0.466,3.055c0,0.131-0.003,0.264-0.01,0.407
			l5.199-5.299L28.691,16.796z"/>
		<path fill="#FFFFFF" d="M28.656,33.51l-7.422-3.687l0.027-0.242c1.263-0.311,2.439-0.86,3.496-1.63l0.105-0.076l3.957,5.444
			L28.656,33.51z M21.658,29.744l6.641,3.299l-3.494-4.807C23.842,28.919,22.786,29.425,21.658,29.744z"/>
		<path fill="#FFFFFF" d="M9.132,33.47l-0.233-0.096l1.219-8.197l0.238-0.05c0.689,1.105,1.573,2.055,2.628,2.823l0.104,0.076
			L9.132,33.47z M10.324,25.555L9.233,32.89l3.494-4.807C11.784,27.378,10.978,26.529,10.324,25.555z"/>
	</g>
	<path fill="#FFFFFF" d="M18.871,29.623c-5.392,0-9.778-4.384-9.778-9.772c0-5.392,4.386-9.779,9.778-9.779s9.779,4.387,9.779,9.779
		C28.649,25.239,24.262,29.623,18.871,29.623z M18.871,10.331c-5.249,0-9.519,4.27-9.519,9.52c0,5.246,4.27,9.513,9.519,9.513
		c5.249,0,9.52-4.267,9.52-9.513C28.39,14.602,24.12,10.331,18.871,10.331z"/>
	<path fill="#FFFFFF" d="M18.871,26.576c-3.712,0-6.731-3.017-6.731-6.725c0-3.712,3.02-6.731,6.731-6.731s6.731,3.02,6.731,6.731
		C25.602,23.559,22.582,26.576,18.871,26.576z M18.871,13.379c-3.569,0-6.472,2.904-6.472,6.472c0,3.565,2.904,6.466,6.472,6.466
		s6.472-2.901,6.472-6.466C25.343,16.282,22.439,13.379,18.871,13.379z"/>
	<path fill="#FFFFFF" d="M22.313,20.166l-0.14-1.167l-1.041-0.543l1.057-0.497l0.187-1.152l0.808,0.855l1.154-0.187l-0.562,1.029
		l0.528,1.057l-1.151-0.218L22.313,20.166z M21.716,18.468l0.699,0.365l0.093,0.779l0.562-0.551l0.77,0.145l-0.355-0.709
		l0.373-0.684l-0.768,0.124l-0.542-0.573l-0.125,0.77L21.716,18.468z"/>
	<path fill="#FFFFFF" d="M13.855,22.708l-0.132-1.097l-0.993-0.511l1.009-0.468l0.175-1.082l0.759,0.804l1.084-0.176l-0.528,0.967
		l0.496,0.992l-1.081-0.205L13.855,22.708z M13.32,21.113l0.644,0.331l0.085,0.71l0.511-0.501l0.701,0.132l-0.323-0.645l0.34-0.622
		l-0.698,0.113l-0.493-0.521l-0.113,0.7L13.32,21.113z"/>
	<path fill="#FFFFFF" d="M18.944,21.55l-0.128-0.955l-0.853-0.454l0.868-0.413l0.171-0.955l0.654,0.711l0.969-0.157l-0.471,0.858
		l0.443,0.871l-0.958-0.186L18.944,21.55z M18.539,20.154l0.516,0.275l0.077,0.574l0.423-0.414l0.571,0.111l-0.265-0.521
		l0.282-0.512l-0.582,0.094l-0.395-0.43l-0.102,0.573L18.539,20.154z"/>
	<path fill="#FFFFFF" d="M20.191,26.222l-0.427-1.002l-1.075-0.206l0.83-0.715l-0.127-1.078l0.937,0.56l0.99-0.456l-0.247,1.054
		l0.729,0.804l-1.078,0.094L20.191,26.222z M19.265,24.859l0.684,0.132l0.275,0.646l0.342-0.607l0.694-0.061l-0.47-0.518
		l0.157-0.669l-0.632,0.291l-0.603-0.361l0.081,0.693L19.265,24.859z"/>
	<path fill="#FFFFFF" d="M16.965,17.132l-0.166-1.254l-1.121-0.588l1.142-0.532l0.2-1.255l0.866,0.933l1.245-0.2l-0.611,1.111
		l0.567,1.122l-1.224-0.234L16.965,17.132z M16.262,15.304l0.776,0.407l0.115,0.867l0.623-0.623l0.842,0.161l-0.391-0.774
		l0.421-0.766l-0.858,0.137l-0.598-0.644l-0.138,0.867L16.262,15.304z"/>
	<path fill="#FFFFFF" d="M18.183,12.59l0.135-0.763l-0.555-0.537l0.765-0.109l0.344-0.698l0.336,0.698l0.764,0.109l-0.554,0.537
		l0.135,0.756l-0.681-0.354L18.183,12.59z M18.324,11.472l0.273,0.265l-0.067,0.379l0.34-0.179l0.335,0.174l-0.067-0.373
		l0.274-0.265l-0.377-0.054l-0.166-0.344L18.7,11.418L18.324,11.472z"/>
	<path fill="#FFFFFF" d="M15.028,13.65l-0.219-0.737l-0.737-0.234l0.631-0.438v-0.772l0.612,0.469l0.73-0.243l-0.253,0.724
		l0.451,0.617l-0.762-0.008L15.028,13.65z M14.653,12.591l0.366,0.116l0.108,0.367l0.224-0.306l0.379,0.004l-0.226-0.31l0.124-0.355
		l-0.361,0.12l-0.304-0.233v0.382L14.653,12.591z"/>
	<path fill="#FFFFFF" d="M13.718,14.709l-0.386-0.67l-0.771-0.05l0.513-0.58l-0.176-0.746l0.702,0.309l0.657-0.404l-0.085,0.765
		l0.585,0.494l-0.746,0.168L13.718,14.709z M13.105,13.764l0.382,0.025l0.192,0.333l0.145-0.351l0.369-0.083l-0.292-0.246
		l0.041-0.376l-0.321,0.197l-0.351-0.154l0.088,0.37L13.105,13.764z"/>
	<path fill="#FFFFFF" d="M12.668,16.018l-0.528-0.561l-0.763,0.117l0.37-0.673l-0.344-0.687l0.754,0.142l0.545-0.545l0.101,0.763
		l0.688,0.353l-0.697,0.327L12.668,16.018z M12.235,15.179l0.262,0.279l0.062-0.379l0.344-0.161l-0.34-0.174l-0.05-0.378l-0.27,0.27
		l-0.374-0.071l0.171,0.342l-0.182,0.33L12.235,15.179z"/>
	<path fill="#FFFFFF" d="M21.183,12.935l-0.578-0.503l-0.746,0.193l0.302-0.713l-0.41-0.652l0.764,0.067l0.494-0.588l0.169,0.746
		l0.721,0.284l-0.663,0.395L21.183,12.935z M20.672,12.147l0.286,0.249l0.025-0.384l0.327-0.195l-0.357-0.142l-0.083-0.37
		l-0.245,0.291l-0.378-0.033l0.205,0.325l-0.15,0.353L20.672,12.147z"/>
	<path fill="#FFFFFF" d="M16.546,12.941l-0.051-0.763l-0.66-0.402l0.719-0.284l0.176-0.747l0.487,0.595l0.772-0.067l-0.42,0.647
		l0.301,0.712l-0.746-0.193L16.546,12.941z M16.415,11.826l0.33,0.2l0.025,0.378l0.287-0.25l0.369,0.096l-0.15-0.355l0.206-0.318
		l-0.381,0.033l-0.241-0.295l-0.087,0.369L16.415,11.826z"/>
	<path fill="#FFFFFF" d="M25.055,16.003l-0.126-0.754l-0.694-0.334l0.685-0.351l0.101-0.764l0.545,0.545l0.758-0.142l-0.353,0.688
		l0.378,0.678l-0.766-0.117L25.055,16.003z M24.817,14.907l0.346,0.166l0.062,0.375l0.263-0.275l0.376,0.058l-0.187-0.337
		l0.175-0.341l-0.372,0.07l-0.27-0.27l-0.05,0.378L24.817,14.907z"/>
	<path fill="#FFFFFF" d="M22.707,13.659l-0.453-0.63l-0.773,0.017l0.461-0.621l-0.26-0.73l0.739,0.243l0.614-0.462l-0.009,0.771
		l0.639,0.437l-0.74,0.235L22.707,13.659z M22.385,12.767l0.224,0.311l0.107-0.364l0.364-0.116l-0.315-0.215L22.77,12l-0.302,0.227
		l-0.364-0.12l0.129,0.361l-0.228,0.307L22.385,12.767z"/>
	<path fill="#FFFFFF" d="M24.011,14.695l-0.294-0.713l-0.746-0.159l0.579-0.503l-0.076-0.764l0.654,0.403l0.706-0.312l-0.185,0.748
		l0.52,0.577l-0.772,0.058L24.011,14.695z M23.534,13.678l0.37,0.079l0.146,0.354l0.191-0.328l0.382-0.029l-0.259-0.288l0.091-0.368
		l-0.348,0.153l-0.324-0.199l0.037,0.378L23.534,13.678z"/>
	<path fill="#FFFFFF" d="M11.924,24.958l-0.469-0.61l-0.774,0.042l0.445-0.638l-0.277-0.723l0.74,0.227l0.603-0.486l0.016,0.772
		l0.645,0.418l-0.729,0.26L11.924,24.958z M11.577,24.082l0.234,0.305l0.099-0.365l0.362-0.129l-0.32-0.208l-0.008-0.382l-0.3,0.242
		l-0.364-0.112l0.137,0.355l-0.22,0.315L11.577,24.082z"/>
	<path fill="#FFFFFF" d="M13.57,27.554l0.109-0.763l-0.57-0.52l0.763-0.134l0.319-0.697l0.361,0.679l0.765,0.085l-0.538,0.555
		l0.151,0.755l-0.688-0.336L13.57,27.554z M13.673,26.435l0.282,0.257l-0.054,0.379l0.332-0.187l0.34,0.166l-0.075-0.375
		l0.264-0.272l-0.375-0.041l-0.179-0.337l-0.157,0.344L13.673,26.435z"/>
	<path fill="#FFFFFF" d="M15.486,28.558l-0.068-0.77l-0.68-0.369l0.715-0.311l0.151-0.747l0.504,0.571l0.768-0.083l-0.392,0.66
		l0.318,0.695l-0.752-0.166L15.486,28.558z M15.329,27.444l0.336,0.182l0.033,0.383l0.276-0.255l0.376,0.083l-0.158-0.345
		l0.197-0.331l-0.386,0.042l-0.248-0.281l-0.075,0.369L15.329,27.444z"/>
	<path fill="#FFFFFF" d="M17.572,29.117l-0.244-0.74l-0.745-0.21l0.621-0.462l-0.025-0.763l0.627,0.443l0.718-0.262l-0.236,0.732
		l0.476,0.61l-0.769,0.009L17.572,29.117z M17.16,28.061l0.37,0.104l0.12,0.363l0.204-0.31l0.384-0.005l-0.238-0.305l0.115-0.359
		l-0.348,0.127l-0.313-0.221l0.012,0.378L17.16,28.061z"/>
	<path fill="#FFFFFF" d="M10.942,23.242l-0.318-0.705l-0.757-0.143l0.571-0.512l-0.101-0.763l0.67,0.385l0.696-0.336l-0.16,0.756
		l0.529,0.563l-0.77,0.075L10.942,23.242z M10.431,22.237l0.373,0.07l0.157,0.347l0.178-0.336l0.384-0.038l-0.261-0.277l0.079-0.372
		l-0.345,0.166l-0.333-0.192l0.05,0.378L10.431,22.237z"/>
	<path fill="#FFFFFF" d="M13.292,26.41l-0.601-0.485l-0.74,0.211l0.284-0.719l-0.437-0.64l0.773,0.051l0.468-0.611l0.201,0.746
		l0.721,0.26l-0.644,0.418L13.292,26.41z M12.749,25.639l0.302,0.242l0.012-0.385l0.321-0.208l-0.357-0.13l-0.1-0.369l-0.233,0.305
		l-0.381-0.025l0.215,0.314l-0.142,0.359L12.749,25.639z"/>
	<path fill="#FFFFFF" d="M11.958,17.55l-0.64-0.437l-0.719,0.284l0.21-0.738l-0.487-0.596l0.77-0.025l0.41-0.653l0.269,0.722
		l0.737,0.193l-0.602,0.476L11.958,17.55z M11.351,16.821l0.314,0.215l-0.025-0.379l0.301-0.238l-0.366-0.096l-0.132-0.357
		l-0.205,0.325l-0.384,0.013l0.241,0.295l-0.103,0.365L11.351,16.821z"/>
	<path fill="#FFFFFF" d="M10.379,21.34l-0.143-0.765L9.53,20.265l0.68-0.369l0.075-0.774l0.563,0.537l0.748-0.168l-0.328,0.698
		l0.385,0.671l-0.762-0.101L10.379,21.34z M10.118,20.24l0.348,0.153l0.07,0.377l0.252-0.285l0.379,0.05l-0.191-0.333l0.16-0.342
		l-0.368,0.083l-0.277-0.265l-0.037,0.38L10.118,20.24z"/>
	<path fill="#FFFFFF" d="M10.26,19.355l0.033-0.771l-0.612-0.461l0.745-0.209l0.252-0.73l0.427,0.645l0.763,0.017l-0.477,0.602
		l0.227,0.741l-0.723-0.277L10.26,19.355z M10.255,18.231l0.303,0.228l-0.017,0.383l0.318-0.222l0.355,0.136l-0.111-0.362
		l0.238-0.301l-0.379-0.009l-0.212-0.32l-0.125,0.361L10.255,18.231z"/>
	<path fill="#FFFFFF" d="M25.811,24.95l-0.2-0.735l-0.733-0.253l0.649-0.421l0.017-0.772l0.603,0.486l0.74-0.227l-0.278,0.724
		l0.436,0.638l-0.765-0.042L25.811,24.95z M25.465,23.89l0.359,0.124l0.1,0.368l0.234-0.301l0.376,0.021l-0.216-0.316l0.136-0.354
		l-0.363,0.112l-0.3-0.242l-0.009,0.382L25.465,23.89z"/>
	<path fill="#FFFFFF" d="M24.159,27.547l-0.671-0.376l-0.688,0.344l0.15-0.763l-0.538-0.555l0.767-0.085l0.367-0.676l0.318,0.694
		l0.757,0.135l-0.57,0.52L24.159,27.547z M23.495,26.877l0.333,0.187l-0.054-0.379l0.282-0.258l-0.372-0.066l-0.158-0.347
		l-0.185,0.34l-0.375,0.041l0.264,0.273l-0.074,0.379L23.495,26.877z"/>
	<path fill="#FFFFFF" d="M22.243,28.552l-0.564-0.522l-0.752,0.167l0.319-0.696l-0.384-0.659l0.759,0.083l0.505-0.572l0.151,0.748
		l0.714,0.311l-0.68,0.369L22.243,28.552z M21.755,27.747l0.276,0.256l0.033-0.383l0.336-0.183l-0.352-0.153l-0.074-0.368
		l-0.248,0.281l-0.382-0.042l0.193,0.331l-0.158,0.344L21.755,27.747z"/>
	<path fill="#FFFFFF" d="M20.158,29.102l-0.429-0.64l-0.772-0.009l0.478-0.604L19.2,27.113l0.723,0.261l0.628-0.444l-0.025,0.769
		l0.621,0.462l-0.746,0.21L20.158,29.102z M19.487,28.201l0.382,0.005l0.211,0.314l0.12-0.36l0.37-0.104l-0.307-0.228l0.012-0.385
		l-0.312,0.221l-0.356-0.128l0.117,0.367L19.487,28.201z"/>
	<path fill="#FFFFFF" d="M26.801,23.242l-0.369-0.679l-0.773-0.076l0.538-0.563l-0.159-0.756l0.696,0.336l0.664-0.387l-0.101,0.765
		l0.571,0.512l-0.755,0.143L26.801,23.242z M26.214,22.281l0.381,0.037l0.183,0.337l0.153-0.348l0.373-0.07l-0.282-0.254l0.05-0.376
		l-0.327,0.19L26.4,21.631l0.078,0.373L26.214,22.281z"/>
	<path fill="#FFFFFF" d="M24.443,26.406l-0.025-0.771l-0.648-0.412l0.723-0.261l0.192-0.743l0.478,0.603l0.763-0.042l-0.427,0.637
		l0.277,0.721l-0.738-0.218L24.443,26.406z M24.354,25.288l0.318,0.202l0.013,0.383l0.295-0.241l0.366,0.108l-0.137-0.357
		l0.213-0.317l-0.378,0.021l-0.238-0.3l-0.096,0.372L24.354,25.288z"/>
	<path fill="#FFFFFF" d="M25.784,17.539l0.05-0.764l-0.603-0.477l0.745-0.192l0.269-0.723l0.41,0.654l0.772,0.025l-0.495,0.597
		l0.211,0.739l-0.715-0.285L25.784,17.539z M25.801,16.419l0.3,0.238l-0.025,0.378l0.321-0.213l0.351,0.141l-0.103-0.364
		l0.244-0.294l-0.382-0.013l-0.203-0.325l-0.133,0.356L25.801,16.419z"/>
	<path fill="#FFFFFF" d="M27.363,21.34l-0.513-0.58l-0.771,0.101l0.395-0.672l-0.328-0.698l0.749,0.169l0.561-0.528l0.076,0.765
		l0.68,0.369l-0.706,0.311L27.363,21.34z M26.954,20.485l0.252,0.285l0.07-0.377l0.348-0.153l-0.336-0.183l-0.037-0.377
		l-0.279,0.262l-0.366-0.082l0.161,0.342l-0.195,0.332L26.954,20.485z"/>
	<path fill="#FFFFFF" d="M27.481,19.352l-0.635-0.434l-0.723,0.269l0.227-0.738l-0.477-0.602l0.768-0.017l0.422-0.649l0.252,0.739
		l0.748,0.201l-0.615,0.464L27.481,19.352z M26.882,18.628l0.318,0.218l-0.017-0.387l0.301-0.226l-0.368-0.099l-0.124-0.365
		l-0.206,0.317L26.4,18.094l0.238,0.301l-0.112,0.365L26.882,18.628z"/>
	<path fill="#FFFFFF" d="M19.715,44.486h-1.72l-0.052-0.191c-0.431-1.592-0.634-3.028-0.234-4.774h-0.043
		c-0.328,0-0.585-0.232-0.585-0.528v-0.05c-1.034,0.136-2.09,0.389-3.219,0.771l-0.342,0.116v-4.22l0.342,0.115
		c1.131,0.38,2.188,0.632,3.219,0.767v-0.008c0-0.266,0.218-0.487,0.501-0.523v-5.629l1.287-0.618l1.263,0.606v5.64
		c0.282,0.035,0.508,0.261,0.508,0.524v0.007c1.033-0.135,2.087-0.387,3.213-0.767l0.342-0.115v4.221l-0.342-0.116
		c-1.126-0.382-2.181-0.635-3.213-0.771v0.049c0,0.291-0.263,0.528-0.585,0.528h-0.109c0.328,1.649,0.272,3.095-0.18,4.774
		L19.715,44.486z M18.393,43.968h0.924c0.414-1.634,0.429-2.995,0.057-4.65l-0.071-0.316h0.753c0.041,0,0.066-0.018,0.07-0.025
		l-0.004-0.616l0.288,0.032c1.056,0.117,2.128,0.353,3.267,0.717v-2.783c-1.138,0.362-2.21,0.597-3.268,0.714l-0.287,0.032v-0.589
		c0.001,0.009-0.027-0.011-0.067-0.011h-0.441v-5.828l-0.744-0.357l-0.769,0.369v5.815h-0.435c-0.041,0-0.066,0.019-0.07,0.026
		l0.003,0.573l-0.287-0.031c-1.057-0.116-2.13-0.351-3.274-0.714v2.783c1.141-0.365,2.215-0.6,3.274-0.718l0.287-0.032v0.632
		c0.001-0.008,0.022,0.01,0.067,0.01h0.71l-0.087,0.326C17.893,40.824,17.919,42.139,18.393,43.968z"/>
	<path fill="#FFFFFF" d="M19.651,38.682l-0.793-0.419l-0.8,0.419l0.153-0.889l-0.647-0.635l0.89-0.127l0.406-0.813l0.393,0.813
		l0.899,0.127l-0.648,0.636L19.651,38.682z M18.12,37.341l0.37,0.362l-0.087,0.506l0.456-0.239l0.452,0.239l-0.083-0.507
		l0.369-0.361l-0.516-0.073l-0.224-0.463l-0.231,0.463L18.12,37.341z"/>
</g>
</svg>
