<svg xmlns="http://www.w3.org/2000/svg" viewBox="0 0 65.12 36.81"><defs><style>.cls-1{fill:none;stroke:#fff;stroke-miterlimit:10;}.cls-2{font-size:9.96px;fill:#fff;font-family:Roboto-Bold, Roboto Bold;font-weight:700;}</style></defs><title>Asset 8</title><g id="Layer_2" data-name="Layer 2"><g id="Camada_1" data-name="Camada 1"><path class="cls-1" d="M57.33.5H7.79A7.29,7.29,0,0,0,.5,7.79V29a7.29,7.29,0,0,0,7.29,7.29H57.33A7.29,7.29,0,0,0,64.62,29V7.79A7.29,7.29,0,0,0,57.33.5ZM61.7,29"/><path class="cls-1" d="M54.41,9.24H10.7A1.46,1.46,0,0,0,9.24,10.7V25.27a1.46,1.46,0,0,0,1.46,1.46H54.41a1.46,1.46,0,0,0,1.46-1.46V10.7a1.46,1.46,0,0,0-1.46-1.46ZM53,23.81"/><text class="cls-2" transform="translate(21.26 21.31)">$0,00</text></g></g></svg>