<?xml version="1.0" encoding="utf-8"?>
<!-- Generator: Adobe Illustrator 18.0.0, SVG Export Plug-In . SVG Version: 6.00 Build 0)  -->
<!DOCTYPE svg PUBLIC "-//W3C//DTD SVG 1.1//EN" "http://www.w3.org/Graphics/SVG/1.1/DTD/svg11.dtd">
<svg version="1.1" id="Camada_1" xmlns="http://www.w3.org/2000/svg" xmlns:xlink="http://www.w3.org/1999/xlink" x="0px" y="0px"
	 viewBox="0 0 59.8 50.6" enable-background="new 0 0 59.8 50.6" xml:space="preserve">
<g>
	<g>
		<path fill="none" stroke="#fff" stroke-width="1.5" stroke-miterlimit="10" d="M26.3,0.5C26.3,0.5,26.3,0.5,26.3,0.5L10.1,16.8
			H1.7c-0.5,0-1,0.4-1,1v7.8c0,0.5,0.4,1,1,1h2.1L7.6,49c0.1,0.5,0.5,0.8,1,0.8h42.8c0.5,0,0.9-0.3,1-0.8L56,26.5h2.1
			c0.5,0,1-0.4,1-1v-7.8c0-0.5-0.4-1-1-1h-8.3L33.5,0.6 M3.5,26.5h53.6 M3.5,16.8h53.6"/>
		<path fill="none" stroke="#fff" stroke-width="1.5" stroke-miterlimit="10" d="M28,45.9h3.9c0.5,0,1-0.4,1-0.9V30.7
			c0-0.5-0.4-0.9-1-0.9H28c-0.5,0-1,0.4-1,0.9V45C27,45.5,27.4,45.9,28,45.9z"/>
		<path fill="none" stroke="#fff" stroke-width="1.5" stroke-miterlimit="10" d="M18.2,45.9h3.9c0.5,0,1-0.4,1-0.9V30.7
			c0-0.5-0.4-0.9-1-0.9h-3.9c-0.5,0-1,0.4-1,0.9V45C17.3,45.5,17.7,45.9,18.2,45.9z"/>
		<path fill="none" stroke="#fff" stroke-width="1.5" stroke-miterlimit="10" d="M37.7,45.9h3.9c0.5,0,1-0.4,1-0.9V30.7
			c0-0.5-0.4-0.9-1-0.9h-3.9c-0.5,0-1,0.4-1,0.9V45C36.7,45.5,37.1,45.9,37.7,45.9z"/>
	</g>
</g>
</svg>
