<svg xmlns="http://www.w3.org/2000/svg" viewBox="0 0 71.74 71.74"><defs><style>.cls-1{fill:none;stroke:#fff;stroke-miterlimit:10;}</style></defs><title>Ativo 5</title><g id="Camada_2" data-name="Camada 2"><g id="Camada_1-2" data-name="Camada 1"><path class="cls-1" d="M41.76,5.22V9.93"/><path class="cls-1" d="M30,9.93V5.22"/><path class="cls-1" d="M55.91,27.62H15.83a1.11,1.11,0,0,1-1.18-1.18V24.08A20.5,20.5,0,0,1,30,4.27V4A3.55,3.55,0,0,1,33.51.5h4.72A3.55,3.55,0,0,1,41.76,4v.24A20.5,20.5,0,0,1,57.09,24.08v2.36A1.11,1.11,0,0,1,55.91,27.62Z"/><path class="cls-1" d="M58.27,27.62H13.47"/><path class="cls-1" d="M54.73,27.62v4.72c0,10.61-8,22.4-18.86,22.4S17,42.94,17,32.33V27.62"/><path class="cls-1" d="M40.59,65.34H31.15a1.05,1.05,0,0,1-.94-.59,1.94,1.94,0,0,1-.12-1.18L34.81,53a1.13,1.13,0,0,1,1.06-.71,1,1,0,0,1,1.06.71l4.72,10.61a1.4,1.4,0,0,1-.12,1.18A1.05,1.05,0,0,1,40.59,65.34ZM33,63h5.78L35.87,56.5Z"/><path class="cls-1" d="M30.21,64.87l-9.43-13a1.42,1.42,0,0,1-.24-.94l1.08-4.31"/><path class="cls-1" d="M50.64,52.62c4.76.82,10.11,2.91,17.06,6.6h0A6.76,6.76,0,0,1,71.24,65v5.07a1.11,1.11,0,0,1-1.18,1.18H41.29"/><path class="cls-1" d="M30,71.24H1.68A1.11,1.11,0,0,1,.5,70.06V65A6.27,6.27,0,0,1,4,59.21c7-3.73,12.43-5.82,17.24-6.63"/><path class="cls-1" d="M27.62,17h-.24l-9-1.77a1.25,1.25,0,0,1-.83-.71,1.15,1.15,0,0,1,.12-1.06,21.4,21.4,0,0,1,7.66-7.19.88.88,0,0,1,1.06,0,1.25,1.25,0,0,1,.71.83l1.77,8.61a1,1,0,0,1-.35,1.06A2.77,2.77,0,0,1,27.62,17Z"/><path class="cls-1" d="M44.12,17a1.07,1.07,0,0,1-.83-.35,1.65,1.65,0,0,1-.35-1.06L44.71,7a2.11,2.11,0,0,1,.59-.83,1.64,1.64,0,0,1,1.06,0A21.4,21.4,0,0,1,54,13.35a1.15,1.15,0,0,1,.12,1.06,1.25,1.25,0,0,1-.83.71l-9,1.89Z"/><path class="cls-1" d="M50.31,46.65,51.39,51a1.42,1.42,0,0,1-.24.94l-9.43,13"/></g></g></svg>