<?xml version="1.0" encoding="UTF-8"?>
<!DOCTYPE svg PUBLIC "-//W3C//DTD SVG 1.1//EN" "http://www.w3.org/Graphics/SVG/1.1/DTD/svg11.dtd">
<!-- Creator: CorelDRAW X7 -->
<svg xmlns="http://www.w3.org/2000/svg" xml:space="preserve" width="35px" height="33px" version="1.1" style="shape-rendering:geometricPrecision; text-rendering:geometricPrecision; image-rendering:optimizeQuality; fill-rule:evenodd; clip-rule:evenodd"
viewBox="0 0 44 42"
 xmlns:xlink="http://www.w3.org/1999/xlink">
 <defs>
  <style type="text/css">
   <![CDATA[
    .str0 {stroke:#373435;stroke-width:0.700277}
    .fil0 {fill:none}
   ]]>
  </style>
 </defs>
 <g id="Camada_x0020_1">
  <metadata id="CorelCorpID_0Corel-Layer"/>
  <g id="folha_lapis.svg">
   <g id="Camada_2" data-name="Camada 2">
    <g id="Camada_1-2" data-name="Camada 1">
     <path class="fil0 str0" d="M38 36l-29 0 0 0 0 0 -5 2c0,0 0,0 0,0 0,1 0,1 0,1l5 2 0 0 29 0c1,0 2,-1 2,-2l0 -1c0,-1 -1,-2 -2,-2l0 0zm-27 3l22 0 0 2 -23 0 1 -2zm25 0l2 0 0 2 -4 0 2 -2zm-26 0l0 2 -4 -3 4 1zm31 2c0,0 -1,0 -1,0l-3 0 0 -4 1 0c1,0 1,0 1,1l2 3zm-3 -4"/>
     <path class="fil0 str0" d="M44 25l0 0 0 0 0 0 0 0 0 0 0 0 0 0 0 0 0 0c0,0 0,0 0,0 0,0 0,0 0,0l0 -24c0,0 -1,-1 -1,-1l-42 0c0,0 -1,1 -1,1l0 32c0,0 1,1 1,1l34 0 0 0 0 0 0 0 0 0 0 0 0 0 0 0 0 0 0 0 0 0 0 0 8 -9 1 0 0 0 0 0 0 0zm-3 0l-6 6 0 -6 6 0zm0 0"/>
     <path class="fil0 str0" d="M32 28l-4 0 0 -17 11 0 0 11c0,0 0,0 0,0 1,0 1,0 1,0l0 -17c0,-1 0,-1 -1,-1l-29 0m-3 0l-2 0c-1,0 -1,0 -1,1l0 24c0,1 0,1 1,1l27 0m-5 -2l-10 0 0 -17 10 0 0 17zm-22 -17l11 0 0 17 -11 0 0 -17zm0 0"/>
    </g>
   </g>
  </g>
 </g>
</svg>
