<svg xmlns="http://www.w3.org/2000/svg" viewBox="0 0 40.42 60.98"><defs><style>.cls-1{fill:none;stroke:#3ab186;stroke-miterlimit:10;stroke-width:1.5px;}.cls-2{font-size:11.29px;fill:#3ab186;font-family:Roboto-Bold, Roboto Bold;font-weight:700;}</style></defs><title>Asset 11</title><g id="Layer_2" data-name="Layer 2"><g id="Camada_1" data-name="Camada 1"><path class="cls-1" d="M14.66.75a1.31,1.31,0,0,0-.86.32L1.2,12a1.31,1.31,0,0,0-.13,1.85L15.8,30.8l.74.85.76.87c-.61.06-1.25.15-1.88.27-2.33.44-3.82,1.19-4.07,2.06-.08.28-.2,1.34.51,5.12.44,2.33,1.12,5.33,2,8.93,1.24,4.91,2.56,9.61,3.05,11.33H26.8l.87-16.12s-1.21-11.23-1.34-12.45a19.54,19.54,0,0,1-.21-2l-.11-1v-.05a2.2,2.2,0,1,0-4.4,0v1.25c0,3.94,0,7.88,0,11.82a.95.95,0,0,1-1.31.88,3.89,3.89,0,0,1-2.19-2.24,2.71,2.71,0,0,1,.59-2.41l0,0,1-1.11,0-3.59L19,32.39l-.79-.9-.77-.89L2.17,13,14.65,2.17l1.78,2,1.44-.46L15.64,1.2a1.31,1.31,0,0,0-1-.45Zm0,0"/><path class="cls-1" d="M28.27,33.25l.55,5.22h0a2.5,2.5,0,0,0,2-.88,3,3,0,0,0,.67-1.86,2.62,2.62,0,0,0-2.68-2.47Zm0,0"/><path class="cls-1" d="M39.64,27.3,31.43,1.55a.61.61,0,0,0-.77-.4L18.87,4.9l-.72.23-.72.23-2.68.85a.61.61,0,0,0-.4.77L20,24.83l.41,1.3q.12-.17.26-.32a4.15,4.15,0,0,1,3.11-1.4,3.83,3.83,0,0,1,2.67,1,4,4,0,0,1,.9,1.27,4.3,4.3,0,0,1,.25.71,4.51,4.51,0,0,1,.13.81c0,.09,0,.18,0,.28l.33,3.12.59-.19.91-.29,9.64-3.07a.61.61,0,0,0,.4-.77Zm0,0"/><text class="cls-2" transform="matrix(0.95, -0.31, 0.31, 0.95, 25.56, 20.59)">$</text></g></g></svg>